<svg width="39" height="39" fill="none" xmlns="http://www.w3.org/2000/svg"><path d="M27.174 22.848c-.415-.213-2.483-1.227-2.867-1.364-.385-.144-.667-.213-.945.214-.282.422-1.082 1.363-1.333 1.649-.244.281-.491.316-.906.106-2.468-1.234-4.087-2.201-5.713-4.993-.43-.742.43-.69 1.234-2.293.137-.281.068-.521-.038-.735-.107-.213-.945-2.277-1.295-3.119-.34-.819-.69-.704-.945-.72-.244-.015-.522-.015-.803-.015-.282 0-.736.107-1.12.522-.385.423-1.47 1.44-1.47 3.504s1.504 4.064 1.71 4.345c.213.282 2.959 4.517 7.175 6.342 2.666 1.15 3.71 1.249 5.043 1.05.81-.121 2.483-1.012 2.83-1.999.346-.982.346-1.824.243-2-.103-.186-.384-.292-.8-.494z" fill="#856B8E"/><path d="M35.237 12.888a17.068 17.068 0 00-3.668-5.457 16.923 16.923 0 00-5.457-3.668A16.981 16.981 0 0019.5 2.438h-.076A17.023 17.023 0 007.37 7.48a16.908 16.908 0 00-3.626 5.439 17.069 17.069 0 00-1.307 6.661 17.116 17.116 0 001.829 7.613v5.79c0 .967.784 1.751 1.752 1.751h5.792a17.116 17.116 0 007.614 1.828h.08c2.281 0 4.494-.441 6.577-1.306a16.93 16.93 0 005.439-3.626 17.025 17.025 0 005.043-12.054c.01-2.32-.439-4.57-1.326-6.688zM29.482 29.57a14.093 14.093 0 01-9.982 4.098h-.065a14.218 14.218 0 01-6.592-1.657l-.32-.171H7.16v-5.363l-.171-.32a14.218 14.218 0 01-1.657-6.592c-.015-3.797 1.436-7.362 4.098-10.047 2.658-2.685 6.212-4.17 10.009-4.186h.065a14.1 14.1 0 015.492 1.1 14.078 14.078 0 014.532 3.048 14.098 14.098 0 013.047 4.532 14.112 14.112 0 011.1 5.553 14.114 14.114 0 01-4.193 10.005z" fill="#9a6fa8"/></svg>