<svg width="34" height="34" fill="none" xmlns="http://www.w3.org/2000/svg"><path d="M16.148.005C13.419.038 7.553.487 4.272 3.497 1.832 5.915.98 9.49.88 13.91.797 18.316.697 26.59 8.67 28.841v3.431s-.05 1.373.858 1.655c1.117.354 1.754-.703 2.816-1.837l1.982-2.241c5.456.453 9.635-.592 10.116-.747 1.107-.354 7.343-1.15 8.362-9.425 1.045-8.544-.51-13.928-3.315-16.363h-.017c-.847-.78-4.25-3.26-11.854-3.287 0 0-.564-.039-1.471-.023v.001zm.093 2.403c.775-.006 1.246.027 1.246.027 6.435.017 9.507 1.954 10.232 2.607 2.363 2.025 3.58 6.878 2.689 14.012-.847 6.917-5.905 7.354-6.84 7.653-.399.127-4.08 1.035-8.716.736 0 0-3.453 4.167-4.533 5.24-.171.189-.37.244-.498.216-.183-.044-.238-.27-.228-.58l.033-5.695c-6.762-1.87-6.364-8.926-6.292-12.612.083-3.686.775-6.7 2.834-8.743C8.94 2.763 13.92 2.425 16.239 2.408h.002zm.51 3.684a.422.422 0 00-.426.421c0 .238.194.426.427.426a7.982 7.982 0 015.71 2.253c1.544 1.499 2.297 3.513 2.325 6.147 0 .233.188.426.426.426v-.017a.425.425 0 00.426-.42 9.153 9.153 0 00-2.568-6.746c-1.682-1.644-3.813-2.49-6.32-2.49zm-5.6.975a1.33 1.33 0 00-.87.17h-.021a6.669 6.669 0 00-1.622 1.334c-.388.449-.598.902-.653 1.339-.033.26-.01.52.067.77l.027.016a19.153 19.153 0 001.705 3.68 21.648 21.648 0 003.287 4.494l.038.055.06.045.039.045.045.038a21.961 21.961 0 004.505 3.303c1.87 1.018 3.004 1.5 3.686 1.699v.01c.2.061.38.089.564.089a2.605 2.605 0 001.56-.67 6.441 6.441 0 001.318-1.626v-.01c.326-.615.216-1.196-.255-1.59a19.627 19.627 0 00-3.044-2.185c-.725-.393-1.461-.155-1.76.243l-.636.803c-.326.398-.92.343-.92.343l-.016.01c-4.421-1.129-5.6-5.605-5.6-5.605s-.056-.61.353-.92l.797-.641c.382-.31.647-1.046.238-1.771a19.117 19.117 0 00-2.18-3.044 1.211 1.211 0 00-.714-.426l.002.002zm6.336 1.262c-.564 0-.564.852.005.852a5.34 5.34 0 013.752 1.627 4.95 4.95 0 011.273 3.64.428.428 0 00.426.422l.017.022a.43.43 0 00.426-.426c.038-1.688-.487-3.105-1.517-4.24-1.034-1.134-2.478-1.77-4.322-1.897h-.06zm.698 2.29c-.581-.016-.604.853-.028.87 1.4.072 2.08.78 2.17 2.235a.423.423 0 00.42.416h.018a.428.428 0 00.409-.454c-.1-1.898-1.135-2.966-2.972-3.065h-.017v-.001z" fill="#856B8E"/></svg>