<svg width="32" height="32" fill="none" xmlns="http://www.w3.org/2000/svg"><path d="M23.09.103c1.625.074 2.747.313 3.785.716a7.147 7.147 0 012.608 1.698 7.147 7.147 0 011.698 2.608c.403 1.039.642 2.16.716 3.784C31.99 10.923 32 11.632 32 16s-.01 5.077-.103 7.09c-.074 1.625-.313 2.747-.716 3.786a7.147 7.147 0 01-1.698 2.607 7.146 7.146 0 01-2.608 1.698c-1.039.403-2.16.642-3.784.716C21.077 31.99 20.369 32 16 32c-4.37 0-5.079-.01-7.09-.103-1.625-.074-2.747-.313-3.786-.716a7.144 7.144 0 01-2.607-1.698A7.147 7.147 0 01.82 26.875c-.403-1.039-.642-2.16-.716-3.784C.01 21.08 0 20.37 0 16s.01-5.08.103-7.09c.074-1.625.313-2.747.716-3.785a7.147 7.147 0 011.698-2.608A7.147 7.147 0 015.124.82C6.164.416 7.285.177 8.909.103 10.92.01 11.63 0 16 0s5.08.01 7.09.103zM16 3.556c-4.32 0-4.981.01-6.93.099-1.235.056-1.977.213-2.658.478a3.64 3.64 0 00-1.381.898 3.61 3.61 0 00-.898 1.381c-.264.68-.422 1.423-.478 2.659-.09 1.948-.099 2.609-.099 6.929s.01 4.981.099 6.93c.056 1.235.213 1.977.478 2.657.227.581.467.95.898 1.382a3.61 3.61 0 001.381.898c.68.264 1.423.422 2.659.478 1.949.09 2.61.099 6.929.099 4.32 0 4.98-.01 6.93-.099 1.235-.056 1.977-.213 2.658-.478a3.64 3.64 0 001.381-.898 3.61 3.61 0 00.898-1.381c.264-.68.422-1.423.478-2.659.09-1.949.099-2.61.099-6.929 0-4.319-.01-4.98-.099-6.93-.056-1.235-.213-1.977-.478-2.657a3.613 3.613 0 00-.898-1.382 3.61 3.61 0 00-1.382-.898c-.68-.264-1.423-.422-2.659-.478-1.948-.09-2.61-.099-6.93-.099H16zm0 20.74a8.296 8.296 0 110-16.592 8.296 8.296 0 010 16.592zm0-3.555a4.741 4.741 0 100-9.482 4.741 4.741 0 000 9.482zm8.296-11.26a1.778 1.778 0 110-3.555 1.778 1.778 0 010 3.555z" fill="#856B8E"/></svg>