<svg width="744" height="76" fill="none" xmlns="http://www.w3.org/2000/svg"><path fill="url(#paint0_linear)" d="M.102.087h132.952v74.668H.102z"/><path transform="matrix(-1 0 0 1 742.628 1.332)" fill="url(#paint1_linear)" d="M0 0h132.952v74.668H0z"/><path stroke="#B396BD" stroke-dasharray="5 5" d="M623.973 6.81H739.62v63.712H623.973zM4.365 5.565h115.647v63.712H4.365z"/><path d="M133.055 74.755L84.138 51.111h48.917v23.645zM609.676 76l48.916-23.645h-48.916V76z" fill="#6B5374"/><path d="M49.019 37.666L.102 75V.332L49.02 37.666zm645.693 1L743.628 76V1.332l-48.916 37.334z" fill="#fff"/><defs><linearGradient id="paint0_linear" x1="44.69" y1="37.422" x2="278.167" y2="37.422" gradientUnits="userSpaceOnUse"><stop stop-color="#856B8E"/><stop offset=".406" stop-color="#6B5374"/></linearGradient><linearGradient id="paint1_linear" x1="44.588" y1="37.334" x2="278.065" y2="37.334" gradientUnits="userSpaceOnUse"><stop stop-color="#856B8E"/><stop offset=".406" stop-color="#6B5374"/></linearGradient></defs></svg>