<svg width="849" height="89" fill="none" xmlns="http://www.w3.org/2000/svg"><path fill="url(#paint0_linear)" d="M0 .892h152.017v86.047H0z"/><path transform="matrix(-1 0 0 1 849 2.326)" fill="url(#paint1_linear)" d="M0 0h152.017v86.047H0z"/><path stroke="#B396BD" stroke-dasharray="5 5" d="M713.258 8.563h132.373v73.574H713.258zM4.802 7.128h132.373v73.574H4.802z"/><path d="M152.017 86.94l-55.93-27.25h55.93v27.25zm544.966 1.433l55.931-27.248h-55.931v27.248z" fill="#6B5374"/><path d="M55.93 44.024L0 87.047V1l55.93 43.024zm737.139 0L849 87.047V1l-55.931 43.024z" fill="#fff"/><defs><linearGradient id="paint0_linear" x1="50.981" y1="43.916" x2="317.938" y2="43.916" gradientUnits="userSpaceOnUse"><stop stop-color="#856B8E"/><stop offset=".406" stop-color="#6B5374"/></linearGradient><linearGradient id="paint1_linear" x1="50.981" y1="43.024" x2="317.938" y2="43.024" gradientUnits="userSpaceOnUse"><stop stop-color="#856B8E"/><stop offset=".406" stop-color="#6B5374"/></linearGradient></defs></svg>