<svg width="609" height="101" fill="none" xmlns="http://www.w3.org/2000/svg"><path fill="#856B8E" d="M19.138 15.687h574.454v74.668H19.138z"/><path d="M98.7 29.752c3.327 0 6.271.47 8.831 1.408 2.603.896 4.779 2.261 6.528 4.096 1.792 1.835 3.158 4.117 4.096 6.848.939 2.688 1.408 5.824 1.408 9.408 0 5.12-.896 9.43-2.688 12.928-1.792 3.456-4.352 6.08-7.68 7.872C105.867 74.104 101.899 75 97.291 75h-19.2v-5.504l5.76-1.92-1.472 2.112V35.32l1.536 2.24-5.824-1.984v-5.504l15.744-.32H98.7zm-.897 37.312c1.11 0 2.24-.128 3.392-.384 1.152-.299 2.219-.917 3.2-1.856.982-.981 1.771-2.475 2.368-4.48.598-2.005.896-4.736.896-8.192 0-3.328-.298-5.973-.896-7.936-.554-1.963-1.301-3.392-2.24-4.288-.896-.939-1.877-1.536-2.944-1.792a11.591 11.591 0 00-3.136-.448h-6.592l1.664-1.664v32.704l-1.664-1.664h5.952zm44.811-1.218h4.738L147.26 75h-24.334v-3.956l4.094-1.38-1.012 1.518V46.48l.966 1.518-4.048-1.334v-3.956l10.902-.23H146.8v8.786h-4.738l-.966-4.14 1.426 1.058h-9.706l1.196-1.196v9.936l-1.196-1.196h10.258v5.52h-10.258l1.196-1.426v10.672l-1.196-1.196h10.258l-1.472 1.196 1.012-4.646zm26.89-1.334h4.692V75h-23.598v-3.956l3.956-1.334-.874 1.472V46.48l.874 1.472-3.956-1.288v-3.956l14.398-.23v3.956l-4.094 1.518.782-1.472v24.012l-1.196-1.196h8.924l-1.058 1.242 1.15-6.026zm21.047-18.078l-3.864 1.564.782-1.15v23.966l-.782-1.104 3.864 1.334V75h-14.168v-3.956l3.772-1.288-.69 1.058V46.848l.966 1.196-4.048-1.38v-3.956l14.168-.23v3.956zM203.496 75l-9.614-28.336 1.84 1.38-4.048-1.38v-3.956l14.306-.23v3.956l-4.186 1.426.92-1.932 6.302 22.126h-1.104l6.992-21.62.644 1.564-3.864-1.334v-3.956l12.696-.23v3.956l-4.048 1.38 1.794-1.334L212.006 75h-8.51zm41.585-9.154h4.738L249.727 75h-24.334v-3.956l4.094-1.38-1.012 1.518V46.48l.966 1.518-4.048-1.334v-3.956l10.902-.23h12.972v8.786h-4.738l-.966-4.14 1.426 1.058h-9.706l1.196-1.196v9.936l-1.196-1.196h10.258v5.52h-10.258l1.196-1.426v10.672l-1.196-1.196h10.258l-1.472 1.196 1.012-4.646zM253.065 75v-3.956l4.048-1.38-.966 1.518V46.526l1.38 1.61-4.462-1.472v-3.956l11.408-.23h4.002c3.803 0 6.67.797 8.602 2.392 1.932 1.564 2.898 3.818 2.898 6.762 0 2.607-.797 4.784-2.392 6.532-1.564 1.717-4.079 2.79-7.544 3.22l.046-.92c1.196 0 2.177.153 2.944.46.797.307 1.441.736 1.932 1.288.521.521.981 1.165 1.38 1.932l3.542 6.716-2.208-1.426 4.37 1.61V75h-8.464l-4.14-8.74c-.491-1.135-.92-1.993-1.288-2.576-.337-.583-.736-.966-1.196-1.15-.46-.184-1.15-.26-2.07-.23l-2.024.046 1.288-1.104v9.936l-1.012-1.518 4.278 1.38V75h-14.352zm11.086-16.192l-1.288-1.978h3.496c1.84 0 3.205-.383 4.094-1.15.92-.797 1.38-1.963 1.38-3.496 0-1.257-.353-2.239-1.058-2.944-.705-.736-1.809-1.104-3.312-1.104h-4.6l1.288-1.196v11.868zM288.115 75v-3.956l4.278-1.426-1.058 1.564v-9.016l.69 2.622-9.476-18.032 1.426 1.196-3.358-1.288v-3.956l13.294-.23v3.956l-3.68 1.242.598-1.334 5.934 12.972h-1.472l6.072-12.65.552 1.334-3.818-1.334v-3.956l12.282-.23v3.956l-3.404 1.242 1.426-1.15-9.614 18.262.552-2.622v9.016l-1.058-1.564 4.278 1.426V75h-14.444zm142.291.598c-2.331 0-4.094-.69-5.29-2.07-1.166-1.41-1.748-3.496-1.748-6.256V54.438l.966.966h-4.278V51.31l4.37-1.334-1.058 1.334v-6.394l7.82-1.426v7.82l-.782-1.012h6.946l-.138 5.106h-6.808l.782-.966v11.776c0 1.288.199 2.223.598 2.806.398.583 1.012.874 1.84.874.46 0 .966-.061 1.518-.184a26.55 26.55 0 001.932-.598l1.426 4.186c-2.791 1.533-5.49 2.3-8.096 2.3zM451.682 49.7c3.803 0 6.731 1.089 8.786 3.266 2.085 2.147 3.128 5.229 3.128 9.246 0 2.79-.521 5.183-1.564 7.176-1.012 1.993-2.469 3.527-4.37 4.6-1.901 1.073-4.171 1.61-6.808 1.61-3.772 0-6.685-1.073-8.74-3.22-2.024-2.177-3.036-5.275-3.036-9.292 0-2.821.491-5.229 1.472-7.222 1.012-1.993 2.453-3.511 4.324-4.554 1.901-1.073 4.171-1.61 6.808-1.61zm-.322 5.474c-1.472 0-2.53.598-3.174 1.794-.644 1.165-.966 3.082-.966 5.75s.307 4.57.92 5.704c.644 1.135 1.671 1.702 3.082 1.702 1.012 0 1.825-.26 2.438-.782.613-.552 1.058-1.38 1.334-2.484.307-1.135.46-2.576.46-4.324 0-2.637-.322-4.523-.966-5.658-.644-1.135-1.687-1.702-3.128-1.702zm41.835-4.646l10.028-.46v3.956l-2.714 1.012.966-.782-5.566 20.838h-8.418l-4.508-18.814 1.472.046-5.198 18.768h-8.418l-5.152-20.516.782.644-2.622-.782v-3.91l11.362-.46v3.956l-2.944.966.782-.552 3.266 16.008h-1.242l5.106-19.964 7.866-.414 4.6 20.654h-1.15l3.68-16.1.644.69-2.622-.874v-3.91zM504.173 75v-3.956l3.726-1.242-.92 1.104V54.438l.92 1.242-3.726-1.288v-3.91l8.878-.414.966 4.324-.966-.322c1.472-1.472 3.036-2.56 4.692-3.266 1.656-.736 3.235-1.104 4.738-1.104 2.055 0 3.787.66 5.198 1.978 1.411 1.319 2.101 3.327 2.07 6.026v13.202l-.644-1.058 3.45 1.196V75h-10.58V59.314c0-1.288-.276-2.223-.828-2.806-.552-.613-1.273-.92-2.162-.92-.705 0-1.472.184-2.3.552-.797.368-1.595.905-2.392 1.61l.506-1.058v14.352l-.69-1.104 3.082 1.104V75h-13.018z" fill="#fff"/><rect x="67.634" y="57.5" width="22.831" height="6.467" rx="3.233" fill="#fff" stroke="#856B8E"/><rect x="58.563" y="47.5" width="30.485" height="6.463" rx="3.231" fill="#fff" stroke="#856B8E"/><rect x="65.618" y="37.5" width="20.323" height="6.467" rx="3.233" fill="#fff" stroke="#856B8E"/><ellipse cx="51.839" cy="50.825" rx="2.847" ry="2.825" fill="#fff"/><path stroke="#B396BD" stroke-dasharray="5 5" d="M23.401 21.165h563.42v63.712H23.401z"/><g clip-path="url(#clip0)"><path d="M336.062 54.026l-5.564 1.364a2.246 2.246 0 00-1.666 2.738c.313 1.255 1.558 1.948 2.76 1.653l5.563-1.364-1.093-4.39zm45.17-33.569c.69 1.695 1.96 4.91 2.65 6.605.299.659 1.167.912 1.721.443 1.614-1.327 2.268-3.55 1.437-5.543-.832-1.993-2.866-3.158-4.92-3.054-.726.045-1.202.827-.888 1.55zm19.319 50.106c-6.11 1.498-12.287-2.203-13.797-8.265-1.51-6.063 2.22-12.191 8.33-13.69 6.11-1.497 12.287 2.203 13.797 8.266 1.51 6.062-2.22 12.19-8.33 13.689z" fill="#fff"/><path d="M399.333 65.67c-3.387.83-6.811-1.22-7.648-4.58-.837-3.361 1.231-6.759 4.617-7.589 3.387-.83 6.811 1.221 7.648 4.581.837 3.36-1.23 6.758-4.617 7.588zM351.05 82.698c-6.11 1.498-12.288-2.202-13.797-8.265-1.51-6.062 2.22-12.191 8.33-13.69 6.11-1.497 12.287 2.203 13.797 8.266 1.51 6.062-2.22 12.191-8.33 13.689z" fill="#fff"/><path d="M349.831 77.805c-3.386.83-6.81-1.22-7.647-4.58-.837-3.361 1.23-6.758 4.617-7.588 3.387-.83 6.811 1.22 7.648 4.58.836 3.361-1.231 6.758-4.618 7.588z" fill="#fff"/><path d="M344.035 49.143l-.126.031c-1.312.388-19.35 6.608-14.383 26.554.297 1.192 1.558 1.948 2.759 1.653l45.582-11.174c4.805-1.178 8.778-4.348 11.048-8.698l4.336-8.45c.587-1.143.591-2.475.026-3.668-2.686-5.398-6.495-10.188-11.27-14.009l-1.513-1.227-4.742 1.163 8.94 17.043c1.043 5.535-2.51 10.931-7.994 12.342l-7.776 1.907c-3.541.868-7.089-1.258-7.963-4.77-.547-2.196.091-4.482 1.691-6.139l3.152-3.235c.634-.688.921-1.69.702-2.568l-.547-2.196-21.937 5.378.015.063z" fill="#fff"/><path d="M345.887 53.614c.063-.015.063-.015 0 0a.934.934 0 011.104.662.884.884 0 01-.667 1.095c-7.776 1.906-12.488 9.65-10.567 17.366a.883.883 0 01-.666 1.095.89.89 0 01-1.104-.661c-2.156-8.657 3.175-17.418 11.9-19.557zm17.392-6.659l2.913-2.312c.443-.374.634-.954.509-1.456-.734-2.948-3.746-4.805-6.78-4.061l-9.167 2.247c-3.098.76-6.306 1.346-9.513 1.667-3.097.493-5.032 3.496-4.282 6.507l.531 2.133c.171.69.897 1.177 1.655.992l19.675-3.959c1.659-.073 3.177-.712 4.459-1.758zM330.92 34.189l.095.11c1.559 1.414 2.676 3.204 3.176 5.211l.312 1.255a1.452 1.452 0 01-.62 1.55l-.696.436a1.482 1.482 0 01-1.926-.46l-3.443-5.744c-.44-.691-.185-1.552.527-1.927l.996-.577c.522-.327 1.138-.279 1.579.146z" fill="#fff"/><path d="M327.66 36.718a.695.695 0 00-.224.987l6.759 11.787c.613 1.115 1.811 1.886 3.058 2.046l1.737.24-.391-1.568-.41-.033c-1.374-.129-2.572-.9-3.28-2.124l-6.255-11.112c-.204-.283-.646-.441-.994-.223zm47.18-6.641l-1.509-2.558a2.019 2.019 0 01.101-2.288l2.093-2.909a7.21 7.21 0 013.402-2.498l4.031-1.32c.317-.078.601-.015.79.205l.786 1.005c1.275 1.618 2.139 3.47 2.497 5.445l.202 1.082c.078.313-.112.626-.413.766l-2.624 1.043a3.443 3.443 0 00-1.515 5.23l-5.703.267-2.138-3.47z" fill="#fff"/><path d="M375.778 22.26s1.013-.78 2.035.633c1.007 1.35.023 3.055.023 3.055l-4.351 2.731c-.87.546-2.038.167-2.477-.79-.298-.66-.091-1.442.463-1.91l4.307-3.719zm31.392 30.707l-2.845.697c-6.496 1.66-12.302 5.28-16.739 10.36-.729.844-2.102.449-2.32-.696a18.766 18.766 0 01-.285-5.454c.328-4.074 2.155-8.05 6.046-10.201 8.084-4.444 14.136.195 16.766 2.945.692.895.326 2.116-.623 2.349z" fill="#fff"/><path d="M398.131 48.993s-4.926-.39-7.954 3.348c-2.06 2.501-2.21 5.4-2.21 5.4" stroke="#fff" stroke-width="2.5" stroke-miterlimit="10" stroke-linecap="round"/></g><defs><clipPath id="clip0"><path fill="#fff" transform="matrix(-.97124 .2381 .24164 .97037 395.993 0)" d="M0 0h83.318v82.742H0z"/></clipPath></defs></svg>