<svg width="414" height="43" fill="none" xmlns="http://www.w3.org/2000/svg"><path fill="url(#paint0_linear)" d="M0 .236h74.128v41.632H0z"/><path transform="matrix(-1 0 0 1 414 .93)" fill="url(#paint1_linear)" d="M0 0h74.128v41.632H0z"/><path stroke="#B396BD" stroke-dasharray="5 5" d="M348.064 4.205h64.037v35.081h-64.037zM2.598 3.511h64.037v35.081H2.598z"/><path d="M74.128 41.867L46.855 28.684h27.273v13.183zm265.744.694l27.274-13.183h-27.274v13.183z" fill="#6B5374"/><path d="M27.274 21.746L0 42.56V.93l27.274 20.816zm359.452 0L414 42.56V.93l-27.274 20.816z" fill="#fff"/><defs><linearGradient id="paint0_linear" x1="24.86" y1="21.052" x2="155.037" y2="21.052" gradientUnits="userSpaceOnUse"><stop stop-color="#856B8E"/><stop offset=".406" stop-color="#6B5374"/></linearGradient><linearGradient id="paint1_linear" x1="24.86" y1="20.816" x2="155.037" y2="20.816" gradientUnits="userSpaceOnUse"><stop stop-color="#856B8E"/><stop offset=".406" stop-color="#6B5374"/></linearGradient></defs></svg>