<svg width="144" height="174" fill="none" xmlns="http://www.w3.org/2000/svg"><g clip-path="url(#clip0)"><path d="M79.102 40.822c23.001 0 41.665 18.65 41.665 41.651 0 23.014-18.651 41.665-41.665 41.665-23 0-41.665-18.651-41.665-41.665 0-23 18.65-41.651 41.665-41.651zm8.958-7.599H70.117a2.54 2.54 0 01-2.08-1.087 2.607 2.607 0 01-.3-2.325L76.71 5.52a2.536 2.536 0 012.379-1.672c1.06 0 2.011.666 2.365 1.672l8.972 24.306a2.526 2.526 0 01-.3 2.324 2.485 2.485 0 01-2.066 1.074zM37.927 53.994a2.555 2.555 0 01-2.243.707 2.523 2.523 0 01-1.85-1.427l-10.833-23.53a2.51 2.51 0 01.503-2.842 2.513 2.513 0 012.854-.517L49.89 37.22c.748.353 1.291 1.033 1.427 1.848a2.582 2.582 0 01-.693 2.243L37.927 53.994zm-35.793 26.1l24.32-8.958a2.53 2.53 0 012.324.3 2.522 2.522 0 011.088 2.079l-.014 17.93a2.54 2.54 0 01-1.088 2.08 2.648 2.648 0 01-1.44.449c-.3 0-.599-.055-.87-.163L2.147 84.839a2.542 2.542 0 01-1.659-2.38 2.507 2.507 0 011.645-2.365zm31.714 31.592a2.567 2.567 0 011.85-1.441 2.58 2.58 0 012.242.707l12.683 12.683a2.55 2.55 0 01.707 2.229 2.492 2.492 0 01-1.427 1.849l-23.531 10.848a2.41 2.41 0 01-1.06.231 2.532 2.532 0 01-1.781-.734c-.748-.761-.965-1.889-.503-2.855l10.82-23.517zm36.282 20.037l17.944.014c.83 0 1.604.408 2.066 1.087.476.68.585 1.55.3 2.311l-8.972 24.306a2.525 2.525 0 01-4.744 0l-8.973-24.319a2.498 2.498 0 01.3-2.311 2.507 2.507 0 012.08-1.088zm50.134-20.771a2.553 2.553 0 012.229-.707c.816.15 1.509.694 1.849 1.441l10.848 23.531a2.543 2.543 0 01-.171 2.425 2.544 2.544 0 01-2.126 1.177c-.367 0-.721-.081-1.061-.231l-23.53-10.848a2.55 2.55 0 01-1.441-1.862 2.512 2.512 0 01.706-2.229l12.697-12.697zm10.603-16.978a2.556 2.556 0 01-2.528-2.542l.013-17.93a2.542 2.542 0 013.412-2.38l24.32 8.972a2.543 2.543 0 011.658 2.38 2.52 2.52 0 01-1.658 2.365l-24.32 8.958a2.344 2.344 0 01-.897.177zm-6.525-40.714a2.542 2.542 0 01-3.058 1.356 2.542 2.542 0 01-1.034-.622l-12.683-12.696a2.536 2.536 0 01-.693-2.23 2.536 2.536 0 011.427-1.848l23.545-10.848a2.492 2.492 0 012.841.516 2.51 2.51 0 01.503 2.841L124.342 53.26z" fill="#FFB74D"/><path d="M52.336 111.999c.014 0 .014 0 0 0 .014-.082 0-.15 0-.231 0-10.603 8.591-19.195 19.194-19.195 1.36 0 2.692.15 3.983.422 3.806-9.258 12.9-15.782 23.531-15.782 7.98 0 15.103 3.683 19.765 9.434a22.03 22.03 0 019.992-2.407c11.486 0 20.921 8.755 22.022 19.956 12.506.653 22.538 10.889 22.701 23.585.177 13.241-10.426 24.116-23.667 24.279a22.427 22.427 0 01-3.031-.177c-5.111 10.78-16.095 18.243-28.832 18.243a31.8 31.8 0 01-20.228-7.232c-4.214 3.113-9.393 4.989-15.035 4.989-11.568 0-21.3-7.762-24.332-18.352a19.388 19.388 0 01-6.063.993c-10.644 0-19.262-8.619-19.262-19.263 0-10.644 8.632-19.262 19.262-19.262z" fill="#B396BD"/><path d="M41.026 115.669c-4.364 4.405-1.278 14.518 1.726 17.808 5.9 6.471 16.748 4.962 21.098 4.024 1.183-.259 1.373-.163 1.753.068.34.204.504.543.87 1.332 1.4 3.018 5.017 8.877 12.656 11.228 7.953 2.461 15.456-1.277 18.977-3.52 1.332-.843 1.387-.87 1.985-.857.612 0 1.21.449 1.93 1.02 3.167 2.501 10.427 6.905 21.601 6.266 10.956-.625 17.237-7.381 19.384-10.861.408-.666.857-1.223 1.36-1.278.584-.054 1.237.544 1.74 1.033 4.662 4.541 19.33 5.9 24.21-1.835-4.948 7.939-12.601 11.868-20.445 11.963a22.427 22.427 0 01-3.031-.177c-5.111 10.78-16.095 18.243-28.833 18.243a31.8 31.8 0 01-20.227-7.232c-4.214 3.113-9.393 4.989-15.035 4.989-11.568 0-21.301-7.762-24.333-18.352a19.388 19.388 0 01-6.062.993c-10.644 0-19.263-8.619-19.263-19.263-.013-5.668 2.841-12.057 7.939-15.592z" fill="#856B8E"/></g><defs><clipPath id="clip0"><path fill="#fff" transform="matrix(-1 0 0 1 174 0)" d="M0 0h174v174H0z"/></clipPath></defs></svg>