<svg width="105" height="136" fill="none" xmlns="http://www.w3.org/2000/svg"><path d="M85.503 56.822h-.01c0-.074.01-.148.01-.223 0-10.146-8.224-18.38-18.381-18.38a17.9 17.9 0 00-3.804.403c-3.644-8.861-12.346-15.109-22.525-15.109-7.64 0-14.45 3.528-18.912 9.031a21.125 21.125 0 00-9.563-2.295c-10.997 0-20.028 8.373-21.08 19.094-11.953.637-21.547 10.433-21.707 22.599-.17 12.665 9.977 23.077 22.642 23.237a21.83 21.83 0 002.9-.17c4.899 10.327 15.407 17.467 27.594 17.467a30.41 30.41 0 0019.359-6.927c4.026 2.985 8.999 4.77 14.396 4.77 11.072 0 20.39-7.426 23.29-17.573a18.41 18.41 0 005.802.945c10.178 0 18.434-8.255 18.434-18.434-.01-10.179-8.255-18.435-18.445-18.435z" fill="#B396BD"/><path d="M96.34 60.34c4.176 4.218 1.223 13.886-1.646 17.042-5.653 6.194-16.023 4.75-20.188 3.857-1.126-.245-1.307-.16-1.678.063-.33.202-.479.521-.84 1.275-1.339 2.89-4.802 8.49-12.112 10.742-7.618 2.349-14.8-1.232-18.158-3.368-1.275-.807-1.329-.828-1.902-.818-.585.01-1.158.436-1.85.978-3.038 2.39-9.976 6.608-20.675 5.992C6.804 95.498.8 89.037-1.261 85.712c-.393-.638-.818-1.169-1.306-1.222-.564-.053-1.19.52-1.658.988-4.462 4.346-18.509 5.653-23.163-1.753 4.74 7.597 12.06 11.358 19.572 11.454a21.83 21.83 0 002.9-.17c4.899 10.327 15.407 17.467 27.594 17.467a30.41 30.41 0 0019.358-6.927c4.027 2.985 9 4.77 14.397 4.77 11.071 0 20.39-7.426 23.29-17.573 1.828.605 3.772.945 5.801.945 10.18 0 18.435-8.255 18.435-18.434-.021-5.419-2.741-11.539-7.618-14.918z" fill="#856B8E"/></svg>