<svg width="34" height="34" fill="none" xmlns="http://www.w3.org/2000/svg"><path d="M17 .531C7.902.531.531 7.903.531 17c0 9.097 7.372 16.469 16.469 16.469 9.098 0 16.469-7.372 16.469-16.469C33.469 7.903 26.097.531 17 .531zm8.089 11.283L22.386 24.55c-.2.903-.738 1.122-1.488.697l-4.117-3.034-1.986 1.912c-.219.22-.405.405-.83.405l.293-4.19 7.63-6.894c.332-.292-.074-.458-.513-.166l-9.43 5.936-4.063-1.268c-.883-.279-.903-.883.186-1.308l15.878-6.123c.737-.266 1.38.18 1.142 1.295z" fill="#856B8E"/></svg>