<svg width="3028" height="1024" fill="none" xmlns="http://www.w3.org/2000/svg"><g clip-path="url(#clip0)"><path fill="#fff" d="M0 0h3028v1024H0z"/><g clip-path="url(#clip1)"><path d="M1038 0H0v1024h1038V0z" fill="#fff"/><path d="M128.5 1024L1.5 801-41 1024h169.5zm1264.15-729.601c-10.08 1.709-18.31 6.372-25.91 14.454-11.64 12.744-11.18 9.17-11.18 97.603v79.109h-34.14l-.31-40.098c-.31-21.914-.93-39.788-1.55-39.632-.77.31-29.17.466-63.31.466h-62.08v55.174c0 52.998-.15 55.174-2.95 55.174-1.55 0-4.34 1.243-6.2 2.642-2.95 2.487-3.26 4.663-3.57 21.448l-.47 18.65-10.71.933c-9.62.777-11.17 1.399-15.21 5.906-4.34 4.818-4.34 4.973-4.34 25.799v20.982l-5.74 3.73c-12.73 8.082-15.83 15.231-15.99 37.767 0 15.853 0 16.008-4.34 18.184-6.36 3.264-17.23 15.698-20.64 23.624-2.64 5.906-3.73 6.838-7.92 6.838-13.81 0-29.79 11.191-34.76 24.401-3.26 8.548-3.57 20.516-.62 29.064 2.33 7.305 13.81 20.049 20.18 22.691 5.74 2.331 5.74 3.264.31 7.305-2.33 1.709-6.06 6.372-8.07 10.258-3.26 6.061-4.5 7.149-9.94 7.926-17.53 2.953-29.48 21.448-24.2 37.456 2.32 7.149 10.86 16.785 17.07 19.428 4.19 1.709 4.5 2.331 3.72 7.615-3.1 19.738 15.83 37.301 35.38 32.949 3.57-.932 6.99-1.243 7.3-.777.46.311-.78 20.049-2.64 43.828-5.74 71.024-5.74 70.254-2.02 76.004 5.9 9.48 16.92 8.23 21.26-2.18 2.64-5.91 1.71-24.089-4.81-95.272-1.09-12.433-1.86-22.691-1.71-22.846.31-.311 4.35.311 9.16 1.243l8.85 1.865V1030l86.59-.93c47.49-.62 66.32-1.09 66.32-1.09l48.98-65.348 78.84-132.346 47.93-152.156s18.69-118.684 17.76-122.259c0 0-5.52-178.602-14.21-182.953-6.51-3.42 0-11.533 0-11.533l-3.55-20.44-10.84-16.861c0-9.636 3.74-8.006 3.74-8.006-2.17-7.771 3.7-2.096-3.74-7.225L1440.92 293c-22.66.155-44.39.777-48.27 1.399zm16.92 52.532c1.09 1.554 1.86 7.149 1.86 14.454 0 13.521-1.86 16.94-9.31 16.94-6.67 0-9.31-4.973-9.31-17.562 0-9.17.46-11.035 3.88-14.454 4.19-4.196 9.15-4.041 12.88.622zm38.8 0c2.94 3.885 2.48 25.022-.78 28.597-3.1 3.419-9.47 3.574-13.19.155-2.17-2.02-2.79-4.818-2.79-14.298 0-6.528.62-12.589 1.24-13.522 3.57-5.284 11.64-5.906 15.52-.932zm-39.73 51.133c2.33 2.02 2.79 4.818 2.79 14.92 0 13.677-2.17 18.184-8.69 18.184-6.05 0-9.93-6.838-9.93-17.873 0-7.46.78-10.569 3.26-13.833 3.57-4.662 8.38-5.128 12.57-1.398zm35.69 14.454c-.15 9.014-.31 16.785-.31 17.407 0 2.486-6.36 1.088-9.31-1.865-4.66-4.663-4.5-25.023.15-29.685 1.71-1.71 4.66-2.953 6.52-2.643 3.11.467 3.26 1.244 2.95 16.786zm-35.38 38.233c3.1 3.108 3.57 27.354.62 29.84-4.35 3.264-8.54 3.42-12.26.467-3.41-2.642-3.72-4.197-3.72-15.387 0-8.082.77-13.21 2.17-14.765 2.64-3.263 10.08-3.419 13.19-.155zm35.23 10.724c.15 7.305.31 14.765.31 16.63.15 2.797-.78 3.73-3.88 4.041-6.21.777-9-4.507-9-16.786 0-11.656 2.79-17.096 8.69-17.096 3.57 0 3.72.311 3.88 13.211zm-138.59 68.54c2.95 2.02 3.42 3.73 3.42 13.211 0 12.433-1.71 16.94-6.52 16.94-6.52 0-9-4.196-9-15.852 0-8.549.62-11.191 3.1-13.677 3.73-3.73 4.5-3.73 9-.622zm32.9.622c2.49 2.486 3.11 5.128 3.11 12.899 0 10.569-2.8 16.63-7.76 16.63-5.74 0-7.76-4.196-7.76-16.319 0-10.102.47-11.812 3.41-13.832 4.5-3.108 5.28-3.108 9 .622zm-31.34 46.936c1.08 1.088 1.86 6.528 1.86 13.677 0 7.15-.78 12.589-1.86 13.677-2.95 2.953-10.25 2.332-12.11-1.088-2.64-4.973-2.02-22.069 1.09-25.333 2.79-3.264 8.22-3.73 11.02-.933zm32.9 1.088c.77 1.71 1.55 7.305 1.55 12.589 0 11.968-1.86 15.542-7.76 15.542-5.9 0-7.76-3.574-7.76-15.542 0-11.967 1.86-15.542 7.76-15.542 2.95 0 5.12 1.088 6.21 2.953zm-33.52 46.16c1.86 1.71 2.48 5.44 2.48 13.832 0 15.387-4.97 20.671-12.42 13.211-2.48-2.487-3.1-5.129-3.1-13.211s.62-10.724 3.1-13.21c3.73-3.73 6.68-3.886 9.94-.622zm32.27.155c3.88 3.42 4.04 23.002.16 27.199-3.1 3.419-6.36 3.574-10.09.155-3.88-3.419-4.03-23.002-.15-27.198 3.1-3.419 6.36-3.575 10.08-.156zm-181.1 27.665v13.988l-6.51.466-6.52.466-.47-14.143c-.31-7.926-.15-14.609.31-14.92.31-.466 3.42-.622 6.99-.311l6.2.466v13.988zm27.16.156v14.764l-6.52-.466-6.67-.466-.47-12.278c-.31-6.839-.15-13.211.31-14.454.47-1.244 3.26-2.021 7.14-2.021h6.21v14.921zm27.93 0v14.764l-6.51-.466-6.68-.466-.46-12.278c-.31-6.839-.16-13.211.31-14.454.46-1.244 3.26-2.021 7.14-2.021h6.2v14.921zm27.63.31l.46 14.454-6.67-.466-6.67-.466-.47-12.278c-.62-15.853-.15-16.786 6.98-16.164l5.9.466.47 14.454zm100.87 31.861c.46 12.434-1.4 16.63-7.45 16.63-5.59 0-7.76-4.196-7.76-15.386 0-13.677 4.5-19.428 11.64-14.921 2.64 1.555 3.1 3.886 3.57 13.677zm-34.14-12.589c2.79 2.798 2.48 25.178-.31 27.665-3.42 2.798-9.16 1.243-11.33-3.108-2.33-4.663-2.64-16.941-.47-22.381 1.09-3.108 2.64-4.041 5.9-4.041 2.33 0 5.12.777 6.21 1.865zM1157.7 693.05v13.988l-6.51.466-6.68.466v-29.84l6.68.466 6.51.466v13.988zm27.94 0v13.988l-6.52.466-6.67.466v-29.84l6.67.466 6.52.466v13.988zm27.15.156v14.764l-6.51-.466-6.68-.466-.46-12.278c-.31-6.839-.16-13.211.31-14.454.46-1.244 3.26-2.021 7.14-2.021h6.2v14.921zm27.94 0v14.764l-6.52-.466-6.67-.466-.47-12.278c-.31-6.839-.15-13.211.31-14.454.47-1.244 3.26-2.021 7.14-2.021h6.21v14.921zm66.42 25.799c1.08 1.088 1.86 6.683 1.86 13.988 0 11.19-.31 12.278-4.04 14.609-3.72 2.487-4.03 2.487-6.82-.31-2.33-2.332-3.11-5.44-3.26-14.299-.16-6.994.46-12.123 1.7-13.521 2.33-2.798 7.92-3.109 10.56-.467zm31.97.622c1.86 1.71 2.48 5.44 2.48 13.832 0 9.947-.47 11.812-3.26 13.833-1.86 1.243-4.5 1.865-5.9 1.398-4.81-1.709-6.36-5.595-6.36-16.163 0-11.19 2.17-15.387 7.76-15.387 1.55 0 4.03 1.088 5.28 2.487zm-180.95 38.233l-.47 14.454-6.51.466-6.68.467v-29.685h14.12l-.46 14.298zm27.47.466v13.988l-6.52.466-6.67.467v-29.841l6.67.466 6.52.467v13.987zm28.4-3.108c.62 16.008 0 17.873-7.45 17.873h-6.21v-29.685l6.67.466 6.52.467.47 10.879zm26.69 3.264v14.765l-6.52-.467-6.67-.466-.47-12.278c-.31-6.838-.15-13.211.31-14.454.47-1.243 3.26-2.02 7.14-2.02h6.21v14.92zm65.33 6.838c2.48 1.399 2.95 3.42 2.95 14.765 0 11.812-.31 13.211-3.26 14.92-2.48 1.244-4.35 1.244-6.98 0-3.57-1.554-3.73-2.486-3.73-14.764 0-10.88.47-13.522 2.8-14.765 3.41-2.021 4.5-2.021 8.22-.156zm32.74 1.088c3.88 3.419 4.04 23.002.16 27.199-6.52 7.304-12.88.621-12.88-13.833 0-7.771.62-10.413 3.1-12.899 3.73-3.731 5.9-3.886 9.62-.467zm-180.63 31.861l-.47 14.454-6.51.467-6.68.466v-29.685h14.12l-.46 14.298zm27.47.467v13.987l-6.52.467-6.67.466v-29.841l6.67.467 6.52.466v13.988zm27.93 0v13.987l-6.52.467-6.67.466v-29.841l6.67.467 6.52.466v13.988zm27.16 0V813.5h-6.05c-4.04 0-6.37-.777-6.99-2.486-1.24-3.264-1.24-24.712.16-25.955.46-.622 3.72-1.088 6.98-1.088h5.9v14.765zm66.42 15.231c2.79 3.263 3.72 20.049 1.55 24.401-2.33 4.351-8.07 5.906-11.49 3.108-2.79-2.487-3.1-24.867-.31-27.665 2.49-2.486 8.23-2.331 10.25.156zm32.59-.156c1.08 1.088 1.86 6.528 1.86 13.677 0 12.434-1.4 15.542-6.83 15.542-6.21 0-7.76-2.487-8.38-12.744-.78-12.9 1.24-18.34 7.14-18.34 2.33 0 5.12.777 6.21 1.865zm-181.57 48.957l.46 14.454h-14.12v-13.676c0-7.616.47-14.299 1.09-14.921.62-.621 3.57-.932 6.67-.621l5.43.466.47 14.298zm27.93 0l.47 14.454h-14.12v-29.685l6.67.467 6.52.466.46 14.298zm27.47-.31v13.987l-6.52.467-6.67.466v-29.841l6.67.467 6.52.466v13.988zm27.47-12.9c.46 1.088.62 7.615.62 14.454l-.16 12.433-6.51.467-6.68.466v-29.685h6.05c3.42 0 6.37.777 6.68 1.865zm66.57 12.278c2.8 2.797 3.26 4.663 2.64 14.143-.47 8.393-1.24 11.346-3.57 13.055-3.72 2.798-6.21 2.798-9.15-.31-3.11-2.953-3.57-25.334-.63-28.287 2.8-2.797 7.14-2.176 10.71 1.399zm31.51-.777c1.86 1.709 2.48 5.44 2.48 13.832 0 10.569-.31 11.812-3.73 13.988-7.91 5.284-13.19-3.264-11.32-18.806 1.08-10.724 6.82-14.765 12.57-9.014zm-153.79 28.442c.62.155.93 6.683.77 14.454l-.46 14.454h-12.42l-.46-13.056c-.31-7.149-.16-13.987.31-15.075.46-1.088 2.79-1.554 5.89-1.399 2.8.311 5.75.622 6.37.622zm26.53-.467c2.02.777 2.49 3.575 2.49 14.61v13.677l-5.44.932c-3.1.622-6.2.622-6.98.156-1.71-1.088-2.17-27.665-.46-29.219 1.24-1.399 7.13-1.399 10.39-.156zm27.94 0c2.01.777 2.48 3.575 2.48 13.988 0 11.967-.31 13.211-3.26 14.454-1.86.622-4.81 1.088-6.67.933-3.11-.311-3.26-1.244-3.73-15.231l-.46-15.076h4.65c2.49 0 5.59.466 6.99.932zm-81.32 14.61c0 13.366-.16 13.988-3.73 14.92-8.69 2.176-9.46.933-9.93-14.609l-.46-14.299h14.12v13.988zm150.68 7.305c2.02 5.439 1.71 17.717-.62 22.225-2.17 4.351-7.91 5.906-11.33 3.108-2.32-2.021-3.25-24.09-.93-27.354 3.11-4.662 10.71-3.419 12.88 2.021zm29.18-3.109c3.1 2.487 3.41 4.041 2.95 15.231-.47 11.968-.62 12.434-4.81 13.833-7.14 2.486-9.62-1.555-9.62-15.542 0-9.792.46-12.123 2.94-13.988 3.88-2.798 4.5-2.798 8.54.466zm-29.95 49.424c1.86 2.953 2.33 6.372 1.86 14.143-.62 10.568-2.17 13.055-8.22 13.055-5.59 0-6.99-3.108-6.99-15.542 0-7.149.78-12.589 1.86-13.677 3.11-3.108 8.69-2.176 11.49 2.021z" fill="#856B8E"/><path d="M6.224 367.291c-8.07 3.575-15.984 11.501-19.553 19.583-2.793 5.906-2.949 14.609-2.949 168.319v162.103l-6.207 6.372c-3.414 3.575-9.538 2.723-9.538 2.723l3.551 15.461 1.775 5.854v5.329l-1.775-8.882c-.465-3.885-1.775-16.719-1.775-23.091l-14.202-28.789L-48 660.412l10.652 41.111-7.101-3.033 5.325 11.915L23.45 873.819l64.247 101.246 20.528 26.645 19.044 24.87 37.245-.93V915.145l4.655-9.325c7.76-15.231 23.433-23.624 41.28-21.914 10.863.932 19.398 5.284 26.847 13.521 9.777 10.88 9.777 10.88 11.018 72.581l1.242 56.422h244.107c231.537 0 244.262-.16 244.262-2.8 0-4.35-4.034-17.88-6.983-23.47-2.638-5.129-2.638-14.144-1.707-177.179 1.242-184.327 1.242-184.172 9.311-201.113 15.674-33.415 59.126-55.64 92.025-47.092 19.088 4.818 33.055 14.299 42.211 28.753 2.638 4.041 4.811 7.926 4.811 8.392 0 .467-2.328 2.021-5.277 3.42-10.242 4.973-19.553 16.94-19.553 25.644 0 2.797.931 3.108 9.311 3.108 8.38 0 9.466.467 10.708 3.419 1.707 4.352 5.897 8.238 10.552 9.636 5.277 1.71 13.657-2.642 15.829-8.237 2.018-4.662 2.328-4.818 12.105-4.818h10.087l-1.086-4.352c-3.104-12.278-11.639-22.069-22.192-25.177-4.966-1.555-6.518-3.264-11.018-11.812-13.346-25.8-37.865-41.653-67.661-43.673-16.45-1.088-31.968 2.331-48.884 10.568-16.76 8.238-36.779 27.665-44.538 43.362-11.173 22.381-10.553 11.501-9.932 196.295.311 91.232 0 165.833-.62 165.833-.621 0-4.656-3.108-8.846-6.994-8.691-7.771-25.606-16.474-37.71-19.427-4.19-.933-14.588-1.554-22.813-1.399-8.38.311-15.518.155-15.829-.311-1.396-1.243-8.845-75.068-8.069-78.487 1.552-6.217 15.829-20.049 26.071-25.489 16.294-8.548 19.864-11.812 19.864-18.028 0-4.818-.621-5.751-5.742-7.771-6.518-2.798-15.053-1.244-24.519 4.196-5.898 3.575-16.295 16.008-16.295 19.427 0 4.041-2.793 2.176-6.828-4.662-4.656-7.926-13.346-16.008-20.485-18.961-13.035-5.44-27.002-.622-24.674 8.392 1.396 5.906 2.638 6.994 15.053 13.522 14.587 7.46 23.588 14.765 28.399 23.002l3.724 6.683-4.345 43.051c-2.483 23.624-5.276 43.984-6.207 45.227-.931 1.244-3.88 2.953-6.208 4.041-3.724 1.554-5.431 1.244-10.552-1.243-17.226-8.859-38.797-11.19-59.437-6.217-3.103.622-3.414-2.953-10.863-95.894-3.569-42.74-6.673-80.973-7.293-85.014l-.776-7.305 46.245-.466c40.659-.467 47.021-.777 51.367-3.109 18.001-9.947 18.312-34.503.62-44.45l-6.207-3.574 3.414-7.305c4.966-10.724 4.811-31.084-.31-40.72-8.691-16.475-18.467-23.779-35.228-26.888-10.087-1.865-10.552-2.175-12.414-7.771-2.794-8.081-10.398-18.65-17.226-24.09-31.658-24.867-76.041-15.075-93.732 20.671-4.811 9.792-4.811 9.792-12.57 10.88-4.346.621-11.484 3.108-16.14 5.439l-8.225 4.352-.465-71.648c-.466-71.649-.466-71.804-4.035-79.109-2.017-4.196-6.518-9.947-10.087-12.9-11.173-9.636-16.45-10.413-71.23-9.791-45.47.466-49.039.621-55.557 3.73-8.69 4.041-16.605 11.812-20.329 20.049-2.638 5.595-2.949 11.035-2.949 50.045v43.828l-48.418.467c-46.555.466-48.883.621-54.935 3.885-3.414 1.865-8.536 5.906-11.174 8.859-2.638 3.108-5.276 5.595-5.586 5.595-.466 0-.776-48.957-.932-108.949 0-117.963.311-113.612-8.535-125.113-2.017-2.797-7.449-6.838-11.949-9.014l-8.07-4.041h-41.9c-37.4 0-42.676.311-48.263 2.953zm23.744 56.884c.465 13.055-.931 16.319-6.828 16.319-5.277 0-8.38-5.595-8.38-15.076 0-13.988 4.345-19.583 11.638-15.231 2.639 1.554 3.104 3.885 3.57 13.988zm29.795-13.211c2.483 2.487 3.104 5.129 3.104 13.521 0 14.299-5.431 20.05-12.725 13.366-2.173-2.02-2.794-4.818-2.794-13.832 0-9.947.466-11.656 3.415-13.677 4.5-3.108 5.276-3.108 9 .622zm31.813-.933c2.173 1.555 3.104 4.508 3.415 11.968.62 11.19-1.707 17.407-6.829 18.184-5.897.932-8.225-3.575-8.225-16.008 0-10.103.466-11.812 3.415-13.833 4.19-2.953 4.5-2.953 8.224-.311zm-63.005 48.18c1.241 1.399 1.707 6.683 1.397 14.144-.466 10.413-.931 12.433-3.88 14.298-3.104 2.176-3.724 2.021-7.449-1.709-3.259-3.264-3.88-5.285-3.88-12.9 0-5.751.932-10.413 2.483-12.589 2.639-3.886 8.69-4.507 11.329-1.244zm32.744.778c.776 1.709 1.552 7.615 1.552 13.21 0 8.237-.62 10.88-3.104 13.366-1.707 1.71-3.724 3.109-4.655 3.109-.776 0-2.949-1.399-4.656-3.109-4.035-4.041-4.5-23.157-.62-27.043 3.258-3.419 9.466-3.108 11.483.467zm31.037-1.399c1.397.932 2.483 4.973 2.794 12.278.62 10.102.31 11.19-3.414 14.92-3.88 3.886-4.5 4.041-7.605 1.865-2.948-1.865-3.413-3.885-3.88-14.298-.31-7.461.156-12.745 1.398-14.144 2.017-2.486 7.293-2.797 10.707-.621zM27.33 504.216c2.483 1.398 2.95 3.419 2.95 13.987 0 12.279-1.863 17.097-6.83 17.097-5.275 0-6.983-3.886-7.448-16.164-.31-10.413.155-12.434 2.638-14.299 3.57-2.642 4.656-2.642 8.69-.621zm33.055.932c3.57 3.419 3.414 23.313-.155 27.354-3.414 3.73-7.604 3.575-10.398-.622-3.414-4.973-3.414-22.536.156-26.421 3.103-3.419 7.138-3.575 10.397-.311zm32.59.933c2.792 3.885 3.258 17.407 1.085 23.468-2.017 5.284-7.293 6.839-11.173 3.264-3.88-3.575-4.345-23.935-.465-27.665 3.414-3.419 7.759-3.108 10.552.933zm193.361 15.075c2.172 4.197 2.017 23.935-.311 26.266-2.948 2.953-10.242 2.332-12.104-1.088-2.483-4.973-2.018-22.846.931-25.644 3.259-3.419 9.466-3.108 11.484.466zm31.037-1.398c1.707 1.088 2.328 4.507 2.328 13.987 0 9.481-.621 12.9-2.328 13.988-3.259 2.021-8.38 1.865-10.553-.311-2.483-2.486-2.483-24.867 0-27.354 2.173-2.175 7.294-2.331 10.553-.31zm32.278.31c2.483 2.487 2.483 24.868 0 27.354-1.086 1.088-3.259 1.865-5.121 1.865-5.586 0-6.983-3.108-6.983-15.542 0-12.433 1.397-15.542 6.983-15.542 1.862 0 4.035.778 5.121 1.865zm32.589 0c2.483 2.487 2.483 24.868 0 27.354-2.638 2.642-8.38 2.332-11.173-.621-2.949-2.798-3.414-20.671-.931-25.645 1.862-3.419 9.156-4.041 12.104-1.088zM29.968 565.606c.465 12.9-.931 16.319-6.673 16.319-5.587 0-7.294-3.574-7.294-15.852 0-9.792.465-11.657 3.57-13.988 2.948-2.487 3.724-2.642 6.672-.777 2.794 1.865 3.26 4.041 3.725 14.298zm32.589-.932c.465 12.278-1.242 17.251-6.208 17.251-6.517 0-9-4.196-9-15.541 0-13.522 4.5-19.273 11.638-14.765 2.483 1.554 3.26 3.885 3.57 13.055zm31.502-9.636c2.173 6.061 1.707 19.583-1.086 23.468-2.948 4.196-9.311 4.507-11.484.466-.776-1.709-1.552-7.926-1.552-13.987 0-9.17.466-11.191 3.26-13.056 4.19-2.953 9-1.554 10.862 3.109zm191.345 12.278c3.569 3.419 3.414 23.313-.156 27.354-3.259 3.574-5.897 3.574-9.776-.311-4.19-4.196-4.501-22.38-.466-26.732 3.104-3.419 7.139-3.575 10.398-.311zm32.589.933c3.724 5.439 3.414 22.069-.621 26.11-3.725 3.73-5.897 3.885-9.622.466-3.724-3.419-4.035-23.779-.31-27.509 3.414-3.419 7.759-3.108 10.553.933zm31.657-1.555c1.087 1.088 1.863 6.839 1.863 14.765 0 11.035-.466 13.055-2.949 14.454-7.914 4.196-11.018-.155-11.018-15.386 0-12.589 1.397-15.698 6.983-15.698 1.862 0 4.035.777 5.121 1.865zm31.969.622c1.862 1.71 2.483 5.44 2.483 13.832 0 10.103-.466 11.812-3.414 13.833-4.501 3.108-5.277 3.108-9.001-.622-4.19-4.196-4.501-22.38-.466-26.732 3.104-3.419 7.139-3.575 10.398-.311zM28.416 599.332c2.948 2.953 2.483 25.334-.62 28.287-3.105 3.108-5.122 3.108-8.691-.156-2.173-2.02-2.794-4.818-2.794-14.454 0-12.433 1.397-15.542 6.984-15.542 1.862 0 4.034.777 5.12 1.865zm32.9 1.088c.775 1.71 1.551 7.927 1.551 13.988 0 9.481-.465 11.19-3.414 13.211-4.5 3.108-5.276 3.108-9-.622-4.19-4.196-4.501-22.38-.466-26.732 3.259-3.73 9.31-3.575 11.328.155zm31.657-.466c3.104 2.953 3.414 22.07.62 25.8-3.103 3.73-6.827 4.351-10.397 1.865-2.793-2.021-3.258-3.886-3.258-14.454 0-7.15.775-12.745 1.862-13.833 2.638-2.642 8.38-2.331 11.173.622zm224.399 14.61c2.483 2.486 3.103 5.128 3.103 13.521 0 11.035-2.483 16.008-7.914 16.008-5.587 0-7.604-4.352-7.604-16.319 0-10.102.465-11.812 3.414-13.832 4.5-3.109 5.276-3.109 9.001.622zm31.658-1.088c2.327 1.709 2.948 4.351 2.948 13.987 0 12.9-1.707 16.63-7.294 16.63-5.741 0-7.138-2.953-7.138-15.386 0-15.076 4.19-20.671 11.484-15.231zm32.589.932c2.017 2.331 2.483 5.284 2.172 15.076-.465 11.812-.62 12.278-4.966 13.832-3.724 1.243-4.81.933-7.293-2.176-4.346-5.284-4.19-22.225.155-26.576 3.879-3.886 6.518-3.886 9.932-.156zm-214.777 18.34c2.793 3.574 3.103 5.906 2.793 17.407l-.466 13.366h-18.622l-.465-14.299c-.311-12.744 0-14.765 2.793-17.562 4.345-4.352 9.932-3.886 13.967 1.088zm29.795-1.555c2.328 2.021 2.794 4.974 2.794 17.874v15.231h-9.312c-8.535 0-9.311-.311-10.242-3.886-1.862-7.615 0-25.178 3.104-28.597 3.569-3.885 9.777-4.196 13.656-.622zm30.727.467c2.793 2.797 3.104 4.818 2.793 17.562l-.465 14.299H211.07l-.466-14.299c-.31-12.744 0-14.765 2.793-17.562 1.707-1.71 4.811-3.109 6.984-3.109 2.172 0 5.276 1.399 6.983 3.109zm30.416.155c2.328 2.487 3.104 6.217 3.414 16.008.776 15.231-.465 16.941-11.638 16.164l-7.449-.466-.466-14.61c-.31-11.967 0-15.075 2.173-17.407 3.569-3.885 10.242-3.73 13.966.311zM27.33 645.647c2.483 1.399 2.948 3.42 2.948 14.61 0 14.92-1.862 18.029-9 15.542-4.036-1.399-4.19-2.021-4.656-14.143-.31-9.947.155-13.056 2.017-15.076 2.949-2.953 4.5-3.108 8.69-.933zm33.054.933c1.862 1.71 2.483 5.44 2.483 13.832 0 12.123-2.017 16.319-7.76 16.319-4.965 0-7.758-6.061-7.758-16.63 0-7.771.62-10.413 3.103-12.899 3.725-3.73 6.673-3.886 9.932-.622zm32.59.932c3.413 4.974 3.413 22.536-.156 26.422-3.104 3.419-6.363 3.574-10.087.155-3.88-3.419-4.035-23.002-.155-27.198 3.414-3.73 7.604-3.575 10.397.621zm225.019 14.61c2.948 2.797 3.414 20.671.931 25.644-1.863 3.419-9.156 4.041-12.105 1.088-2.328-2.331-2.483-22.069-.31-26.266 2.017-3.574 8.225-3.885 11.484-.466zm33.054 2.176c2.793 5.439 2.483 18.806-.465 23.002-2.639 3.73-8.225 4.507-11.174 1.554-2.483-2.487-2.483-24.867 0-27.354 3.104-3.108 9.467-1.554 11.639 2.798zm31.192-2.798c2.483 2.487 2.483 24.867 0 27.354-2.948 2.953-8.535 2.176-11.173-1.554-1.552-2.176-2.483-6.839-2.483-12.123 0-5.284.931-9.947 2.483-12.123 2.638-3.73 8.225-4.507 11.173-1.554zm-215.553 20.516c3.104 3.263 3.415 4.973 2.949 17.407l-.466 13.832h-18.622l-.465-14.299c-.311-12.744 0-14.765 2.793-17.562 4.19-4.196 9.466-3.886 13.811.622zm29.796-.777c2.949 2.486 3.725 4.662 4.19 13.987.31 6.062.155 12.745-.31 14.921-.931 3.574-1.707 3.885-10.243 3.885h-9.311v-15.386c0-14.299.311-15.698 3.414-17.874 4.656-3.264 7.915-3.108 12.26.467zm30.882.155c2.793 2.797 3.104 4.818 2.793 17.562l-.465 14.299H211.07l-.466-13.988c-.31-12.433 0-14.454 2.793-17.562 4.035-4.352 9.932-4.352 13.967-.311zm31.037 1.088c2.794 3.575 3.104 5.906 2.793 17.407l-.465 13.366h-18.622l-.466-14.765c-.465-13.521-.155-14.92 2.949-17.562 4.81-3.886 9.932-3.264 13.811 1.554zM29.347 695.693c1.552 2.175 2.483 6.838 2.483 12.122 0 9.792-3.104 15.542-8.38 15.542-5.742 0-7.139-2.953-7.139-15.542 0-7.149.776-12.589 1.863-13.677 2.948-2.953 8.535-2.176 11.173 1.555zm31.658-1.555c1.086 1.088 1.862 6.528 1.862 13.677 0 12.589-1.397 15.542-7.139 15.542-5.276 0-8.38-5.75-8.38-15.542 0-5.284.932-9.947 2.483-12.122 2.639-3.731 8.225-4.508 11.174-1.555zm32.9 1.088c.775 1.71 1.551 7.305 1.551 12.589 0 11.968-1.862 15.542-7.76 15.542-5.896 0-7.758-3.574-7.758-15.542 0-11.967 1.862-15.542 7.759-15.542 2.948 0 5.12 1.088 6.207 2.953zm223.777 13.677c3.88 3.419 4.035 23.002.155 27.199-3.103 3.419-6.362 3.574-10.087.155-3.879-3.419-4.035-23.002-.155-27.198 3.104-3.42 6.363-3.575 10.087-.156zm32.9.777c3.724 5.44 3.414 22.07-.621 26.111-7.449 7.46-12.415 2.176-12.415-13.211 0-8.393.621-12.123 2.483-13.832 3.414-3.419 7.759-3.109 10.553.932zM165.91 731.284c4.035 3.108 4.191 3.73 3.725 17.562l-.466 14.143h-18.622l-.465-14.298c-.311-12.745 0-14.765 2.793-17.563 4.035-4.041 7.759-3.885 13.035.156zm31.348.621c3.569 3.575 3.88 4.818 3.414 17.407l-.465 13.677-9.622.467-9.777.466V748.38c0-14.299.311-15.698 3.414-17.873 4.966-3.42 8.536-3.109 13.036 1.398zm30.106-.777c2.793 2.798 3.104 4.818 2.793 17.563l-.465 14.298H211.07l-.466-13.366c-.31-11.501 0-13.832 2.793-17.407 4.035-4.973 9.622-5.44 13.967-1.088zm31.037 1.088c2.794 3.575 3.104 5.906 2.793 17.407l-.465 13.366h-18.622l-.466-14.298c-.31-12.745 0-14.765 2.793-17.563 4.346-4.352 9.932-3.885 13.967 1.088zM29.347 742.318c3.724 5.44 3.414 22.07-.62 26.111-3.725 3.73-5.898 3.885-9.622.466-2.173-2.02-2.794-4.818-2.794-13.21 0-5.906.776-12.123 1.552-13.833 2.173-4.041 8.535-3.73 11.484.466zm30.572-1.865c2.483 1.399 2.948 3.42 2.948 13.833 0 10.102-.465 12.589-3.104 14.92-2.638 2.331-3.724 2.487-6.983 1.088-3.724-1.71-3.88-2.487-3.88-14.765 0-15.853 2.639-19.427 11.019-15.076zm33.054.933c1.862 1.71 2.483 5.44 2.483 13.832 0 10.103-.465 11.812-3.414 13.833-4.5 3.108-5.276 3.108-9-.622-4.19-4.196-4.501-22.38-.466-26.732 3.103-3.419 7.138-3.575 10.397-.311zm72.937 39.632c4.035 3.108 4.191 3.73 3.725 17.562l-.466 14.144h-18.622l-.465-13.677c-.466-12.589-.156-13.833 3.414-17.407 4.81-4.663 6.983-4.818 12.414-.622zm31.348.622c3.569 3.574 3.88 4.818 3.414 17.407l-.465 13.677-9.622.466-9.777.466v-14.92c0-12.745.466-15.231 3.104-17.874 4.19-4.196 8.69-3.885 13.346.778zm30.106-.778c2.638 2.643 3.104 5.129 3.104 17.874v14.92l-9.622-.466-9.776-.466-.466-13.677c-.466-12.589-.155-13.833 3.414-17.407 4.656-4.663 9.156-4.974 13.346-.778zm30.416.778c3.57 3.574 3.88 4.818 3.414 17.407l-.465 13.677h-18.622l-.466-14.299c-.31-12.744 0-14.765 2.793-17.563 4.19-4.196 8.691-3.885 13.346.778zm-229.054 6.993c2.483 2.487 3.104 5.129 3.104 12.9 0 11.191-2.793 16.63-8.535 16.63-5.277 0-6.984-4.196-6.984-16.941 0-9.48.466-11.19 3.414-13.21 4.5-3.109 5.277-3.109 9.001.621zm30.106-1.554c3.88 1.399 4.035 2.021 4.035 14.454 0 13.522-1.241 16.63-6.983 16.63-5.742 0-6.984-3.108-6.984-16.63 0-10.568.466-13.055 2.794-14.298 3.259-2.021 2.483-2.021 7.138-.156zm33.21.933c2.949 2.02 3.414 3.73 3.414 13.832 0 12.123-2.017 16.319-7.76 16.319-4.965 0-7.758-6.061-7.758-16.63 0-7.771.62-10.413 3.103-12.9 3.725-3.73 4.5-3.73 9.001-.621zm-29.64 50.356c2.483 4.973 2.483 16.785 0 21.759-2.173 4.351-7.915 5.905-11.329 3.108-2.793-2.487-3.104-24.867-.31-27.665 3.103-3.108 9.466-1.554 11.639 2.798zm31.192-2.798c1.086 1.088 1.862 6.528 1.862 13.677 0 13.055-1.397 15.542-8.07 15.542-3.258 0-4.81-.932-5.897-4.041-2.017-5.129-2.017-20.204 0-24.09 1.863-3.419 9.156-4.041 12.105-1.088zm391.844 22.536c.776 1.399-6.518 98.847-7.449 99.624-.31.311-4.345-2.953-8.845-7.46-9.777-9.481-29.951-23.313-40.814-27.976-4.19-1.865-7.915-3.574-8.225-3.73-.621-.777-4.966-48.801-4.966-55.795v-5.751H449.9c19.244 0 35.228.466 35.538 1.088z" fill="#856B8E"/><path d="M585.222 790.498c-3.414 4.818-.621 8.393 10.863 14.921 8.846 4.973 16.139 11.345 20.795 18.65l2.328 3.575 4.966-6.994c3.103-4.352 8.069-8.704 13.035-11.346 15.208-8.237 19.864-13.988 15.053-18.806-2.638-2.642-11.484-2.331-17.846.777-2.949 1.399-7.604 5.44-10.087 8.859-2.483 3.575-4.966 6.217-5.277 6.062-.465-.156-2.948-3.109-5.431-6.528-8.07-11.346-23.433-16.164-28.399-9.17z" fill="#856B8E"/></g><g clip-path="url(#clip2)"><path d="M1392 0H921v1024h471V0z" fill="#fff"/><path d="M1345.65 294.399c-10.08 1.709-18.31 6.372-25.91 14.454-11.64 12.744-11.17 9.17-11.17 97.603v79.109h-34.15l-.31-40.098c-.31-21.914-.93-39.788-1.55-39.632-.77.31-29.17.466-63.31.466h-62.08v55.174c0 52.998-.15 55.174-2.95 55.174-1.55 0-4.34 1.243-6.2 2.642-2.95 2.487-3.26 4.663-3.57 21.448l-.47 18.65-10.71.933c-9.62.777-11.17 1.399-15.2 5.906-4.35 4.818-4.35 4.973-4.35 25.799v20.982l-5.74 3.73c-12.73 8.082-15.83 15.231-15.99 37.767 0 15.853 0 16.008-4.34 18.184-6.36 3.264-17.23 15.698-20.64 23.624-2.64 5.906-3.73 6.838-7.92 6.838-13.81 0-29.79 11.191-34.76 24.401-3.26 8.548-3.57 20.516-.62 29.064 2.33 7.305 13.81 20.049 20.18 22.691 5.74 2.331 5.74 3.264.31 7.305-2.33 1.709-6.06 6.372-8.07 10.258-3.26 6.061-4.5 7.149-9.94 7.926-17.531 2.953-29.481 21.448-24.204 37.456 2.328 7.149 10.864 16.785 17.074 19.428 4.19 1.709 4.5 2.331 3.72 7.615-3.1 19.738 15.83 37.301 35.38 32.949 3.57-.932 6.99-1.243 7.3-.777.46.311-.78 20.049-2.64 43.828-5.74 71.024-5.74 70.254-2.02 76.004 5.9 9.48 16.92 8.23 21.26-2.18 2.64-5.91 1.71-24.089-4.81-95.272-1.08-12.433-1.86-22.691-1.71-22.846.31-.311 4.35.311 9.16 1.243l8.85 1.865V1030l86.59-.93c47.49-.62 66.32-1.09 66.32-1.09l48.98-65.348 78.84-132.346 47.93-152.156s18.69-118.684 17.76-122.259c0 0-5.52-178.602-14.21-182.953-6.51-3.42 0-11.533 0-11.533l-3.55-20.44-10.84-16.861c0-9.636 3.74-8.006 3.74-8.006-2.17-7.771 3.7-2.096-3.74-7.225L1393.92 293c-22.66.155-44.39.777-48.27 1.399zm16.92 52.532c1.09 1.554 1.86 7.149 1.86 14.454 0 13.521-1.86 16.94-9.31 16.94-6.67 0-9.31-4.973-9.31-17.562 0-9.17.46-11.035 3.88-14.454 4.19-4.196 9.16-4.041 12.88.622zm38.8 0c2.94 3.885 2.48 25.022-.78 28.597-3.1 3.419-9.47 3.574-13.19.155-2.17-2.02-2.79-4.818-2.79-14.298 0-6.528.62-12.589 1.24-13.522 3.57-5.284 11.64-5.906 15.52-.932zm-39.73 51.133c2.33 2.02 2.79 4.818 2.79 14.92 0 13.677-2.17 18.184-8.69 18.184-6.05 0-9.93-6.838-9.93-17.873 0-7.46.77-10.569 3.26-13.833 3.57-4.662 8.38-5.128 12.57-1.398zm35.69 14.454c-.15 9.014-.31 16.785-.31 17.407 0 2.486-6.36 1.088-9.31-1.865-4.66-4.663-4.5-25.023.15-29.685 1.71-1.71 4.66-2.953 6.52-2.643 3.11.467 3.26 1.244 2.95 16.786zm-35.38 38.233c3.1 3.108 3.57 27.354.62 29.84-4.35 3.264-8.54 3.42-12.26.467-3.41-2.642-3.73-4.197-3.73-15.387 0-8.082.78-13.21 2.18-14.765 2.64-3.263 10.09-3.419 13.19-.155zm35.23 10.724c.15 7.305.31 14.765.31 16.63.15 2.797-.78 3.73-3.88 4.041-6.21.777-9-4.507-9-16.786 0-11.656 2.79-17.096 8.69-17.096 3.56 0 3.72.311 3.88 13.211zm-138.58 68.54c2.94 2.02 3.41 3.73 3.41 13.211 0 12.433-1.71 16.94-6.52 16.94-6.52 0-9-4.196-9-15.852 0-8.549.62-11.191 3.1-13.677 3.73-3.73 4.51-3.73 9.01-.622zm32.89.622c2.49 2.486 3.11 5.128 3.11 12.899 0 10.569-2.8 16.63-7.76 16.63-5.74 0-7.76-4.196-7.76-16.319 0-10.102.46-11.812 3.41-13.832 4.5-3.108 5.28-3.108 9 .622zm-31.34 46.936c1.08 1.088 1.86 6.528 1.86 13.677 0 7.15-.78 12.589-1.86 13.677-2.95 2.953-10.25 2.332-12.11-1.088-2.64-4.973-2.02-22.069 1.09-25.333 2.79-3.264 8.22-3.73 11.02-.933zm32.9 1.088c.77 1.71 1.55 7.305 1.55 12.589 0 11.968-1.86 15.542-7.76 15.542-5.9 0-7.76-3.574-7.76-15.542 0-11.967 1.86-15.542 7.76-15.542 2.95 0 5.12 1.088 6.21 2.953zm-33.52 46.16c1.86 1.71 2.48 5.44 2.48 13.832 0 15.387-4.97 20.671-12.42 13.211-2.48-2.487-3.1-5.129-3.1-13.211s.62-10.724 3.1-13.21c3.73-3.73 6.68-3.886 9.94-.622zm32.27.155c3.88 3.42 4.04 23.002.16 27.199-3.1 3.419-6.36 3.574-10.09.155-3.88-3.419-4.03-23.002-.15-27.198 3.1-3.419 6.36-3.575 10.08-.156zm-181.1 27.665v13.988l-6.51.466-6.52.466-.47-14.143c-.31-7.926-.15-14.609.31-14.92.31-.466 3.42-.622 6.99-.311l6.2.466v13.988zm27.16.156v14.764l-6.52-.466-6.67-.466-.47-12.278c-.31-6.839-.15-13.211.31-14.454.47-1.244 3.26-2.021 7.14-2.021h6.21v14.921zm27.93 0v14.764l-6.51-.466-6.68-.466-.46-12.278c-.31-6.839-.16-13.211.31-14.454.46-1.244 3.26-2.021 7.14-2.021h6.2v14.921zm27.63.31l.46 14.454-6.67-.466-6.67-.466-.47-12.278c-.62-15.853-.15-16.786 6.98-16.164l5.9.466.47 14.454zm100.87 31.861c.46 12.434-1.4 16.63-7.45 16.63-5.59 0-7.76-4.196-7.76-15.386 0-13.677 4.5-19.428 11.64-14.921 2.64 1.555 3.1 3.886 3.57 13.677zm-34.14-12.589c2.79 2.798 2.48 25.178-.31 27.665-3.42 2.798-9.16 1.243-11.33-3.108-2.33-4.663-2.64-16.941-.47-22.381 1.09-3.108 2.64-4.041 5.9-4.041 2.33 0 5.12.777 6.21 1.865zM1110.7 693.05v13.988l-6.51.466-6.68.466v-29.84l6.68.466 6.51.466v13.988zm27.94 0v13.988l-6.52.466-6.67.466v-29.84l6.67.466 6.52.466v13.988zm27.15.156v14.764l-6.51-.466-6.68-.466-.46-12.278c-.31-6.839-.16-13.211.31-14.454.46-1.244 3.26-2.021 7.14-2.021h6.2v14.921zm27.94 0v14.764l-6.52-.466-6.67-.466-.47-12.278c-.31-6.839-.15-13.211.31-14.454.47-1.244 3.26-2.021 7.14-2.021h6.21v14.921zm66.42 25.799c1.08 1.088 1.86 6.683 1.86 13.988 0 11.19-.31 12.278-4.04 14.609-3.72 2.487-4.03 2.487-6.82-.31-2.33-2.332-3.11-5.44-3.26-14.299-.16-6.994.46-12.123 1.7-13.521 2.33-2.798 7.92-3.109 10.56-.467zm31.96.622c1.87 1.71 2.49 5.44 2.49 13.832 0 9.947-.47 11.812-3.26 13.833-1.86 1.243-4.5 1.865-5.9 1.398-4.81-1.709-6.36-5.595-6.36-16.163 0-11.19 2.17-15.387 7.76-15.387 1.55 0 4.03 1.088 5.27 2.487zm-180.94 38.233l-.47 14.454-6.51.466-6.68.467v-29.685h14.12l-.46 14.298zm27.47.466v13.988l-6.52.466-6.67.467v-29.841l6.67.466 6.52.467v13.987zm28.4-3.108c.62 16.008-.01 17.873-7.45 17.873h-6.21v-29.685l6.67.466 6.52.467.47 10.879zm26.69 3.264v14.765l-6.52-.467-6.67-.466-.47-12.278c-.31-6.838-.15-13.211.31-14.454.47-1.243 3.26-2.02 7.14-2.02h6.21v14.92zm65.33 6.838c2.48 1.399 2.95 3.42 2.95 14.765 0 11.812-.31 13.211-3.26 14.92-2.48 1.244-4.35 1.244-6.98 0-3.57-1.554-3.73-2.486-3.73-14.764 0-10.88.47-13.522 2.8-14.765 3.41-2.021 4.5-2.021 8.22-.156zm32.74 1.088c3.88 3.419 4.04 23.002.16 27.199-6.52 7.304-12.88.621-12.88-13.833 0-7.771.62-10.413 3.1-12.899 3.73-3.731 5.9-3.886 9.62-.467zm-180.63 31.861l-.47 14.454-6.51.467-6.68.466v-29.685h14.12l-.46 14.298zm27.47.467v13.987l-6.52.467-6.67.466v-29.841l6.67.467 6.52.466v13.988zm27.93 0v13.987l-6.52.467-6.67.466v-29.841l6.67.467 6.52.466v13.988zm27.16 0V813.5h-6.06c-4.03 0-6.36-.777-6.98-2.486-1.24-3.264-1.24-24.712.16-25.955.46-.622 3.72-1.088 6.98-1.088h5.9v14.765zm66.42 15.231c2.79 3.263 3.72 20.049 1.55 24.401-2.33 4.351-8.07 5.906-11.49 3.108-2.79-2.487-3.1-24.867-.31-27.665 2.49-2.486 8.23-2.331 10.25.156zm32.59-.156c1.08 1.088 1.86 6.528 1.86 13.677 0 12.434-1.4 15.542-6.83 15.542-6.21 0-7.76-2.487-8.38-12.744-.78-12.9 1.24-18.34 7.14-18.34 2.33 0 5.12.777 6.21 1.865zm-181.57 48.957l.46 14.454h-14.12v-13.676c0-7.616.47-14.299 1.09-14.921.62-.621 3.57-.932 6.67-.621l5.43.466.47 14.298zm27.93 0l.47 14.454h-14.12v-29.685l6.67.467 6.52.466.46 14.298zm27.47-.31v13.987l-6.52.467-6.67.466v-29.841l6.67.467 6.52.466v13.988zm27.47-12.9c.46 1.088.62 7.615.62 14.454l-.16 12.433-6.52.467-6.67.466v-29.685h6.05c3.42 0 6.37.777 6.68 1.865zm66.57 12.278c2.8 2.797 3.26 4.663 2.64 14.143-.46 8.393-1.24 11.346-3.57 13.055-3.72 2.798-6.21 2.798-9.16-.31-3.1-2.953-3.56-25.334-.62-28.287 2.8-2.797 7.14-2.176 10.71 1.399zm31.5-.777c1.87 1.709 2.49 5.44 2.49 13.832 0 10.569-.31 11.812-3.73 13.988-7.91 5.284-13.19-3.264-11.32-18.806 1.08-10.724 6.82-14.765 12.56-9.014zm-153.78 28.442c.62.155.93 6.683.77 14.454l-.46 14.454h-12.42l-.46-13.056c-.31-7.149-.16-13.987.31-15.075.46-1.088 2.79-1.554 5.89-1.399 2.8.311 5.75.622 6.37.622zm26.53-.467c2.02.777 2.49 3.575 2.49 14.61v13.677l-5.44.932c-3.1.622-6.2.622-6.98.156-1.71-1.088-2.17-27.665-.47-29.219 1.25-1.399 7.14-1.399 10.4-.156zm27.94 0c2.01.777 2.48 3.575 2.48 13.988 0 11.967-.31 13.211-3.26 14.454-1.86.622-4.81 1.088-6.67.933-3.11-.311-3.26-1.244-3.73-15.231l-.46-15.076h4.65c2.49 0 5.59.466 6.99.932zm-81.32 14.61c0 13.366-.16 13.988-3.73 14.92-8.69 2.176-9.46.933-9.93-14.609l-.46-14.299h14.12v13.988zm150.68 7.305c2.02 5.439 1.71 17.717-.62 22.225-2.17 4.351-7.91 5.906-11.33 3.108-2.32-2.021-3.25-24.09-.93-27.354 3.11-4.662 10.71-3.419 12.88 2.021zm29.18-3.109c3.1 2.487 3.41 4.041 2.95 15.231-.47 11.968-.62 12.434-4.81 13.833-7.14 2.486-9.62-1.555-9.62-15.542 0-9.792.46-12.123 2.94-13.988 3.88-2.798 4.5-2.798 8.54.466zm-29.95 49.424c1.86 2.953 2.33 6.372 1.86 14.143-.62 10.568-2.17 13.055-8.22 13.055-5.59 0-6.99-3.108-6.99-15.542 0-7.149.78-12.589 1.86-13.677 3.11-3.108 8.7-2.176 11.49 2.021z" fill="#856B8E"/><path d="M1345 862l-110.5 161v19.5l174-8.5V739h-21L1345 862z" fill="#856B8E"/></g><g clip-path="url(#clip3)"><path d="M1579 121h-272v903h272V121z" fill="#fff"/><path d="M1537.19 380.612c-8.91 1.507-16.17 5.619-22.89 12.746-10.28 11.238-9.87 8.086-9.87 86.07v69.761h-30.15l-.27-35.36c-.27-19.325-.82-35.087-1.37-34.949-.69.273-25.77.411-55.92.411h-54.82v48.654c0 46.736-.13 48.655-2.6 48.655-1.37 0-3.84 1.096-5.48 2.329-2.6 2.194-2.88 4.112-3.15 18.914l-.41 16.446-9.46.823c-8.5.685-9.87 1.234-13.43 5.208-3.84 4.249-3.84 4.386-3.84 22.751v18.502l-5.07 3.29c-11.24 7.127-13.98 13.431-14.12 33.304 0 13.98 0 14.116-3.83 16.035-5.62 2.879-15.21 13.843-18.23 20.833-2.33 5.208-3.29 6.03-6.99 6.03-12.2 0-26.31 9.868-30.7 21.517-2.88 7.538-3.15 18.092-.55 25.63 2.06 6.442 12.2 17.68 17.82 20.01 5.07 2.055 5.07 2.878.27 6.442-2.05 1.507-5.34 5.619-7.12 9.045-2.88 5.345-3.98 6.305-8.77 6.99-15.49 2.604-26.04 18.914-21.38 33.03 2.05 6.304 9.59 14.802 15.07 17.132 3.7 1.507 3.98 2.056 3.29 6.715-2.74 17.406 13.98 32.894 31.25 29.056 3.15-.822 6.17-1.096 6.44-.685.41.274-.69 17.68-2.33 38.649-5.07 62.634-5.07 61.954-1.78 67.024 5.21 8.36 14.94 7.26 18.77-1.92 2.33-5.22 1.51-21.246-4.24-84.018-.96-10.963-1.65-20.009-1.51-20.146.27-.274 3.84.274 8.08 1.096l7.82 1.645v111.013l76.47-.82c41.93-.55 58.57-.96 58.57-.96l43.25-57.626 69.63-116.708 42.33-134.177s16.5-104.659 15.68-107.812c0 0-4.87-157.498-12.55-161.335-5.75-3.015 0-10.17 0-10.17l-3.13-18.024-9.58-14.869c0-8.497 3.31-7.06 3.31-7.06-1.92-6.853 3.27-1.848-3.31-6.371l-6.58-13.98c-20.01.137-39.2.685-42.62 1.234zm14.94 46.324c.96 1.371 1.64 6.304 1.64 12.746 0 11.924-1.64 14.939-8.22 14.939-5.89 0-8.23-4.386-8.23-15.487 0-8.087.42-9.731 3.43-12.746 3.7-3.7 8.09-3.564 11.38.548zm34.26 0c2.6 3.426 2.19 22.066-.69 25.218-2.74 3.015-8.36 3.152-11.65.137-1.91-1.782-2.46-4.249-2.46-12.609 0-5.756.55-11.101 1.09-11.924 3.16-4.66 10.28-5.208 13.71-.822zm-35.09 45.091c2.06 1.781 2.47 4.249 2.47 13.157 0 12.061-1.92 16.035-7.67 16.035-5.35 0-8.78-6.03-8.78-15.761 0-6.578.69-9.32 2.88-12.198 3.16-4.111 7.4-4.522 11.1-1.233zm31.52 12.746c-.13 7.949-.27 14.802-.27 15.35 0 2.193-5.62.96-8.22-1.644-4.11-4.112-3.98-22.066.14-26.178 1.5-1.508 4.11-2.604 5.75-2.33 2.74.412 2.88 1.097 2.6 14.802zm-31.24 33.715c2.74 2.741 3.15 24.122.55 26.314-3.84 2.879-7.54 3.016-10.83.412-3.02-2.33-3.29-3.701-3.29-13.569 0-7.127.69-11.649 1.92-13.02 2.33-2.877 8.91-3.015 11.65-.137zm31.11 9.457c.13 6.442.27 13.021.27 14.665.14 2.467-.68 3.289-3.42 3.564-5.49.685-7.95-3.975-7.95-14.803 0-10.279 2.46-15.076 7.67-15.076 3.15 0 3.29.275 3.43 11.65zm-122.39 60.441c2.61 1.782 3.02 3.29 3.02 11.65 0 10.964-1.51 14.939-5.76 14.939-5.75 0-7.95-3.701-7.95-13.979 0-7.539.55-9.869 2.75-12.061 3.29-3.289 3.97-3.289 7.94-.549zm29.06.549c2.19 2.192 2.74 4.522 2.74 11.375 0 9.32-2.47 14.665-6.85 14.665-5.07 0-6.86-3.701-6.86-14.391 0-8.908.42-10.416 3.02-12.198 3.97-2.74 4.66-2.74 7.95.549zm-27.68 41.39c.95.959 1.64 5.756 1.64 12.06 0 6.306-.69 11.102-1.64 12.061-2.61 2.604-9.05 2.057-10.69-.959-2.33-4.385-1.79-19.461.96-22.34 2.46-2.878 7.26-3.289 9.73-.822zm29.05.959c.68 1.508 1.37 6.442 1.37 11.101 0 10.554-1.64 13.706-6.85 13.706s-6.86-3.152-6.86-13.706c0-10.552 1.65-13.705 6.86-13.705 2.6 0 4.52.959 5.48 2.604zm-29.6 40.706c1.64 1.508 2.19 4.797 2.19 12.197 0 13.569-4.39 18.229-10.96 11.65-2.2-2.193-2.75-4.523-2.75-11.65 0-7.127.55-9.457 2.75-11.649 3.29-3.289 5.89-3.427 8.77-.548zm28.5.136c3.43 3.016 3.57 20.284.14 23.985-2.74 3.015-5.62 3.152-8.91.137-3.42-3.015-3.56-20.284-.13-23.984 2.74-3.015 5.61-3.153 8.9-.138zm-159.93 24.396v12.335l-5.76.411-5.75.411-.41-12.471c-.28-6.99-.14-12.883.27-13.158.27-.41 3.01-.548 6.17-.274l5.48.411v12.335zm23.98.138v13.019l-5.75-.411-5.9-.411-.41-10.827c-.27-6.031-.14-11.65.28-12.746.41-1.097 2.87-1.782 6.3-1.782h5.48v13.158zm24.67 0v13.019l-5.76-.411-5.89-.411-.41-10.827c-.27-6.031-.14-11.65.27-12.746.42-1.097 2.88-1.782 6.31-1.782h5.48v13.158zm24.39.273l.42 12.746-5.9-.411-5.89-.411-.41-10.827c-.55-13.98-.14-14.802 6.17-14.254l5.2.411.41 12.746zm89.09 28.096c.41 10.965-1.24 14.665-6.58 14.665-4.94 0-6.86-3.7-6.86-13.568 0-12.06 3.98-17.132 10.28-13.157 2.33 1.371 2.74 3.426 3.16 12.06zm-30.15-11.101c2.46 2.467 2.19 22.203-.28 24.396-3.01 2.467-8.09 1.096-10-2.741-2.06-4.112-2.33-14.939-.41-19.736.96-2.741 2.32-3.564 5.2-3.564 2.06 0 4.53.686 5.49 1.645zm-131.98 18.228v12.336l-5.76.41-5.89.411v-26.314l5.89.411 5.76.411v12.335zm24.67 0v12.336l-5.76.41-5.89.411v-26.314l5.89.411 5.76.411v12.335zm23.98.138v13.019l-5.76-.411-5.89-.41-.41-10.828c-.27-6.031-.14-11.65.27-12.746.42-1.097 2.88-1.782 6.31-1.782h5.48v13.158zm24.67 0v13.019l-5.76-.411-5.89-.41-.41-10.828c-.28-6.031-.14-11.65.27-12.746.41-1.097 2.88-1.782 6.31-1.782h5.48v13.158zm58.66 22.75c.95.96 1.64 5.894 1.64 12.336 0 9.867-.27 10.827-3.56 12.882-3.29 2.193-3.57 2.193-6.03-.273-2.06-2.057-2.74-4.797-2.88-12.609-.14-6.168.41-10.691 1.51-11.924 2.05-2.467 6.99-2.741 9.32-.412zm28.23.549c1.64 1.508 2.19 4.797 2.19 12.197 0 8.772-.41 10.417-2.88 12.199-1.64 1.096-3.97 1.645-5.21 1.233-4.24-1.507-5.62-4.934-5.62-14.253 0-9.868 1.92-13.569 6.86-13.569 1.37 0 3.56.959 4.66 2.193zm-159.8 33.715l-.41 12.746-5.76.411-5.89.412V776.7h12.47l-.41 12.608zm24.26.411v12.335l-5.76.411-5.89.412v-26.315l5.89.411 5.76.412v12.334zm25.08-2.741c.55 14.117 0 15.761-6.58 15.761h-5.48v-26.177l5.89.411 5.76.412.41 9.593zm23.57 2.879v13.02l-5.76-.412-5.89-.411-.41-10.827c-.28-6.03-.14-11.65.27-12.746.41-1.096 2.88-1.781 6.31-1.781h5.48v13.157zm57.7 6.03c2.19 1.233 2.6 3.016 2.6 13.02 0 10.416-.27 11.65-2.88 13.157-2.19 1.097-3.84 1.097-6.17 0-3.15-1.37-3.28-2.192-3.28-13.019 0-9.595.41-11.925 2.46-13.021 3.02-1.782 3.98-1.782 7.27-.137zm28.91.959c3.43 3.015 3.57 20.284.14 23.985-5.76 6.441-11.38.548-11.38-12.198 0-6.853.55-9.183 2.75-11.375 3.29-3.29 5.2-3.427 8.49-.412zm-159.52 28.096l-.41 12.746-5.76.412-5.89.411v-26.177h12.47l-.41 12.608zm24.26.412v12.334l-5.76.412-5.89.411v-26.315l5.89.412 5.76.411v12.335zm24.67 0v12.334l-5.76.412-5.89.411v-26.315l5.89.412 5.76.411v12.335zm23.98 0v13.02h-5.35c-3.56 0-5.61-.686-6.16-2.193-1.1-2.878-1.1-21.792.13-22.888.42-.548 3.29-.959 6.17-.959h5.21v13.02zm58.66 13.431c2.46 2.878 3.28 17.68 1.37 21.518-2.06 3.837-7.13 5.208-10.15 2.741-2.46-2.193-2.74-21.929-.27-24.396 2.19-2.192 7.26-2.056 9.05.137zm28.78-.137c.95.959 1.64 5.756 1.64 12.061 0 10.964-1.23 13.705-6.03 13.705-5.48 0-6.85-2.193-7.4-11.238-.69-11.376 1.1-16.173 6.3-16.173 2.06 0 4.53.685 5.49 1.645zm-160.35 43.172l.41 12.746h-12.47v-12.06c0-6.716.41-12.609.96-13.158.55-.548 3.15-.822 5.89-.548l4.8.411.41 12.609zm24.67 0l.41 12.746h-12.47v-26.177l5.89.411 5.76.411.41 12.609zm24.26-.274v12.335l-5.76.412-5.89.41v-26.314l5.89.411 5.76.411v12.335zm24.25-11.375c.41.959.55 6.715.55 12.746l-.14 10.964-5.75.412-5.89.41v-26.177h5.34c3.02 0 5.62.685 5.89 1.645zm58.8 10.827c2.46 2.466 2.87 4.112 2.33 12.472-.42 7.401-1.1 10.005-3.16 11.512-3.28 2.468-5.48 2.468-8.08-.273-2.74-2.604-3.15-22.341-.55-24.945 2.47-2.466 6.3-1.919 9.46 1.234zm27.82-.685c1.64 1.507 2.19 4.797 2.19 12.197 0 9.32-.27 10.417-3.29 12.335-6.99 4.66-11.65-2.878-10-16.583.96-9.457 6.03-13.021 11.1-7.949zm-135.82 25.081c.55.137.83 5.893.69 12.746l-.41 12.746h-10.97l-.41-11.513c-.27-6.304-.13-12.334.28-13.294.41-.959 2.46-1.37 5.2-1.234 2.47.275 5.07.549 5.62.549zm23.44-.412c1.78.685 2.19 3.153 2.19 12.884v12.061l-4.8.821c-2.74.549-5.48.549-6.16.138-1.51-.959-1.92-24.396-.41-25.766 1.09-1.234 6.3-1.234 9.18-.138zm24.67 0c1.78.685 2.19 3.153 2.19 12.335 0 10.553-.27 11.65-2.88 12.746-1.64.549-4.25.96-5.89.823-2.74-.274-2.88-1.097-3.29-13.431l-.41-13.295h4.11c2.19 0 4.93.411 6.17.822zm-71.82 12.884c0 11.786-.13 12.335-3.29 13.157-7.67 1.919-8.36.823-8.77-12.883l-.41-12.609h12.47v12.335zm133.08 6.442c1.78 4.796 1.5 15.623-.55 19.598-1.92 3.837-6.99 5.208-10.01 2.741-2.05-1.782-2.87-21.243-.82-24.122 2.74-4.111 9.46-3.015 11.38 1.783zm25.76-2.742c2.74 2.193 3.02 3.563 2.61 13.431-.42 10.554-.55 10.965-4.25 12.199-6.31 2.192-8.5-1.372-8.5-13.706 0-8.635.41-10.69 2.6-12.335 3.43-2.467 3.98-2.467 7.54.411zm-26.45 43.584c1.65 2.604 2.06 5.619 1.65 12.472-.55 9.319-1.92 11.512-7.27 11.512-4.93 0-6.16-2.741-6.16-13.706 0-6.304.68-11.101 1.64-12.06 2.74-2.741 7.67-1.919 10.14 1.782z" fill="#856B8E"/><path d="M1536.61 881.143l-97.58 141.977v17.19l153.66-7.49V772.677h-18.55l-37.53 108.466z" fill="#856B8E"/></g><g clip-path="url(#clip4)"><path d="M1775 121h-272v903h272V121z" fill="#fff"/><path d="M1733.19 380.612c-8.91 1.507-16.17 5.619-22.89 12.746-10.28 11.238-9.87 8.086-9.87 86.07v69.761h-30.15l-.27-35.36c-.27-19.325-.82-35.087-1.37-34.949-.69.273-25.77.411-55.92.411h-54.82v48.654c0 46.736-.13 48.655-2.6 48.655-1.37 0-3.84 1.096-5.48 2.329-2.6 2.194-2.88 4.112-3.15 18.914l-.41 16.446-9.46.823c-8.5.685-9.87 1.234-13.43 5.208-3.84 4.249-3.84 4.386-3.84 22.751v18.502l-5.07 3.29c-11.24 7.127-13.98 13.431-14.12 33.304 0 13.98 0 14.116-3.83 16.035-5.62 2.879-15.21 13.843-18.23 20.833-2.33 5.208-3.29 6.03-6.99 6.03-12.2 0-26.31 9.868-30.7 21.517-2.88 7.538-3.15 18.092-.55 25.63 2.06 6.442 12.2 17.68 17.82 20.01 5.07 2.055 5.07 2.878.27 6.442-2.05 1.507-5.34 5.619-7.12 9.045-2.88 5.345-3.98 6.305-8.77 6.99-15.49 2.604-26.04 18.914-21.38 33.03 2.05 6.304 9.59 14.802 15.07 17.132 3.7 1.507 3.98 2.056 3.29 6.715-2.74 17.406 13.98 32.894 31.25 29.056 3.15-.822 6.17-1.096 6.44-.685.41.274-.69 17.68-2.33 38.649-5.07 62.634-5.07 61.954-1.78 67.024 5.21 8.36 14.94 7.26 18.77-1.92 2.33-5.22 1.51-21.246-4.24-84.018-.96-10.963-1.65-20.009-1.51-20.146.27-.274 3.84.274 8.08 1.096l7.82 1.645v111.013l76.47-.82c41.93-.55 58.57-.96 58.57-.96l43.25-57.626 69.63-116.708 42.33-134.177s16.5-104.659 15.68-107.812c0 0-4.87-157.498-12.55-161.335-5.75-3.015 0-10.17 0-10.17l-3.13-18.024-9.58-14.869c0-8.497 3.31-7.06 3.31-7.06-1.92-6.853 3.27-1.848-3.31-6.371l-6.58-13.98c-20.01.137-39.2.685-42.62 1.234zm14.94 46.324c.96 1.371 1.64 6.304 1.64 12.746 0 11.924-1.64 14.939-8.22 14.939-5.89 0-8.23-4.386-8.23-15.487 0-8.087.42-9.731 3.43-12.746 3.7-3.7 8.09-3.564 11.38.548zm34.26 0c2.6 3.426 2.19 22.066-.69 25.218-2.74 3.015-8.36 3.152-11.65.137-1.91-1.782-2.46-4.249-2.46-12.609 0-5.756.55-11.101 1.09-11.924 3.16-4.66 10.28-5.208 13.71-.822zm-35.09 45.091c2.06 1.781 2.47 4.249 2.47 13.157 0 12.061-1.92 16.035-7.67 16.035-5.35 0-8.78-6.03-8.78-15.761 0-6.578.69-9.32 2.88-12.198 3.16-4.111 7.4-4.522 11.1-1.233zm31.52 12.746c-.13 7.949-.27 14.802-.27 15.35 0 2.193-5.62.96-8.22-1.644-4.11-4.112-3.98-22.066.14-26.178 1.5-1.508 4.11-2.604 5.75-2.33 2.74.412 2.88 1.097 2.6 14.802zm-31.24 33.715c2.74 2.741 3.15 24.122.55 26.314-3.84 2.879-7.54 3.016-10.83.412-3.02-2.33-3.29-3.701-3.29-13.569 0-7.127.69-11.649 1.92-13.02 2.33-2.877 8.91-3.015 11.65-.137zm31.11 9.457c.13 6.442.27 13.021.27 14.665.14 2.467-.68 3.289-3.42 3.564-5.49.685-7.95-3.975-7.95-14.803 0-10.279 2.46-15.076 7.67-15.076 3.15 0 3.29.275 3.43 11.65zm-122.39 60.441c2.61 1.782 3.02 3.29 3.02 11.65 0 10.964-1.51 14.939-5.76 14.939-5.75 0-7.95-3.701-7.95-13.979 0-7.539.55-9.869 2.75-12.061 3.29-3.289 3.97-3.289 7.94-.549zm29.06.549c2.19 2.192 2.74 4.522 2.74 11.375 0 9.32-2.47 14.665-6.85 14.665-5.07 0-6.86-3.701-6.86-14.391 0-8.908.42-10.416 3.02-12.198 3.97-2.74 4.66-2.74 7.95.549zm-27.68 41.39c.95.959 1.64 5.756 1.64 12.06 0 6.306-.69 11.102-1.64 12.061-2.61 2.604-9.05 2.057-10.69-.959-2.33-4.385-1.79-19.461.96-22.34 2.46-2.878 7.26-3.289 9.73-.822zm29.05.959c.68 1.508 1.37 6.442 1.37 11.101 0 10.554-1.64 13.706-6.85 13.706s-6.86-3.152-6.86-13.706c0-10.552 1.65-13.705 6.86-13.705 2.6 0 4.52.959 5.48 2.604zm-29.6 40.706c1.64 1.508 2.19 4.797 2.19 12.197 0 13.569-4.39 18.229-10.96 11.65-2.2-2.193-2.75-4.523-2.75-11.65 0-7.127.55-9.457 2.75-11.649 3.29-3.289 5.89-3.427 8.77-.548zm28.5.136c3.43 3.016 3.57 20.284.14 23.985-2.74 3.015-5.62 3.152-8.91.137-3.42-3.015-3.56-20.284-.13-23.984 2.74-3.015 5.61-3.153 8.9-.138zm-159.93 24.396v12.335l-5.76.411-5.75.411-.41-12.471c-.28-6.99-.14-12.883.27-13.158.27-.41 3.01-.548 6.17-.274l5.48.411v12.335zm23.98.138v13.019l-5.75-.411-5.9-.411-.41-10.827c-.27-6.031-.14-11.65.28-12.746.41-1.097 2.87-1.782 6.3-1.782h5.48v13.158zm24.67 0v13.019l-5.76-.411-5.89-.411-.41-10.827c-.27-6.031-.14-11.65.27-12.746.42-1.097 2.88-1.782 6.31-1.782h5.48v13.158zm24.39.273l.42 12.746-5.9-.411-5.89-.411-.41-10.827c-.55-13.98-.14-14.802 6.17-14.254l5.2.411.41 12.746zm89.09 28.096c.41 10.965-1.24 14.665-6.58 14.665-4.94 0-6.86-3.7-6.86-13.568 0-12.06 3.98-17.132 10.28-13.157 2.33 1.371 2.74 3.426 3.16 12.06zm-30.15-11.101c2.46 2.467 2.19 22.203-.28 24.396-3.01 2.467-8.09 1.096-10-2.741-2.06-4.112-2.33-14.939-.41-19.736.96-2.741 2.32-3.564 5.2-3.564 2.06 0 4.53.686 5.49 1.645zm-131.98 18.228v12.336l-5.76.41-5.89.411v-26.314l5.89.411 5.76.411v12.335zm24.67 0v12.336l-5.76.41-5.89.411v-26.314l5.89.411 5.76.411v12.335zm23.98.138v13.019l-5.76-.411-5.89-.41-.41-10.828c-.27-6.031-.14-11.65.27-12.746.42-1.097 2.88-1.782 6.31-1.782h5.48v13.158zm24.67 0v13.019l-5.76-.411-5.89-.41-.41-10.828c-.28-6.031-.14-11.65.27-12.746.41-1.097 2.88-1.782 6.31-1.782h5.48v13.158zm58.66 22.75c.95.96 1.64 5.894 1.64 12.336 0 9.867-.27 10.827-3.56 12.882-3.29 2.193-3.57 2.193-6.03-.273-2.06-2.057-2.74-4.797-2.88-12.609-.14-6.168.41-10.691 1.51-11.924 2.05-2.467 6.99-2.741 9.32-.412zm28.23.549c1.64 1.508 2.19 4.797 2.19 12.197 0 8.772-.41 10.417-2.88 12.199-1.64 1.096-3.97 1.645-5.21 1.233-4.24-1.507-5.62-4.934-5.62-14.253 0-9.868 1.92-13.569 6.86-13.569 1.37 0 3.56.959 4.66 2.193zm-159.8 33.715l-.41 12.746-5.76.411-5.89.412V776.7h12.47l-.41 12.608zm24.26.411v12.335l-5.76.411-5.89.412v-26.315l5.89.411 5.76.412v12.334zm25.08-2.741c.55 14.117 0 15.761-6.58 15.761h-5.48v-26.177l5.89.411 5.76.412.41 9.593zm23.57 2.879v13.02l-5.76-.412-5.89-.411-.41-10.827c-.28-6.03-.14-11.65.27-12.746.41-1.096 2.88-1.781 6.31-1.781h5.48v13.157zm57.7 6.03c2.19 1.233 2.6 3.016 2.6 13.02 0 10.416-.27 11.65-2.88 13.157-2.19 1.097-3.84 1.097-6.17 0-3.15-1.37-3.28-2.192-3.28-13.019 0-9.595.41-11.925 2.46-13.021 3.02-1.782 3.98-1.782 7.27-.137zm28.91.959c3.43 3.015 3.57 20.284.14 23.985-5.76 6.441-11.38.548-11.38-12.198 0-6.853.55-9.183 2.75-11.375 3.29-3.29 5.2-3.427 8.49-.412zm-159.52 28.096l-.41 12.746-5.76.412-5.89.411v-26.177h12.47l-.41 12.608zm24.26.412v12.334l-5.76.412-5.89.411v-26.315l5.89.412 5.76.411v12.335zm24.67 0v12.334l-5.76.412-5.89.411v-26.315l5.89.412 5.76.411v12.335zm23.98 0v13.02h-5.35c-3.56 0-5.61-.686-6.16-2.193-1.1-2.878-1.1-21.792.13-22.888.42-.548 3.29-.959 6.17-.959h5.21v13.02zm58.66 13.431c2.46 2.878 3.28 17.68 1.37 21.518-2.06 3.837-7.13 5.208-10.15 2.741-2.46-2.193-2.74-21.929-.27-24.396 2.19-2.192 7.26-2.056 9.05.137zm28.78-.137c.95.959 1.64 5.756 1.64 12.061 0 10.964-1.23 13.705-6.03 13.705-5.48 0-6.85-2.193-7.4-11.238-.69-11.376 1.1-16.173 6.3-16.173 2.06 0 4.53.685 5.49 1.645zm-160.35 43.172l.41 12.746h-12.47v-12.06c0-6.716.41-12.609.96-13.158.55-.548 3.15-.822 5.89-.548l4.8.411.41 12.609zm24.67 0l.41 12.746h-12.47v-26.177l5.89.411 5.76.411.41 12.609zm24.26-.274v12.335l-5.76.412-5.89.41v-26.314l5.89.411 5.76.411v12.335zm24.25-11.375c.41.959.55 6.715.55 12.746l-.14 10.964-5.75.412-5.89.41v-26.177h5.34c3.02 0 5.62.685 5.89 1.645zm58.8 10.827c2.46 2.466 2.87 4.112 2.33 12.472-.42 7.401-1.1 10.005-3.16 11.512-3.28 2.468-5.48 2.468-8.08-.273-2.74-2.604-3.15-22.341-.55-24.945 2.47-2.466 6.3-1.919 9.46 1.234zm27.82-.685c1.64 1.507 2.19 4.797 2.19 12.197 0 9.32-.27 10.417-3.29 12.335-6.99 4.66-11.65-2.878-10-16.583.96-9.457 6.03-13.021 11.1-7.949zm-135.82 25.081c.55.137.83 5.893.69 12.746l-.41 12.746h-10.97l-.41-11.513c-.27-6.304-.13-12.334.28-13.294.41-.959 2.46-1.37 5.2-1.234 2.47.275 5.07.549 5.62.549zm23.44-.412c1.78.685 2.19 3.153 2.19 12.884v12.061l-4.8.821c-2.74.549-5.48.549-6.16.138-1.51-.959-1.92-24.396-.41-25.766 1.09-1.234 6.3-1.234 9.18-.138zm24.67 0c1.78.685 2.19 3.153 2.19 12.335 0 10.553-.27 11.65-2.88 12.746-1.64.549-4.25.96-5.89.823-2.74-.274-2.88-1.097-3.29-13.431l-.41-13.295h4.11c2.19 0 4.93.411 6.17.822zm-71.82 12.884c0 11.786-.13 12.335-3.29 13.157-7.67 1.919-8.36.823-8.77-12.883l-.41-12.609h12.47v12.335zm133.08 6.442c1.78 4.796 1.5 15.623-.55 19.598-1.92 3.837-6.99 5.208-10.01 2.741-2.05-1.782-2.87-21.243-.82-24.122 2.74-4.111 9.46-3.015 11.38 1.783zm25.76-2.742c2.74 2.193 3.02 3.563 2.61 13.431-.42 10.554-.55 10.965-4.25 12.199-6.31 2.192-8.5-1.372-8.5-13.706 0-8.635.41-10.69 2.6-12.335 3.43-2.467 3.98-2.467 7.54.411zm-26.45 43.584c1.65 2.604 2.06 5.619 1.65 12.472-.55 9.319-1.92 11.512-7.27 11.512-4.93 0-6.16-2.741-6.16-13.706 0-6.304.68-11.101 1.64-12.06 2.74-2.741 7.67-1.919 10.14 1.782z" fill="#856B8E"/><path d="M1732.61 881.143l-97.58 141.977v17.19l153.66-7.49V772.677h-18.55l-37.53 108.466z" fill="#856B8E"/></g><g clip-path="url(#clip5)"><path d="M2738 4H1700v1024h1038V4z" fill="#fff"/><path d="M1828.5 1028l-127-223-42.5 223h169.5zm1264.15-729.601c-10.08 1.709-18.31 6.372-25.91 14.454-11.64 12.744-11.18 9.17-11.18 97.603v79.109h-34.14l-.31-40.098c-.31-21.914-.93-39.788-1.55-39.632-.77.31-29.17.466-63.31.466h-62.08v55.174c0 52.998-.15 55.174-2.95 55.174-1.55 0-4.34 1.243-6.2 2.642-2.95 2.487-3.26 4.663-3.57 21.448l-.47 18.65-10.71.933c-9.62.777-11.17 1.399-15.21 5.906-4.34 4.818-4.34 4.973-4.34 25.799v20.982l-5.74 3.73c-12.73 8.082-15.83 15.231-15.99 37.767 0 15.853 0 16.008-4.34 18.184-6.36 3.264-17.23 15.698-20.64 23.624-2.64 5.906-3.73 6.838-7.92 6.838-13.81 0-29.79 11.191-34.76 24.401-3.26 8.548-3.57 20.516-.62 29.064 2.33 7.305 13.81 20.049 20.18 22.691 5.74 2.331 5.74 3.264.31 7.305-2.33 1.709-6.06 6.372-8.07 10.258-3.26 6.061-4.5 7.149-9.94 7.926-17.53 2.953-29.48 21.448-24.2 37.456 2.32 7.149 10.86 16.785 17.07 19.428 4.19 1.709 4.5 2.331 3.72 7.615-3.1 19.738 15.83 37.301 35.38 32.949 3.57-.932 6.99-1.243 7.3-.777.46.311-.78 20.049-2.64 43.828-5.74 71.024-5.74 70.254-2.02 76.004 5.9 9.48 16.92 8.23 21.26-2.18 2.64-5.91 1.71-24.089-4.81-95.272-1.09-12.433-1.86-22.691-1.71-22.846.31-.311 4.35.311 9.16 1.243l8.85 1.865V1034l86.59-.93c47.49-.62 66.32-1.09 66.32-1.09l48.98-65.348 78.84-132.346 47.93-152.156s18.69-118.684 17.76-122.259c0 0-5.52-178.602-14.21-182.953-6.51-3.42 0-11.533 0-11.533l-3.55-20.44-10.84-16.861c0-9.636 3.74-8.006 3.74-8.006-2.17-7.771 3.7-2.096-3.74-7.225L3140.92 297c-22.66.155-44.39.777-48.27 1.399zm16.92 52.532c1.09 1.554 1.86 7.149 1.86 14.454 0 13.521-1.86 16.94-9.31 16.94-6.67 0-9.31-4.973-9.31-17.562 0-9.17.46-11.035 3.88-14.454 4.19-4.196 9.15-4.041 12.88.622zm38.8 0c2.94 3.885 2.48 25.022-.78 28.597-3.1 3.419-9.47 3.574-13.19.155-2.17-2.02-2.79-4.818-2.79-14.298 0-6.528.62-12.589 1.24-13.522 3.57-5.284 11.64-5.906 15.52-.932zm-39.73 51.133c2.33 2.02 2.79 4.818 2.79 14.92 0 13.677-2.17 18.184-8.69 18.184-6.05 0-9.93-6.838-9.93-17.873 0-7.46.78-10.569 3.26-13.833 3.57-4.662 8.38-5.128 12.57-1.398zm35.69 14.454c-.15 9.014-.31 16.785-.31 17.407 0 2.486-6.36 1.088-9.31-1.865-4.66-4.663-4.5-25.023.15-29.685 1.71-1.71 4.66-2.953 6.52-2.643 3.11.467 3.26 1.244 2.95 16.786zm-35.38 38.233c3.1 3.108 3.57 27.354.62 29.84-4.35 3.264-8.54 3.42-12.26.467-3.41-2.642-3.72-4.197-3.72-15.387 0-8.082.77-13.21 2.17-14.765 2.64-3.263 10.08-3.419 13.19-.155zm35.23 10.724c.15 7.305.31 14.765.31 16.63.15 2.797-.78 3.73-3.88 4.041-6.21.777-9-4.507-9-16.786 0-11.656 2.79-17.096 8.69-17.096 3.57 0 3.72.311 3.88 13.211zm-138.59 68.54c2.95 2.02 3.42 3.73 3.42 13.211 0 12.433-1.71 16.94-6.52 16.94-6.52 0-9-4.196-9-15.852 0-8.549.62-11.191 3.1-13.677 3.73-3.73 4.5-3.73 9-.622zm32.9.622c2.49 2.486 3.11 5.128 3.11 12.899 0 10.569-2.8 16.63-7.76 16.63-5.74 0-7.76-4.196-7.76-16.319 0-10.102.47-11.812 3.41-13.832 4.5-3.108 5.28-3.108 9 .622zm-31.34 46.936c1.08 1.088 1.86 6.528 1.86 13.677 0 7.15-.78 12.589-1.86 13.677-2.95 2.953-10.25 2.332-12.11-1.088-2.64-4.973-2.02-22.069 1.09-25.333 2.79-3.264 8.22-3.73 11.02-.933zm32.9 1.088c.77 1.71 1.55 7.305 1.55 12.589 0 11.968-1.86 15.542-7.76 15.542-5.9 0-7.76-3.574-7.76-15.542 0-11.967 1.86-15.542 7.76-15.542 2.95 0 5.12 1.088 6.21 2.953zm-33.52 46.16c1.86 1.71 2.48 5.44 2.48 13.832 0 15.387-4.97 20.671-12.42 13.211-2.48-2.487-3.1-5.129-3.1-13.211s.62-10.724 3.1-13.21c3.73-3.73 6.68-3.886 9.94-.622zm32.27.155c3.88 3.42 4.04 23.002.16 27.199-3.1 3.419-6.36 3.574-10.09.155-3.88-3.419-4.03-23.002-.15-27.198 3.1-3.419 6.36-3.575 10.08-.156zm-181.1 27.665v13.988l-6.51.466-6.52.466-.47-14.143c-.31-7.926-.15-14.609.31-14.92.31-.466 3.42-.622 6.99-.311l6.2.466v13.988zm27.16.156v14.764l-6.52-.466-6.67-.466-.47-12.278c-.31-6.839-.15-13.211.31-14.454.47-1.244 3.26-2.021 7.14-2.021h6.21v14.921zm27.93 0v14.764l-6.51-.466-6.68-.466-.46-12.278c-.31-6.839-.16-13.211.31-14.454.46-1.244 3.26-2.021 7.14-2.021h6.2v14.921zm27.63.31l.46 14.454-6.67-.466-6.67-.466-.47-12.278c-.62-15.853-.15-16.786 6.98-16.164l5.9.466.47 14.454zm100.87 31.861c.46 12.434-1.4 16.63-7.45 16.63-5.59 0-7.76-4.196-7.76-15.386 0-13.677 4.5-19.428 11.64-14.921 2.64 1.555 3.1 3.886 3.57 13.677zm-34.14-12.589c2.79 2.798 2.48 25.178-.31 27.665-3.42 2.798-9.16 1.243-11.33-3.108-2.33-4.663-2.64-16.941-.47-22.381 1.09-3.108 2.64-4.041 5.9-4.041 2.33 0 5.12.777 6.21 1.865zM2857.7 697.05v13.988l-6.51.466-6.68.466v-29.84l6.68.466 6.51.466v13.988zm27.94 0v13.988l-6.52.466-6.67.466v-29.84l6.67.466 6.52.466v13.988zm27.15.156v14.764l-6.51-.466-6.68-.466-.46-12.278c-.31-6.839-.16-13.211.31-14.454.46-1.244 3.26-2.021 7.14-2.021h6.2v14.921zm27.94 0v14.764l-6.52-.466-6.67-.466-.47-12.278c-.31-6.839-.15-13.211.31-14.454.47-1.244 3.26-2.021 7.14-2.021h6.21v14.921zm66.42 25.799c1.08 1.088 1.86 6.683 1.86 13.988 0 11.19-.31 12.278-4.04 14.609-3.72 2.487-4.03 2.487-6.82-.31-2.33-2.332-3.11-5.44-3.26-14.299-.16-6.994.46-12.123 1.7-13.521 2.33-2.798 7.92-3.109 10.56-.467zm31.97.622c1.86 1.71 2.48 5.44 2.48 13.832 0 9.947-.47 11.812-3.26 13.833-1.86 1.243-4.5 1.865-5.9 1.398-4.81-1.709-6.36-5.595-6.36-16.163 0-11.19 2.17-15.387 7.76-15.387 1.55 0 4.03 1.088 5.28 2.487zm-180.95 38.233l-.47 14.454-6.51.466-6.68.467v-29.685h14.12l-.46 14.298zm27.47.466v13.988l-6.52.466-6.67.467v-29.841l6.67.466 6.52.467v13.987zm28.4-3.108c.62 16.008 0 17.873-7.45 17.873h-6.21v-29.685l6.67.466 6.52.467.47 10.879zm26.69 3.264v14.765l-6.52-.467-6.67-.466-.47-12.278c-.31-6.838-.15-13.211.31-14.454.47-1.243 3.26-2.02 7.14-2.02h6.21v14.92zm65.33 6.838c2.48 1.399 2.95 3.42 2.95 14.765 0 11.812-.31 13.211-3.26 14.92-2.48 1.244-4.35 1.244-6.98 0-3.57-1.554-3.73-2.486-3.73-14.764 0-10.88.47-13.522 2.8-14.765 3.41-2.021 4.5-2.021 8.22-.156zm32.74 1.088c3.88 3.419 4.04 23.002.16 27.199-6.52 7.304-12.88.621-12.88-13.833 0-7.771.62-10.413 3.1-12.899 3.73-3.731 5.9-3.886 9.62-.467zm-180.63 31.861l-.47 14.454-6.51.467-6.68.466v-29.685h14.12l-.46 14.298zm27.47.467v13.987l-6.52.467-6.67.466v-29.841l6.67.467 6.52.466v13.988zm27.93 0v13.987l-6.52.467-6.67.466v-29.841l6.67.467 6.52.466v13.988zm27.16 0V817.5h-6.05c-4.04 0-6.37-.777-6.99-2.486-1.24-3.264-1.24-24.712.16-25.955.46-.622 3.72-1.088 6.98-1.088h5.9v14.765zm66.42 15.231c2.79 3.263 3.72 20.049 1.55 24.401-2.33 4.351-8.07 5.906-11.49 3.108-2.79-2.487-3.1-24.867-.31-27.665 2.49-2.486 8.23-2.331 10.25.156zm32.59-.156c1.08 1.088 1.86 6.528 1.86 13.677 0 12.434-1.4 15.542-6.83 15.542-6.21 0-7.76-2.487-8.38-12.744-.78-12.9 1.24-18.34 7.14-18.34 2.33 0 5.12.777 6.21 1.865zm-181.57 48.957l.46 14.454h-14.12v-13.676c0-7.616.47-14.299 1.09-14.921.62-.621 3.57-.932 6.67-.621l5.43.466.47 14.298zm27.93 0l.47 14.454h-14.12v-29.685l6.67.467 6.52.466.46 14.298zm27.47-.31v13.987l-6.52.467-6.67.466v-29.841l6.67.467 6.52.466v13.988zm27.47-12.9c.46 1.088.62 7.615.62 14.454l-.16 12.433-6.51.467-6.68.466v-29.685h6.05c3.42 0 6.37.777 6.68 1.865zm66.57 12.278c2.8 2.797 3.26 4.663 2.64 14.143-.47 8.393-1.24 11.346-3.57 13.055-3.72 2.798-6.21 2.798-9.15-.31-3.11-2.953-3.57-25.334-.63-28.287 2.8-2.797 7.14-2.176 10.71 1.399zm31.51-.777c1.86 1.709 2.48 5.44 2.48 13.832 0 10.569-.31 11.812-3.73 13.988-7.91 5.284-13.19-3.264-11.32-18.806 1.08-10.724 6.82-14.765 12.57-9.014zm-153.79 28.442c.62.155.93 6.683.77 14.454l-.46 14.454h-12.42l-.46-13.056c-.31-7.149-.16-13.987.31-15.075.46-1.088 2.79-1.554 5.89-1.399 2.8.311 5.75.622 6.37.622zm26.53-.467c2.02.777 2.49 3.575 2.49 14.61v13.677l-5.44.932c-3.1.622-6.2.622-6.98.156-1.71-1.088-2.17-27.665-.46-29.219 1.24-1.399 7.13-1.399 10.39-.156zm27.94 0c2.01.777 2.48 3.575 2.48 13.988 0 11.967-.31 13.211-3.26 14.454-1.86.622-4.81 1.088-6.67.933-3.11-.311-3.26-1.244-3.73-15.231l-.46-15.076h4.65c2.49 0 5.59.466 6.99.932zm-81.32 14.61c0 13.366-.16 13.988-3.73 14.92-8.69 2.176-9.46.933-9.93-14.609l-.46-14.299h14.12v13.988zm150.68 7.305c2.02 5.439 1.71 17.717-.62 22.225-2.17 4.351-7.91 5.906-11.33 3.108-2.32-2.021-3.25-24.09-.93-27.354 3.11-4.662 10.71-3.419 12.88 2.021zm29.18-3.109c3.1 2.487 3.41 4.041 2.95 15.231-.47 11.968-.62 12.434-4.81 13.833-7.14 2.486-9.62-1.555-9.62-15.542 0-9.792.46-12.123 2.94-13.988 3.88-2.798 4.5-2.798 8.54.466zm-29.95 49.424c1.86 2.953 2.33 6.372 1.86 14.143-.62 10.568-2.17 13.055-8.22 13.055-5.59 0-6.99-3.108-6.99-15.542 0-7.149.78-12.589 1.86-13.677 3.11-3.108 8.69-2.176 11.49 2.021z" fill="#856B8E"/><path d="M1706.22 371.291c-8.07 3.575-15.98 11.501-19.55 19.583-2.79 5.906-2.95 14.609-2.95 168.319v162.103l-6.21 6.372c-3.41 3.575-9.53 2.723-9.53 2.723l3.55 15.461 1.77 5.854v5.329l-1.77-8.882c-.47-3.885-1.78-16.719-1.78-23.091l-14.2-28.789-3.55-31.861 10.65 41.111-7.1-3.033 5.33 11.915 62.57 163.414 64.25 101.246 20.53 26.645 19.04 24.87 37.24-.93V919.145l4.66-9.325c7.76-15.231 23.43-23.624 41.28-21.914 10.86.932 19.4 5.284 26.85 13.521 9.77 10.88 9.77 10.88 11.01 72.581l1.25 56.422h244.1c231.54 0 244.26-.16 244.26-2.8 0-4.35-4.03-17.88-6.98-23.47-2.64-5.129-2.64-14.144-1.71-177.179 1.25-184.327 1.25-184.172 9.32-201.113 15.67-33.415 59.12-55.64 92.02-47.092 19.09 4.818 33.06 14.299 42.21 28.753 2.64 4.041 4.81 7.926 4.81 8.392 0 .467-2.33 2.021-5.27 3.42-10.25 4.973-19.56 16.94-19.56 25.644 0 2.797.93 3.108 9.31 3.108s9.47.467 10.71 3.419c1.71 4.352 5.9 8.238 10.55 9.636 5.28 1.71 13.66-2.642 15.83-8.237 2.02-4.662 2.33-4.818 12.11-4.818h10.08l-1.08-4.352c-3.11-12.278-11.64-22.069-22.19-25.177-4.97-1.555-6.52-3.264-11.02-11.812-13.35-25.8-37.87-41.653-67.66-43.673-16.45-1.088-31.97 2.331-48.89 10.568-16.76 8.238-36.77 27.665-44.53 43.362-11.18 22.381-10.56 11.501-9.94 196.295.32 91.232 0 165.833-.62 165.833s-4.65-3.108-8.84-6.994c-8.69-7.771-25.61-16.474-37.71-19.427-4.19-.933-14.59-1.554-22.82-1.399-8.38.311-15.51.155-15.82-.311-1.4-1.243-8.85-75.068-8.07-78.487 1.55-6.217 15.83-20.049 26.07-25.489 16.29-8.548 19.86-11.812 19.86-18.028 0-4.818-.62-5.751-5.74-7.771-6.52-2.798-15.05-1.244-24.52 4.196-5.9 3.575-16.29 16.008-16.29 19.427 0 4.041-2.8 2.176-6.83-4.662-4.66-7.926-13.35-16.008-20.49-18.961-13.03-5.44-27-.622-24.67 8.392 1.4 5.906 2.64 6.994 15.05 13.522 14.59 7.46 23.59 14.765 28.4 23.002l3.72 6.683-4.34 43.051c-2.48 23.624-5.28 43.984-6.21 45.227-.93 1.244-3.88 2.953-6.2 4.041-3.73 1.554-5.44 1.244-10.56-1.243-17.22-8.859-38.79-11.19-59.43-6.217-3.11.622-3.42-2.953-10.87-95.894-3.57-42.74-6.67-80.973-7.29-85.014l-.78-7.305 46.25-.466c40.66-.467 47.02-.777 51.37-3.109 18-9.947 18.31-34.503.62-44.45l-6.21-3.574 3.41-7.305c4.97-10.724 4.81-31.084-.31-40.72-8.69-16.475-18.46-23.779-35.22-26.888-10.09-1.865-10.56-2.175-12.42-7.771-2.79-8.081-10.4-18.65-17.23-24.09-31.65-24.867-76.04-15.075-93.73 20.671-4.81 9.792-4.81 9.792-12.57 10.88-4.34.621-11.48 3.108-16.14 5.439l-8.22 4.352-.47-71.648c-.46-71.649-.46-71.804-4.03-79.109-2.02-4.196-6.52-9.947-10.09-12.9-11.17-9.636-16.45-10.413-71.23-9.791-45.47.466-49.04.621-55.56 3.73-8.69 4.041-16.6 11.812-20.33 20.049-2.63 5.595-2.94 11.035-2.94 50.045v43.828l-48.42.467c-46.56.466-48.89.621-54.94 3.885-3.41 1.865-8.53 5.906-11.17 8.859-2.64 3.108-5.28 5.595-5.59 5.595-.46 0-.77-48.957-.93-108.949 0-117.963.31-113.612-8.53-125.113-2.02-2.797-7.45-6.838-11.95-9.014l-8.07-4.041h-41.9c-37.4 0-42.68.311-48.27 2.953zm23.75 56.884c.46 13.055-.93 16.319-6.83 16.319-5.28 0-8.38-5.595-8.38-15.076 0-13.988 4.34-19.583 11.64-15.231 2.64 1.554 3.1 3.885 3.57 13.988zm29.79-13.211c2.49 2.487 3.11 5.129 3.11 13.521 0 14.299-5.43 20.05-12.73 13.366-2.17-2.02-2.79-4.818-2.79-13.832 0-9.947.46-11.656 3.41-13.677 4.5-3.108 5.28-3.108 9 .622zm31.82-.933c2.17 1.555 3.1 4.508 3.41 11.968.62 11.19-1.71 17.407-6.83 18.184-5.89.932-8.22-3.575-8.22-16.008 0-10.103.46-11.812 3.41-13.833 4.19-2.953 4.5-2.953 8.23-.311zm-63.01 48.18c1.24 1.399 1.71 6.683 1.4 14.144-.47 10.413-.93 12.433-3.88 14.298-3.11 2.176-3.73 2.021-7.45-1.709-3.26-3.264-3.88-5.285-3.88-12.9 0-5.751.93-10.413 2.48-12.589 2.64-3.886 8.69-4.507 11.33-1.244zm32.75.778c.77 1.709 1.55 7.615 1.55 13.21 0 8.237-.62 10.88-3.11 13.366-1.7 1.71-3.72 3.109-4.65 3.109-.78 0-2.95-1.399-4.66-3.109-4.03-4.041-4.5-23.157-.62-27.043 3.26-3.419 9.47-3.108 11.49.467zm31.03-1.399c1.4.932 2.49 4.973 2.8 12.278.62 10.102.31 11.19-3.42 14.92-3.88 3.886-4.5 4.041-7.6 1.865-2.95-1.865-3.42-3.885-3.88-14.298-.31-7.461.15-12.745 1.39-14.144 2.02-2.486 7.3-2.797 10.71-.621zm-65.02 46.626c2.48 1.398 2.95 3.419 2.95 13.987 0 12.279-1.86 17.097-6.83 17.097-5.28 0-6.98-3.886-7.45-16.164-.31-10.413.16-12.434 2.64-14.299 3.57-2.642 4.65-2.642 8.69-.621zm33.05.932c3.57 3.419 3.42 23.313-.15 27.354-3.42 3.73-7.61 3.575-10.4-.622-3.41-4.973-3.41-22.536.16-26.421 3.1-3.419 7.14-3.575 10.39-.311zm32.59.933c2.8 3.885 3.26 17.407 1.09 23.468-2.02 5.284-7.29 6.839-11.17 3.264-3.88-3.575-4.35-23.935-.47-27.665 3.41-3.419 7.76-3.108 10.55.933zm193.36 15.075c2.18 4.197 2.02 23.935-.31 26.266-2.94 2.953-10.24 2.332-12.1-1.088-2.48-4.973-2.02-22.846.93-25.644 3.26-3.419 9.47-3.108 11.48.466zm31.04-1.398c1.71 1.088 2.33 4.507 2.33 13.987 0 9.481-.62 12.9-2.33 13.988-3.26 2.021-8.38 1.865-10.55-.311-2.48-2.486-2.48-24.867 0-27.354 2.17-2.175 7.29-2.331 10.55-.31zm32.28.31c2.48 2.487 2.48 24.868 0 27.354-1.09 1.088-3.26 1.865-5.12 1.865-5.59 0-6.98-3.108-6.98-15.542 0-12.433 1.39-15.542 6.98-15.542 1.86 0 4.03.778 5.12 1.865zm32.59 0c2.48 2.487 2.48 24.868 0 27.354-2.64 2.642-8.38 2.332-11.17-.621-2.95-2.798-3.42-20.671-.93-25.645 1.86-3.419 9.15-4.041 12.1-1.088zm-352.27 45.538c.46 12.9-.93 16.319-6.68 16.319-5.58 0-7.29-3.574-7.29-15.852 0-9.792.47-11.657 3.57-13.988 2.95-2.487 3.72-2.642 6.67-.777 2.8 1.865 3.26 4.041 3.73 14.298zm32.59-.932c.46 12.278-1.24 17.251-6.21 17.251-6.52 0-9-4.196-9-15.541 0-13.522 4.5-19.273 11.64-14.765 2.48 1.554 3.26 3.885 3.57 13.055zm31.5-9.636c2.17 6.061 1.71 19.583-1.09 23.468-2.95 4.196-9.31 4.507-11.48.466-.78-1.709-1.55-7.926-1.55-13.987 0-9.17.46-11.191 3.26-13.056 4.19-2.953 9-1.554 10.86 3.109zm191.34 12.278c3.57 3.419 3.42 23.313-.15 27.354-3.26 3.574-5.9 3.574-9.78-.311-4.19-4.196-4.5-22.38-.46-26.732 3.1-3.419 7.13-3.575 10.39-.311zm32.59.933c3.73 5.439 3.42 22.069-.62 26.11-3.72 3.73-5.9 3.885-9.62.466-3.72-3.419-4.03-23.779-.31-27.509 3.41-3.419 7.76-3.108 10.55.933zm31.66-1.555c1.09 1.088 1.86 6.839 1.86 14.765 0 11.035-.46 13.055-2.95 14.454-7.91 4.196-11.01-.155-11.01-15.386 0-12.589 1.39-15.698 6.98-15.698 1.86 0 4.03.777 5.12 1.865zm31.97.622c1.86 1.71 2.48 5.44 2.48 13.832 0 10.103-.46 11.812-3.41 13.833-4.5 3.108-5.28 3.108-9-.622-4.19-4.196-4.5-22.38-.47-26.732 3.11-3.419 7.14-3.575 10.4-.311zm-353.2 32.016c2.94 2.953 2.48 25.334-.62 28.287-3.11 3.108-5.13 3.108-8.7-.156-2.17-2.02-2.79-4.818-2.79-14.454 0-12.433 1.4-15.542 6.98-15.542 1.87 0 4.04.777 5.13 1.865zm32.9 1.088c.77 1.71 1.55 7.927 1.55 13.988 0 9.481-.47 11.19-3.42 13.211-4.5 3.108-5.27 3.108-9-.622-4.19-4.196-4.5-22.38-.46-26.732 3.26-3.73 9.31-3.575 11.33.155zm31.65-.466c3.11 2.953 3.42 22.07.62 25.8-3.1 3.73-6.82 4.351-10.39 1.865-2.8-2.021-3.26-3.886-3.26-14.454 0-7.15.77-12.745 1.86-13.833 2.64-2.642 8.38-2.331 11.17.622zm224.4 14.61c2.49 2.486 3.11 5.128 3.11 13.521 0 11.035-2.49 16.008-7.92 16.008-5.59 0-7.6-4.352-7.6-16.319 0-10.102.46-11.812 3.41-13.832 4.5-3.109 5.28-3.109 9 .622zm31.66-1.088c2.33 1.709 2.95 4.351 2.95 13.987 0 12.9-1.71 16.63-7.3 16.63-5.74 0-7.13-2.953-7.13-15.386 0-15.076 4.19-20.671 11.48-15.231zm32.59.932c2.02 2.331 2.48 5.284 2.17 15.076-.46 11.812-.62 12.278-4.96 13.832-3.73 1.243-4.81.933-7.3-2.176-4.34-5.284-4.19-22.225.16-26.576 3.88-3.886 6.51-3.886 9.93-.156zm-214.78 18.34c2.79 3.574 3.1 5.906 2.79 17.407l-.46 13.366h-18.62l-.47-14.299c-.31-12.744 0-14.765 2.8-17.562 4.34-4.352 9.93-3.886 13.96 1.088zm29.8-1.555c2.32 2.021 2.79 4.974 2.79 17.874v15.231h-9.31c-8.54 0-9.31-.311-10.24-3.886-1.87-7.615 0-25.178 3.1-28.597 3.57-3.885 9.78-4.196 13.66-.622zm30.72.467c2.8 2.797 3.11 4.818 2.8 17.562l-.47 14.299h-18.62l-.47-14.299c-.31-12.744 0-14.765 2.8-17.562 1.7-1.71 4.81-3.109 6.98-3.109 2.17 0 5.28 1.399 6.98 3.109zm30.42.155c2.33 2.487 3.1 6.217 3.41 16.008.78 15.231-.46 16.941-11.63 16.164l-7.45-.466-.47-14.61c-.31-11.967 0-15.075 2.17-17.407 3.57-3.885 10.25-3.73 13.97.311zm-230.45 13.832c2.48 1.399 2.95 3.42 2.95 14.61 0 14.92-1.86 18.029-9 15.542-4.04-1.399-4.19-2.021-4.66-14.143-.31-9.947.16-13.056 2.02-15.076 2.95-2.953 4.5-3.108 8.69-.933zm33.05.933c1.87 1.71 2.49 5.44 2.49 13.832 0 12.123-2.02 16.319-7.76 16.319-4.97 0-7.76-6.061-7.76-16.63 0-7.771.62-10.413 3.1-12.899 3.73-3.73 6.68-3.886 9.93-.622zm32.59.932c3.42 4.974 3.42 22.536-.15 26.422-3.11 3.419-6.36 3.574-10.09.155-3.88-3.419-4.03-23.002-.15-27.198 3.41-3.73 7.6-3.575 10.39.621zm225.02 14.61c2.95 2.797 3.42 20.671.93 25.644-1.86 3.419-9.15 4.041-12.1 1.088-2.33-2.331-2.48-22.069-.31-26.266 2.02-3.574 8.22-3.885 11.48-.466zm33.06 2.176c2.79 5.439 2.48 18.806-.47 23.002-2.64 3.73-8.22 4.507-11.17 1.554-2.49-2.487-2.49-24.867 0-27.354 3.1-3.108 9.46-1.554 11.64 2.798zm31.19-2.798c2.48 2.487 2.48 24.867 0 27.354-2.95 2.953-8.54 2.176-11.17-1.554-1.56-2.176-2.49-6.839-2.49-12.123 0-5.284.93-9.947 2.49-12.123 2.63-3.73 8.22-4.507 11.17-1.554zm-215.55 20.516c3.1 3.263 3.41 4.973 2.94 17.407l-.46 13.832h-18.62l-.47-14.299c-.31-12.744 0-14.765 2.8-17.562 4.19-4.196 9.46-3.886 13.81.622zm29.79-.777c2.95 2.486 3.73 4.662 4.19 13.987.31 6.062.16 12.745-.31 14.921-.93 3.574-1.7 3.885-10.24 3.885h-9.31v-15.386c0-14.299.31-15.698 3.41-17.874 4.66-3.264 7.92-3.108 12.26.467zm30.88.155c2.8 2.797 3.11 4.818 2.8 17.562l-.47 14.299h-18.62l-.47-13.988c-.31-12.433 0-14.454 2.8-17.562 4.03-4.352 9.93-4.352 13.96-.311zm31.04 1.088c2.8 3.575 3.11 5.906 2.79 17.407l-.46 13.366h-18.62l-.47-14.765c-.46-13.521-.15-14.92 2.95-17.562 4.81-3.886 9.93-3.264 13.81 1.554zm-229.05 13.211c1.55 2.175 2.48 6.838 2.48 12.122 0 9.792-3.1 15.542-8.38 15.542-5.74 0-7.14-2.953-7.14-15.542 0-7.149.78-12.589 1.86-13.677 2.95-2.953 8.54-2.176 11.18 1.555zm31.65-1.555c1.09 1.088 1.87 6.528 1.87 13.677 0 12.589-1.4 15.542-7.14 15.542-5.28 0-8.38-5.75-8.38-15.542 0-5.284.93-9.947 2.48-12.122 2.64-3.731 8.23-4.508 11.17-1.555zm32.9 1.088c.78 1.71 1.56 7.305 1.56 12.589 0 11.968-1.87 15.542-7.76 15.542-5.9 0-7.76-3.574-7.76-15.542 0-11.967 1.86-15.542 7.76-15.542 2.95 0 5.12 1.088 6.2 2.953zm223.78 13.677c3.88 3.419 4.04 23.002.16 27.199-3.11 3.419-6.37 3.574-10.09.155-3.88-3.419-4.03-23.002-.15-27.198 3.1-3.42 6.36-3.575 10.08-.156zm32.9.777c3.73 5.44 3.42 22.07-.62 26.111-7.45 7.46-12.41 2.176-12.41-13.211 0-8.393.62-12.123 2.48-13.832 3.41-3.419 7.76-3.109 10.55.932zm-184.67 21.604c4.04 3.108 4.19 3.73 3.72 17.562l-.46 14.143h-18.62l-.47-14.298c-.31-12.745 0-14.765 2.8-17.563 4.03-4.041 7.75-3.885 13.03.156zm31.35.621c3.57 3.575 3.88 4.818 3.41 17.407l-.46 13.677-9.62.467-9.78.466V752.38c0-14.299.31-15.698 3.41-17.873 4.97-3.42 8.54-3.109 13.04 1.398zm30.1-.777c2.8 2.798 3.11 4.818 2.8 17.563l-.47 14.298h-18.62l-.47-13.366c-.31-11.501 0-13.832 2.8-17.407 4.03-4.973 9.62-5.44 13.96-1.088zm31.04 1.088c2.8 3.575 3.11 5.906 2.79 17.407l-.46 13.366h-18.62l-.47-14.298c-.31-12.745 0-14.765 2.79-17.563 4.35-4.352 9.94-3.885 13.97 1.088zm-229.05 10.102c3.72 5.44 3.41 22.07-.62 26.111-3.73 3.73-5.9 3.885-9.63.466-2.17-2.02-2.79-4.818-2.79-13.21 0-5.906.78-12.123 1.55-13.833 2.18-4.041 8.54-3.73 11.49.466zm30.57-1.865c2.48 1.399 2.95 3.42 2.95 13.833 0 10.102-.47 12.589-3.11 14.92-2.63 2.331-3.72 2.487-6.98 1.088-3.72-1.71-3.88-2.487-3.88-14.765 0-15.853 2.64-19.427 11.02-15.076zm33.05.933c1.87 1.71 2.49 5.44 2.49 13.832 0 10.103-.47 11.812-3.42 13.833-4.5 3.108-5.27 3.108-9-.622-4.19-4.196-4.5-22.38-.46-26.732 3.1-3.419 7.13-3.575 10.39-.311zm72.94 39.632c4.04 3.108 4.19 3.73 3.72 17.562l-.46 14.144h-18.62l-.47-13.677c-.46-12.589-.15-13.833 3.42-17.407 4.81-4.663 6.98-4.818 12.41-.622zm31.35.622c3.57 3.574 3.88 4.818 3.41 17.407l-.46 13.677-9.62.466-9.78.466v-14.92c0-12.745.46-15.231 3.1-17.874 4.19-4.196 8.69-3.885 13.35.778zm30.1-.778c2.64 2.643 3.11 5.129 3.11 17.874v14.92l-9.62-.466-9.78-.466-.47-13.677c-.46-12.589-.15-13.833 3.42-17.407 4.65-4.663 9.15-4.974 13.34-.778zm30.42.778c3.57 3.574 3.88 4.818 3.41 17.407l-.46 13.677h-18.62l-.47-14.299c-.31-12.744 0-14.765 2.79-17.563 4.19-4.196 8.69-3.885 13.35.778zm-229.05 6.993c2.48 2.487 3.1 5.129 3.1 12.9 0 11.191-2.79 16.63-8.54 16.63-5.27 0-6.98-4.196-6.98-16.941 0-9.48.47-11.19 3.42-13.21 4.5-3.109 5.27-3.109 9 .621zm30.1-1.554c3.88 1.399 4.04 2.021 4.04 14.454 0 13.522-1.24 16.63-6.99 16.63-5.74 0-6.98-3.108-6.98-16.63 0-10.568.47-13.055 2.79-14.298 3.26-2.021 2.49-2.021 7.14-.156zm33.21.933c2.95 2.02 3.42 3.73 3.42 13.832 0 12.123-2.02 16.319-7.76 16.319-4.97 0-7.76-6.061-7.76-16.63 0-7.771.62-10.413 3.1-12.9 3.73-3.73 4.5-3.73 9-.621zm-29.64 50.356c2.48 4.973 2.48 16.785 0 21.759-2.17 4.351-7.91 5.905-11.33 3.108-2.79-2.487-3.1-24.867-.31-27.665 3.11-3.108 9.47-1.554 11.64 2.798zm31.19-2.798c1.09 1.088 1.87 6.528 1.87 13.677 0 13.055-1.4 15.542-8.07 15.542-3.26 0-4.81-.932-5.9-4.041-2.02-5.129-2.02-20.204 0-24.09 1.86-3.419 9.16-4.041 12.1-1.088zm391.85 22.536c.77 1.399-6.52 98.847-7.45 99.624-.31.311-4.35-2.953-8.85-7.46-9.77-9.481-29.95-23.313-40.81-27.976-4.19-1.865-7.91-3.574-8.22-3.73-.63-.777-4.97-48.801-4.97-55.795v-5.751h34.76c19.24 0 35.23.466 35.54 1.088z" fill="#856B8E"/><path d="M2285.22 794.498c-3.41 4.818-.62 8.393 10.87 14.921 8.84 4.973 16.13 11.345 20.79 18.65l2.33 3.575 4.96-6.994c3.11-4.352 8.07-8.704 13.04-11.346 15.21-8.237 19.86-13.988 15.05-18.806-2.64-2.642-11.48-2.331-17.84.777-2.95 1.399-7.61 5.44-10.09 8.859-2.48 3.575-4.97 6.217-5.28 6.062-.46-.156-2.95-3.109-5.43-6.528-8.07-11.346-23.43-16.164-28.4-9.17z" fill="#856B8E"/></g><g clip-path="url(#clip6)"><path d="M3092 0h-471v1024h471V0z" fill="#fff"/><path d="M3045.65 294.399c-10.08 1.709-18.31 6.372-25.91 14.454-11.64 12.744-11.17 9.17-11.17 97.603v79.109h-34.15l-.31-40.098c-.31-21.914-.93-39.788-1.55-39.632-.77.31-29.17.466-63.31.466h-62.08v55.174c0 52.998-.15 55.174-2.95 55.174-1.55 0-4.34 1.243-6.2 2.642-2.95 2.487-3.26 4.663-3.57 21.448l-.47 18.65-10.71.933c-9.62.777-11.17 1.399-15.2 5.906-4.35 4.818-4.35 4.973-4.35 25.799v20.982l-5.74 3.73c-12.73 8.082-15.83 15.231-15.99 37.767 0 15.853 0 16.008-4.34 18.184-6.36 3.264-17.23 15.698-20.64 23.624-2.64 5.906-3.73 6.838-7.92 6.838-13.81 0-29.79 11.191-34.76 24.401-3.26 8.548-3.57 20.516-.62 29.064 2.33 7.305 13.81 20.049 20.18 22.691 5.74 2.331 5.74 3.264.31 7.305-2.33 1.709-6.06 6.372-8.07 10.258-3.26 6.061-4.5 7.149-9.94 7.926-17.53 2.953-29.48 21.448-24.2 37.456 2.32 7.149 10.86 16.785 17.07 19.428 4.19 1.709 4.5 2.331 3.72 7.615-3.1 19.738 15.83 37.301 35.38 32.949 3.57-.932 6.99-1.243 7.3-.777.46.311-.78 20.049-2.64 43.828-5.74 71.024-5.74 70.254-2.02 76.004 5.9 9.48 16.92 8.23 21.26-2.18 2.64-5.91 1.71-24.089-4.81-95.272-1.08-12.433-1.86-22.691-1.71-22.846.31-.311 4.35.311 9.16 1.243l8.85 1.865V1030l86.59-.93c47.49-.62 66.32-1.09 66.32-1.09l48.98-65.348 78.84-132.346 47.93-152.156s18.69-118.684 17.76-122.259c0 0-5.52-178.602-14.21-182.953-6.51-3.42 0-11.533 0-11.533l-3.55-20.44-10.84-16.861c0-9.636 3.74-8.006 3.74-8.006-2.17-7.771 3.7-2.096-3.74-7.225L3093.92 293c-22.66.155-44.39.777-48.27 1.399zm16.92 52.532c1.09 1.554 1.86 7.149 1.86 14.454 0 13.521-1.86 16.94-9.31 16.94-6.67 0-9.31-4.973-9.31-17.562 0-9.17.46-11.035 3.88-14.454 4.19-4.196 9.16-4.041 12.88.622zm38.8 0c2.94 3.885 2.48 25.022-.78 28.597-3.1 3.419-9.47 3.574-13.19.155-2.17-2.02-2.79-4.818-2.79-14.298 0-6.528.62-12.589 1.24-13.522 3.57-5.284 11.64-5.906 15.52-.932zm-39.73 51.133c2.33 2.02 2.79 4.818 2.79 14.92 0 13.677-2.17 18.184-8.69 18.184-6.05 0-9.93-6.838-9.93-17.873 0-7.46.77-10.569 3.26-13.833 3.57-4.662 8.38-5.128 12.57-1.398zm35.69 14.454c-.15 9.014-.31 16.785-.31 17.407 0 2.486-6.36 1.088-9.31-1.865-4.66-4.663-4.5-25.023.15-29.685 1.71-1.71 4.66-2.953 6.52-2.643 3.11.467 3.26 1.244 2.95 16.786zm-35.38 38.233c3.1 3.108 3.57 27.354.62 29.84-4.35 3.264-8.54 3.42-12.26.467-3.41-2.642-3.73-4.197-3.73-15.387 0-8.082.78-13.21 2.18-14.765 2.64-3.263 10.09-3.419 13.19-.155zm35.23 10.724c.15 7.305.31 14.765.31 16.63.15 2.797-.78 3.73-3.88 4.041-6.21.777-9-4.507-9-16.786 0-11.656 2.79-17.096 8.69-17.096 3.56 0 3.72.311 3.88 13.211zm-138.58 68.54c2.94 2.02 3.41 3.73 3.41 13.211 0 12.433-1.71 16.94-6.52 16.94-6.52 0-9-4.196-9-15.852 0-8.549.62-11.191 3.1-13.677 3.73-3.73 4.51-3.73 9.01-.622zm32.89.622c2.49 2.486 3.11 5.128 3.11 12.899 0 10.569-2.8 16.63-7.76 16.63-5.74 0-7.76-4.196-7.76-16.319 0-10.102.46-11.812 3.41-13.832 4.5-3.108 5.28-3.108 9 .622zm-31.34 46.936c1.08 1.088 1.86 6.528 1.86 13.677 0 7.15-.78 12.589-1.86 13.677-2.95 2.953-10.25 2.332-12.11-1.088-2.64-4.973-2.02-22.069 1.09-25.333 2.79-3.264 8.22-3.73 11.02-.933zm32.9 1.088c.77 1.71 1.55 7.305 1.55 12.589 0 11.968-1.86 15.542-7.76 15.542-5.9 0-7.76-3.574-7.76-15.542 0-11.967 1.86-15.542 7.76-15.542 2.95 0 5.12 1.088 6.21 2.953zm-33.52 46.16c1.86 1.71 2.48 5.44 2.48 13.832 0 15.387-4.97 20.671-12.42 13.211-2.48-2.487-3.1-5.129-3.1-13.211s.62-10.724 3.1-13.21c3.73-3.73 6.68-3.886 9.94-.622zm32.27.155c3.88 3.42 4.04 23.002.16 27.199-3.1 3.419-6.36 3.574-10.09.155-3.88-3.419-4.03-23.002-.15-27.198 3.1-3.419 6.36-3.575 10.08-.156zm-181.1 27.665v13.988l-6.51.466-6.52.466-.47-14.143c-.31-7.926-.15-14.609.31-14.92.31-.466 3.42-.622 6.99-.311l6.2.466v13.988zm27.16.156v14.764l-6.52-.466-6.67-.466-.47-12.278c-.31-6.839-.15-13.211.31-14.454.47-1.244 3.26-2.021 7.14-2.021h6.21v14.921zm27.93 0v14.764l-6.51-.466-6.68-.466-.46-12.278c-.31-6.839-.16-13.211.31-14.454.46-1.244 3.26-2.021 7.14-2.021h6.2v14.921zm27.63.31l.46 14.454-6.67-.466-6.67-.466-.47-12.278c-.62-15.853-.15-16.786 6.98-16.164l5.9.466.47 14.454zm100.87 31.861c.46 12.434-1.4 16.63-7.45 16.63-5.59 0-7.76-4.196-7.76-15.386 0-13.677 4.5-19.428 11.64-14.921 2.64 1.555 3.1 3.886 3.57 13.677zm-34.14-12.589c2.79 2.798 2.48 25.178-.31 27.665-3.42 2.798-9.16 1.243-11.33-3.108-2.33-4.663-2.64-16.941-.47-22.381 1.09-3.108 2.64-4.041 5.9-4.041 2.33 0 5.12.777 6.21 1.865zM2810.7 693.05v13.988l-6.51.466-6.68.466v-29.84l6.68.466 6.51.466v13.988zm27.94 0v13.988l-6.52.466-6.67.466v-29.84l6.67.466 6.52.466v13.988zm27.15.156v14.764l-6.51-.466-6.68-.466-.46-12.278c-.31-6.839-.16-13.211.31-14.454.46-1.244 3.26-2.021 7.14-2.021h6.2v14.921zm27.94 0v14.764l-6.52-.466-6.67-.466-.47-12.278c-.31-6.839-.15-13.211.31-14.454.47-1.244 3.26-2.021 7.14-2.021h6.21v14.921zm66.42 25.799c1.08 1.088 1.86 6.683 1.86 13.988 0 11.19-.31 12.278-4.04 14.609-3.72 2.487-4.03 2.487-6.82-.31-2.33-2.332-3.11-5.44-3.26-14.299-.16-6.994.46-12.123 1.7-13.521 2.33-2.798 7.92-3.109 10.56-.467zm31.96.622c1.87 1.71 2.49 5.44 2.49 13.832 0 9.947-.47 11.812-3.26 13.833-1.86 1.243-4.5 1.865-5.9 1.398-4.81-1.709-6.36-5.595-6.36-16.163 0-11.19 2.17-15.387 7.76-15.387 1.55 0 4.03 1.088 5.27 2.487zm-180.94 38.233l-.47 14.454-6.51.466-6.68.467v-29.685h14.12l-.46 14.298zm27.47.466v13.988l-6.52.466-6.67.467v-29.841l6.67.466 6.52.467v13.987zm28.4-3.108c.62 16.008-.01 17.873-7.45 17.873h-6.21v-29.685l6.67.466 6.52.467.47 10.879zm26.69 3.264v14.765l-6.52-.467-6.67-.466-.47-12.278c-.31-6.838-.15-13.211.31-14.454.47-1.243 3.26-2.02 7.14-2.02h6.21v14.92zm65.33 6.838c2.48 1.399 2.95 3.42 2.95 14.765 0 11.812-.31 13.211-3.26 14.92-2.48 1.244-4.35 1.244-6.98 0-3.57-1.554-3.73-2.486-3.73-14.764 0-10.88.47-13.522 2.8-14.765 3.41-2.021 4.5-2.021 8.22-.156zm32.74 1.088c3.88 3.419 4.04 23.002.16 27.199-6.52 7.304-12.88.621-12.88-13.833 0-7.771.62-10.413 3.1-12.899 3.73-3.731 5.9-3.886 9.62-.467zm-180.63 31.861l-.47 14.454-6.51.467-6.68.466v-29.685h14.12l-.46 14.298zm27.47.467v13.987l-6.52.467-6.67.466v-29.841l6.67.467 6.52.466v13.988zm27.93 0v13.987l-6.52.467-6.67.466v-29.841l6.67.467 6.52.466v13.988zm27.16 0V813.5h-6.06c-4.03 0-6.36-.777-6.98-2.486-1.24-3.264-1.24-24.712.16-25.955.46-.622 3.72-1.088 6.98-1.088h5.9v14.765zm66.42 15.231c2.79 3.263 3.72 20.049 1.55 24.401-2.33 4.351-8.07 5.906-11.49 3.108-2.79-2.487-3.1-24.867-.31-27.665 2.49-2.486 8.23-2.331 10.25.156zm32.59-.156c1.08 1.088 1.86 6.528 1.86 13.677 0 12.434-1.4 15.542-6.83 15.542-6.21 0-7.76-2.487-8.38-12.744-.78-12.9 1.24-18.34 7.14-18.34 2.33 0 5.12.777 6.21 1.865zm-181.57 48.957l.46 14.454h-14.12v-13.676c0-7.616.47-14.299 1.09-14.921.62-.621 3.57-.932 6.67-.621l5.43.466.47 14.298zm27.93 0l.47 14.454h-14.12v-29.685l6.67.467 6.52.466.46 14.298zm27.47-.31v13.987l-6.52.467-6.67.466v-29.841l6.67.467 6.52.466v13.988zm27.47-12.9c.46 1.088.62 7.615.62 14.454l-.16 12.433-6.52.467-6.67.466v-29.685h6.05c3.42 0 6.37.777 6.68 1.865zm66.57 12.278c2.8 2.797 3.26 4.663 2.64 14.143-.46 8.393-1.24 11.346-3.57 13.055-3.72 2.798-6.21 2.798-9.16-.31-3.1-2.953-3.56-25.334-.62-28.287 2.8-2.797 7.14-2.176 10.71 1.399zm31.5-.777c1.87 1.709 2.49 5.44 2.49 13.832 0 10.569-.31 11.812-3.73 13.988-7.91 5.284-13.19-3.264-11.32-18.806 1.08-10.724 6.82-14.765 12.56-9.014zm-153.78 28.442c.62.155.93 6.683.77 14.454l-.46 14.454h-12.42l-.46-13.056c-.31-7.149-.16-13.987.31-15.075.46-1.088 2.79-1.554 5.89-1.399 2.8.311 5.75.622 6.37.622zm26.53-.467c2.02.777 2.49 3.575 2.49 14.61v13.677l-5.44.932c-3.1.622-6.2.622-6.98.156-1.71-1.088-2.17-27.665-.47-29.219 1.25-1.399 7.14-1.399 10.4-.156zm27.94 0c2.01.777 2.48 3.575 2.48 13.988 0 11.967-.31 13.211-3.26 14.454-1.86.622-4.81 1.088-6.67.933-3.11-.311-3.26-1.244-3.73-15.231l-.46-15.076h4.65c2.49 0 5.59.466 6.99.932zm-81.32 14.61c0 13.366-.16 13.988-3.73 14.92-8.69 2.176-9.46.933-9.93-14.609l-.46-14.299h14.12v13.988zm150.68 7.305c2.02 5.439 1.71 17.717-.62 22.225-2.17 4.351-7.91 5.906-11.33 3.108-2.32-2.021-3.25-24.09-.93-27.354 3.11-4.662 10.71-3.419 12.88 2.021zm29.18-3.109c3.1 2.487 3.41 4.041 2.95 15.231-.47 11.968-.62 12.434-4.81 13.833-7.14 2.486-9.62-1.555-9.62-15.542 0-9.792.46-12.123 2.94-13.988 3.88-2.798 4.5-2.798 8.54.466zm-29.95 49.424c1.86 2.953 2.33 6.372 1.86 14.143-.62 10.568-2.17 13.055-8.22 13.055-5.59 0-6.99-3.108-6.99-15.542 0-7.149.78-12.589 1.86-13.677 3.11-3.108 8.7-2.176 11.49 2.021z" fill="#856B8E"/><path d="M3045 862l-110.5 161v19.5l174-8.5V739h-21L3045 862z" fill="#856B8E"/></g></g><defs><clipPath id="clip0"><path fill="#fff" d="M0 0h3028v1024H0z"/></clipPath><clipPath id="clip1"><path fill="#fff" d="M0 0h1038v1024H0z"/></clipPath><clipPath id="clip2"><path fill="#fff" transform="translate(921)" d="M0 0h471v1024H0z"/></clipPath><clipPath id="clip3"><path fill="#fff" transform="translate(1307 121)" d="M0 0h272v903H0z"/></clipPath><clipPath id="clip4"><path fill="#fff" transform="translate(1503 121)" d="M0 0h272v903H0z"/></clipPath><clipPath id="clip5"><path fill="#fff" transform="translate(1700 4)" d="M0 0h1038v1024H0z"/></clipPath><clipPath id="clip6"><path fill="#fff" transform="translate(2621)" d="M0 0h471v1024H0z"/></clipPath></defs></svg>