<svg width="695" height="117" fill="none" xmlns="http://www.w3.org/2000/svg"><path fill="#856B8E" d="M16.086 18.078h656.828v86.047H16.086z"/><path d="M96.934 35.096c3.744 0 7.056.528 9.936 1.584 2.928 1.008 5.376 2.544 7.344 4.608 2.016 2.064 3.552 4.632 4.608 7.704 1.056 3.024 1.584 6.552 1.584 10.584 0 5.76-1.008 10.608-3.024 14.544-2.016 3.888-4.896 6.84-8.64 8.856C104.998 84.992 100.534 86 95.35 86h-21.6v-6.192l6.48-2.16-1.656 2.376V41.36l1.728 2.52-6.552-2.232v-6.192l17.712-.36h5.472zm-1.008 41.976c1.248 0 2.52-.144 3.816-.432 1.296-.336 2.496-1.032 3.6-2.088 1.104-1.104 1.992-2.784 2.664-5.04.672-2.256 1.008-5.328 1.008-9.216 0-3.744-.336-6.72-1.008-8.928-.624-2.208-1.464-3.816-2.52-4.824-1.008-1.056-2.112-1.728-3.312-2.016a13.052 13.052 0 00-3.528-.504H89.23l1.872-1.872v36.792l-1.872-1.872h6.696zm52.359-2.216h5.768L153.941 86h-29.624v-4.816l4.984-1.68-1.232 1.848V51.28l1.176 1.848-4.928-1.624v-4.816l13.272-.28h15.792v10.696h-5.768l-1.176-5.04 1.736 1.288h-11.816l1.456-1.456v12.096l-1.456-1.456h12.488v6.72h-12.488l1.456-1.736v12.992l-1.456-1.456h12.488l-1.792 1.456 1.232-5.656zm32.735-1.624h5.712V86h-28.728v-4.816l4.816-1.624-1.064 1.792V51.28l1.064 1.792-4.816-1.568v-4.816l17.528-.28v4.816l-4.984 1.848.952-1.792v29.232l-1.456-1.456h10.864l-1.288 1.512 1.4-7.336zm25.623-22.008l-4.704 1.904.952-1.4v29.176l-.952-1.344 4.704 1.624V86h-17.248v-4.816l4.592-1.568-.84 1.288V51.728l1.176 1.456-4.928-1.68v-4.816l17.248-.28v4.816zM222.401 86l-11.704-34.496 2.24 1.68-4.928-1.68v-4.816l17.416-.28v4.816l-5.096 1.736 1.12-2.352 7.672 26.936h-1.344l8.512-26.32.784 1.904-4.704-1.624v-4.816l15.456-.28v4.816l-4.928 1.68 2.184-1.624L232.761 86h-10.36zm50.626-11.144h5.768L278.683 86h-29.624v-4.816l4.984-1.68-1.232 1.848V51.28l1.176 1.848-4.928-1.624v-4.816l13.272-.28h15.792v10.696h-5.768l-1.176-5.04 1.736 1.288h-11.816l1.456-1.456v12.096l-1.456-1.456h12.488v6.72h-12.488l1.456-1.736v12.992l-1.456-1.456h12.488l-1.792 1.456 1.232-5.656zM282.746 86v-4.816l4.928-1.68-1.176 1.848V51.336l1.68 1.96-5.432-1.792v-4.816l13.888-.28h4.872c4.63 0 8.12.97 10.472 2.912 2.352 1.904 3.528 4.648 3.528 8.232 0 3.173-.97 5.824-2.912 7.952-1.904 2.09-4.965 3.397-9.184 3.92l.056-1.12c1.456 0 2.651.187 3.584.56.971.373 1.755.896 2.352 1.568.635.635 1.195 1.419 1.68 2.352l4.312 8.176-2.688-1.736 5.32 1.96V86h-10.304l-5.04-10.64c-.597-1.381-1.12-2.427-1.568-3.136-.41-.71-.896-1.176-1.456-1.4-.56-.224-1.4-.317-2.52-.28l-2.464.056 1.568-1.344v12.096l-1.232-1.848 5.208 1.68V86h-17.472zm13.496-19.712l-1.568-2.408h4.256c2.24 0 3.902-.467 4.984-1.4 1.12-.97 1.68-2.39 1.68-4.256 0-1.53-.429-2.725-1.288-3.584-.858-.896-2.202-1.344-4.032-1.344h-5.6l1.568-1.456v14.448zM325.416 86v-4.816l5.208-1.736-1.288 1.904V70.376l.84 3.192-11.536-21.952 1.736 1.456-4.088-1.568v-4.816l16.184-.28v4.816l-4.48 1.512.728-1.624 7.224 15.792h-1.792l7.392-15.4.672 1.624-4.648-1.624v-4.816l14.952-.28v4.816l-4.144 1.512 1.736-1.4-11.704 22.232.672-3.192v10.976l-1.288-1.904L343 81.184V86h-17.584zm173.223.728c-2.837 0-4.984-.84-6.44-2.52-1.419-1.717-2.128-4.256-2.128-7.616V60.968l1.176 1.176h-5.208V57.16l5.32-1.624-1.288 1.624v-7.784l9.52-1.736v9.52l-.952-1.232h8.456l-.168 6.216h-8.288l.952-1.176v14.336c0 1.568.243 2.707.728 3.416.485.71 1.232 1.064 2.24 1.064.56 0 1.176-.075 1.848-.224.709-.187 1.493-.43 2.352-.728l1.736 5.096c-3.397 1.867-6.683 2.8-9.856 2.8zM524.541 55.2c4.629 0 8.195 1.325 10.696 3.976 2.539 2.613 3.808 6.365 3.808 11.256 0 3.397-.635 6.31-1.904 8.736-1.232 2.427-3.005 4.293-5.32 5.6-2.315 1.307-5.077 1.96-8.288 1.96-4.592 0-8.139-1.307-10.64-3.92-2.464-2.65-3.696-6.421-3.696-11.312 0-3.435.597-6.365 1.792-8.792 1.232-2.427 2.987-4.275 5.264-5.544 2.315-1.307 5.077-1.96 8.288-1.96zm-.392 6.664c-1.792 0-3.08.728-3.864 2.184-.784 1.419-1.176 3.752-1.176 7s.373 5.563 1.12 6.944c.784 1.381 2.035 2.072 3.752 2.072 1.232 0 2.221-.317 2.968-.952.747-.672 1.288-1.68 1.624-3.024.373-1.381.56-3.136.56-5.264 0-3.21-.392-5.507-1.176-6.888-.784-1.381-2.053-2.072-3.808-2.072zm50.929-5.656l12.208-.56v4.816l-3.304 1.232 1.176-.952-6.776 25.368h-10.248l-5.488-22.904 1.792.056-6.328 22.848h-10.248l-6.272-24.976.952.784-3.192-.952v-4.76l13.832-.56v4.816l-3.584 1.176.952-.672 3.976 19.488h-1.512l6.216-24.304 9.576-.504 5.6 25.144h-1.4l4.48-19.6.784.84-3.192-1.064v-4.76zM588.443 86v-4.816l4.536-1.512-1.12 1.344V60.968l1.12 1.512-4.536-1.568v-4.76l10.808-.504 1.176 5.264-1.176-.392c1.792-1.792 3.696-3.117 5.712-3.976 2.016-.896 3.939-1.344 5.768-1.344 2.501 0 4.611.803 6.328 2.408 1.717 1.605 2.557 4.05 2.52 7.336v16.072l-.784-1.288 4.2 1.456V86h-12.88V66.904c0-1.568-.336-2.707-1.008-3.416-.672-.747-1.549-1.12-2.632-1.12-.859 0-1.792.224-2.8.672-.971.448-1.941 1.101-2.912 1.96l.616-1.288v17.472l-.84-1.344 3.752 1.344V86h-15.848z" fill="#fff"/><rect x="62.578" y="66.446" width="26.248" height="7.605" rx="3.802" fill="#fff" stroke="#856B8E"/><rect x="52.5" y="54.5" width="35" height="7.6" rx="3.8" fill="#fff" stroke="#856B8E"/><rect x="61.5" y="42.5" width="23.38" height="7.605" rx="3.802" fill="#fff" stroke="#856B8E"/><circle cx="45.35" cy="58.35" r="3.35" fill="#fff"/><path stroke="#B396BD" stroke-dasharray="5 5" d="M20.889 24.314h644.355v73.574H20.889z"/><g clip-path="url(#clip0)"><path d="M387 62.26l-6.361 1.572a2.59 2.59 0 00-1.905 3.155 2.59 2.59 0 003.156 1.905l6.361-1.572L387 62.26zm51.648-38.685c.789 1.952 2.241 5.659 3.031 7.611.341.76 1.333 1.051 1.967.511 1.846-1.53 2.593-4.092 1.643-6.388-.951-2.296-3.277-3.64-5.625-3.52-.831.053-1.375.954-1.016 1.786zm22.09 57.741c-6.987 1.727-14.05-2.538-15.776-9.524-1.726-6.986 2.538-14.05 9.524-15.776 6.987-1.726 14.05 2.538 15.776 9.525 1.726 6.986-2.538 14.05-9.524 15.775z" fill="#fff"/><path d="M459.344 75.678a7.223 7.223 0 11-3.464-14.024 7.223 7.223 0 013.464 14.024zm-55.206 19.623c-6.986 1.726-14.049-2.538-15.775-9.524-1.727-6.987 2.538-14.05 9.524-15.776 6.986-1.726 14.049 2.538 15.775 9.524 1.727 6.987-2.538 14.05-9.524 15.776z" fill="#fff"/><path d="M402.745 89.663a7.222 7.222 0 11-3.465-14.023 7.222 7.222 0 013.465 14.023z" fill="#fff"/><path d="M396.118 56.633l-.145.035c-1.5.448-22.125 7.614-16.446 30.601.34 1.374 1.782 2.244 3.156 1.905L434.8 76.297c5.494-1.358 10.037-5.011 12.633-10.024l4.957-9.739c.672-1.316.676-2.851.03-4.225-3.071-6.221-7.426-11.741-12.886-16.145l-1.73-1.413-5.421 1.34 10.221 19.64c1.193 6.378-2.87 12.597-9.141 14.223l-8.891 2.197a7.499 7.499 0 01-9.104-5.497c-.625-2.53.104-5.164 1.933-7.073l3.604-3.729c.725-.792 1.053-1.947.803-2.96l-.625-2.53L396.1 56.56l.018.072z" fill="#fff"/><path d="M398.235 61.785c.072-.018.072-.018 0 0 .578-.143 1.137.256 1.262.762a1.018 1.018 0 01-.762 1.262 16.493 16.493 0 00-12.083 20.013 1.017 1.017 0 01-.762 1.262 1.018 1.018 0 01-1.262-.762c-2.464-9.976 3.631-20.072 13.607-22.537zm19.886-7.675l3.33-2.663c.507-.432.725-1.1.582-1.678-.839-3.397-4.282-5.538-7.752-4.68l-10.482 2.59c-3.542.874-7.209 1.55-10.876 1.92-3.542.568-5.754 4.03-4.897 7.499l.607 2.458c.197.795 1.026 1.357 1.893 1.143l22.496-4.562c1.897-.085 3.633-.82 5.099-2.026zm-36.999-14.711l.108.127c1.783 1.63 3.06 3.692 3.631 6.005l.358 1.446c.16.65-.113 1.408-.71 1.786l-.796.503a1.684 1.684 0 01-2.201-.53l-3.937-6.62c-.504-.796-.212-1.788.602-2.22l1.14-.665c.597-.377 1.301-.321 1.805.168z" fill="#fff"/><path d="M377.394 42.314a.805.805 0 00-.256 1.137l7.728 13.584c.701 1.284 2.071 2.173 3.497 2.357l1.986.277-.447-1.807-.469-.038c-1.571-.149-2.941-1.037-3.75-2.448l-7.152-12.806c-.234-.325-.739-.507-1.137-.256zm53.945-7.653l-1.725-2.948a2.343 2.343 0 01.115-2.637l2.393-3.352c.979-1.316 2.336-2.341 3.891-2.879l4.609-1.522c.362-.09.686-.016.902.237l.9 1.158c1.458 1.864 2.445 3.998 2.854 6.275l.232 1.247c.089.36-.129.722-.472.883l-3.001 1.202a3.982 3.982 0 00-1.733 6.027l-6.52.307-2.445-3.998z" fill="#fff"/><path d="M432.412 25.653s1.158-.9 2.327.728c1.152 1.557.027 3.522.027 3.522l-4.975 3.147c-.995.629-2.33.192-2.833-.911-.341-.76-.104-1.662.53-2.202l4.924-4.284zm35.894 35.386l-3.253.803c-7.428 1.912-14.067 6.084-19.139 11.94-.834.972-2.404.516-2.653-.803-.32-1.608-.567-3.848-.326-6.285.374-4.695 2.464-9.276 6.913-11.756 9.242-5.121 16.162.225 19.17 3.394.791 1.031.372 2.439-.712 2.707z" fill="#fff"/><path d="M457.971 56.46s-5.634-.45-9.095 3.857c-2.355 2.883-2.527 6.224-2.527 6.224" stroke="#fff" stroke-width="2.5" stroke-miterlimit="10" stroke-linecap="round"/></g><defs><clipPath id="clip0"><path fill="#fff" transform="scale(-1 1) rotate(13.879 -227.763 -1871.36)" d="M0 0h95.308v95.308H0z"/></clipPath></defs></svg>