<svg width="1440" height="737" fill="none" xmlns="http://www.w3.org/2000/svg"><path d="M129.5 737L2.5 514-40 737h169.5zM1393.65 7.399c-10.08 1.71-18.31 6.372-25.91 14.454-11.64 12.744-11.18 9.17-11.18 97.603v79.109h-34.14l-.31-40.098c-.31-21.915-.93-39.788-1.55-39.632-.77.311-29.17.466-63.31.466h-62.08v55.174c0 52.998-.15 55.174-2.95 55.174-1.55 0-4.34 1.243-6.2 2.642-2.95 2.487-3.26 4.663-3.57 21.448l-.47 18.65-10.71.933c-9.62.777-11.17 1.399-15.21 5.906-4.34 4.818-4.34 4.973-4.34 25.799v20.982l-5.74 3.73c-12.73 8.082-15.83 15.231-15.99 37.767 0 15.853 0 16.008-4.34 18.184-6.36 3.264-17.23 15.698-20.64 23.624-2.64 5.906-3.73 6.838-7.92 6.838-13.81 0-29.79 11.191-34.76 24.401-3.26 8.548-3.57 20.516-.62 29.064 2.33 7.305 13.81 20.049 20.18 22.691 5.74 2.331 5.74 3.264.31 7.305-2.33 1.709-6.06 6.372-8.07 10.258-3.26 6.061-4.5 7.149-9.94 7.926-17.53 2.953-29.48 21.448-24.2 37.456 2.32 7.149 10.86 16.785 17.07 19.428 4.19 1.709 4.5 2.331 3.72 7.615-3.1 19.738 15.83 37.301 35.38 32.949 3.57-.932 6.99-1.243 7.3-.777.46.311-.78 20.049-2.64 43.828-5.74 71.027-5.74 70.25-2.02 76 5.9 9.481 16.92 8.238 21.26-2.175 2.64-5.906 1.71-24.09-4.81-95.273-1.09-12.433-1.86-22.691-1.71-22.846.31-.311 4.35.311 9.16 1.243l8.85 1.865V743l86.59-.933c47.49-.621 66.32-1.087 66.32-1.087l48.98-65.348 78.84-132.346 47.93-152.156s18.69-118.684 17.76-122.259c0 0-5.52-178.602-14.21-182.953-6.51-3.42 0-11.533 0-11.533l-3.55-20.44-10.84-16.861c0-9.636 3.74-8.006 3.74-8.006-2.17-7.771 3.7-2.096-3.74-7.225L1441.92 6c-22.66.155-44.39.777-48.27 1.399zm16.92 52.532c1.09 1.554 1.86 7.149 1.86 14.454 0 13.521-1.86 16.94-9.31 16.94-6.67 0-9.31-4.973-9.31-17.562 0-9.17.46-11.035 3.88-14.454 4.19-4.197 9.15-4.041 12.88.622zm38.8 0c2.94 3.885 2.48 25.022-.78 28.597-3.1 3.42-9.47 3.575-13.19.155-2.17-2.02-2.79-4.818-2.79-14.298 0-6.528.62-12.59 1.24-13.522 3.57-5.284 11.64-5.906 15.52-.932zm-39.73 51.133c2.33 2.02 2.79 4.818 2.79 14.92 0 13.677-2.17 18.184-8.69 18.184-6.05 0-9.93-6.838-9.93-17.873 0-7.46.78-10.569 3.26-13.833 3.57-4.662 8.38-5.128 12.57-1.398zm35.69 14.454c-.15 9.014-.31 16.785-.31 17.407 0 2.486-6.36 1.088-9.31-1.865-4.66-4.663-4.5-25.023.15-29.685 1.71-1.71 4.66-2.953 6.52-2.643 3.11.467 3.26 1.244 2.95 16.786zm-35.38 38.233c3.1 3.108 3.57 27.354.62 29.84-4.35 3.264-8.54 3.42-12.26.467-3.41-2.642-3.72-4.197-3.72-15.387 0-8.082.77-13.21 2.17-14.765 2.64-3.263 10.08-3.419 13.19-.155zm35.23 10.724c.15 7.305.31 14.765.31 16.63.15 2.797-.78 3.73-3.88 4.041-6.21.777-9-4.507-9-16.786 0-11.656 2.79-17.096 8.69-17.096 3.57 0 3.72.311 3.88 13.211zm-138.59 68.54c2.95 2.02 3.42 3.73 3.42 13.211 0 12.433-1.71 16.94-6.52 16.94-6.52 0-9-4.196-9-15.852 0-8.549.62-11.191 3.1-13.677 3.73-3.73 4.5-3.73 9-.622zm32.9.622c2.49 2.486 3.11 5.128 3.11 12.899 0 10.569-2.8 16.63-7.76 16.63-5.74 0-7.76-4.196-7.76-16.319 0-10.102.47-11.812 3.41-13.832 4.5-3.108 5.28-3.108 9 .622zm-31.34 46.936c1.08 1.088 1.86 6.528 1.86 13.677 0 7.15-.78 12.589-1.86 13.677-2.95 2.953-10.25 2.332-12.11-1.088-2.64-4.973-2.02-22.069 1.09-25.333 2.79-3.264 8.22-3.73 11.02-.933zm32.9 1.088c.77 1.71 1.55 7.305 1.55 12.589 0 11.968-1.86 15.542-7.76 15.542-5.9 0-7.76-3.574-7.76-15.542 0-11.967 1.86-15.542 7.76-15.542 2.95 0 5.12 1.088 6.21 2.953zm-33.52 46.16c1.86 1.71 2.48 5.44 2.48 13.832 0 15.387-4.97 20.671-12.42 13.211-2.48-2.487-3.1-5.129-3.1-13.211 0-8.081.62-10.724 3.1-13.21 3.73-3.73 6.68-3.886 9.94-.622zm32.27.155c3.88 3.42 4.04 23.002.16 27.199-3.1 3.419-6.36 3.574-10.09.155-3.88-3.419-4.03-23.002-.15-27.198 3.1-3.419 6.36-3.575 10.08-.156zm-181.1 27.665v13.988l-6.51.466-6.52.466-.47-14.143c-.31-7.926-.15-14.609.31-14.92.31-.466 3.42-.622 6.99-.311l6.2.466v13.988zm27.16.156v14.764l-6.52-.466-6.67-.466-.47-12.278c-.31-6.839-.15-13.211.31-14.454.47-1.244 3.26-2.021 7.14-2.021h6.21v14.921zm27.93 0v14.764l-6.51-.466-6.68-.466-.46-12.278c-.31-6.839-.16-13.211.31-14.454.46-1.244 3.26-2.021 7.14-2.021h6.2v14.921zm27.63.31l.46 14.454-6.67-.466-6.67-.466-.47-12.278c-.62-15.853-.15-16.786 6.98-16.164l5.9.466.47 14.454zm100.87 31.861c.46 12.434-1.4 16.63-7.45 16.63-5.59 0-7.76-4.196-7.76-15.386 0-13.677 4.5-19.428 11.64-14.921 2.64 1.555 3.1 3.886 3.57 13.677zm-34.14-12.589c2.79 2.798 2.48 25.178-.31 27.665-3.42 2.798-9.16 1.243-11.33-3.108-2.33-4.663-2.64-16.941-.47-22.381 1.09-3.108 2.64-4.041 5.9-4.041 2.33 0 5.12.777 6.21 1.865zM1158.7 406.05v13.988l-6.51.466-6.68.466v-29.84l6.68.466 6.51.466v13.988zm27.94 0v13.988l-6.52.466-6.67.466v-29.84l6.67.466 6.52.466v13.988zm27.15.156v14.764l-6.51-.466-6.68-.466-.46-12.278c-.31-6.839-.16-13.211.31-14.454.46-1.244 3.26-2.021 7.14-2.021h6.2v14.921zm27.94 0v14.764l-6.52-.466-6.67-.466-.47-12.278c-.31-6.839-.15-13.211.31-14.454.47-1.244 3.26-2.021 7.14-2.021h6.21v14.921zm66.42 25.799c1.08 1.088 1.86 6.683 1.86 13.988 0 11.19-.31 12.278-4.04 14.609-3.72 2.487-4.03 2.487-6.82-.31-2.33-2.332-3.11-5.44-3.26-14.299-.16-6.994.46-12.123 1.7-13.521 2.33-2.798 7.92-3.109 10.56-.467zm31.97.622c1.86 1.71 2.48 5.44 2.48 13.832 0 9.947-.47 11.812-3.26 13.833-1.86 1.243-4.5 1.865-5.9 1.398-4.81-1.709-6.36-5.595-6.36-16.163 0-11.19 2.17-15.387 7.76-15.387 1.55 0 4.03 1.088 5.28 2.487zm-180.95 38.233l-.47 14.454-6.51.466-6.68.467v-29.685h14.12l-.46 14.298zm27.47.466v13.988l-6.52.466-6.67.467v-29.841l6.67.466 6.52.467v13.987zm28.4-3.108c.62 16.008 0 17.873-7.45 17.873h-6.21v-29.685l6.67.466 6.52.467.47 10.879zm26.69 3.264v14.765l-6.52-.467-6.67-.466-.47-12.278c-.31-6.838-.15-13.211.31-14.454.47-1.243 3.26-2.02 7.14-2.02h6.21v14.92zm65.33 6.838c2.48 1.399 2.95 3.42 2.95 14.765 0 11.812-.31 13.211-3.26 14.92-2.48 1.244-4.35 1.244-6.98 0-3.57-1.554-3.73-2.486-3.73-14.764 0-10.88.47-13.522 2.8-14.765 3.41-2.021 4.5-2.021 8.22-.156zm32.74 1.088c3.88 3.419 4.04 23.002.16 27.199-6.52 7.304-12.88.621-12.88-13.833 0-7.771.62-10.413 3.1-12.899 3.73-3.731 5.9-3.886 9.62-.467zm-180.63 31.861l-.47 14.454-6.51.467-6.68.466v-29.685h14.12l-.46 14.298zm27.47.467v13.987l-6.52.467-6.67.466v-29.841l6.67.467 6.52.466v13.988zm27.93 0v13.987l-6.52.467-6.67.466v-29.841l6.67.467 6.52.466v13.988zm27.16 0V526.5h-6.05c-4.04 0-6.37-.777-6.99-2.486-1.24-3.264-1.24-24.712.16-25.955.46-.622 3.72-1.088 6.98-1.088h5.9v14.765zm66.42 15.231c2.79 3.263 3.72 20.049 1.55 24.401-2.33 4.351-8.07 5.905-11.49 3.108-2.79-2.487-3.1-24.867-.31-27.665 2.49-2.486 8.23-2.331 10.25.156zm32.59-.156c1.08 1.088 1.86 6.528 1.86 13.677 0 12.434-1.4 15.542-6.83 15.542-6.21 0-7.76-2.487-8.38-12.744-.78-12.9 1.24-18.34 7.14-18.34 2.33 0 5.12.777 6.21 1.865zm-181.57 48.957l.46 14.454h-14.12v-13.676c0-7.616.47-14.299 1.09-14.921.62-.621 3.57-.932 6.67-.621l5.43.466.47 14.298zm27.93 0l.47 14.454h-14.12v-29.685l6.67.467 6.52.466.46 14.298zm27.47-.31v13.987l-6.52.467-6.67.466v-29.841l6.67.467 6.52.466v13.988zm27.47-12.9c.46 1.088.62 7.615.62 14.454l-.16 12.433-6.51.467-6.68.466v-29.685h6.05c3.42 0 6.37.777 6.68 1.865zm66.57 12.278c2.8 2.797 3.26 4.663 2.64 14.143-.46 8.393-1.24 11.346-3.57 13.055-3.72 2.798-6.21 2.798-9.15-.31-3.11-2.953-3.57-25.334-.63-28.287 2.8-2.797 7.14-2.176 10.71 1.399zm31.51-.777c1.86 1.709 2.48 5.44 2.48 13.832 0 10.569-.31 11.812-3.73 13.988-7.91 5.284-13.19-3.264-11.32-18.806 1.08-10.724 6.82-14.765 12.57-9.014zm-153.79 28.442c.62.155.93 6.683.77 14.454l-.46 14.454h-12.42l-.46-13.056c-.31-7.149-.16-13.987.31-15.075.46-1.088 2.79-1.554 5.89-1.399 2.8.311 5.75.622 6.37.622zm26.53-.467c2.02.777 2.49 3.575 2.49 14.61v13.677l-5.44.932c-3.1.622-6.2.622-6.98.156-1.71-1.088-2.17-27.665-.46-29.219 1.24-1.399 7.13-1.399 10.39-.156zm27.94 0c2.01.777 2.48 3.575 2.48 13.988 0 11.967-.31 13.211-3.26 14.454-1.86.622-4.81 1.088-6.67.933-3.11-.311-3.26-1.244-3.73-15.231l-.46-15.076h4.65c2.49 0 5.59.466 6.99.932zm-81.32 14.61c0 13.366-.16 13.988-3.73 14.92-8.69 2.176-9.46.933-9.93-14.609l-.46-14.299h14.12v13.988zm150.68 7.305c2.02 5.439 1.71 17.717-.62 22.225-2.17 4.351-7.91 5.906-11.33 3.108-2.32-2.021-3.25-24.09-.93-27.354 3.11-4.662 10.71-3.419 12.88 2.021zm29.18-3.109c3.1 2.487 3.41 4.041 2.95 15.231-.47 11.968-.62 12.434-4.81 13.833-7.14 2.486-9.62-1.555-9.62-15.542 0-9.792.46-12.123 2.94-13.988 3.88-2.798 4.5-2.798 8.54.466zm-29.95 49.424c1.86 2.953 2.33 6.372 1.86 14.143-.62 10.568-2.17 13.055-8.22 13.055-5.59 0-6.99-3.108-6.99-15.542 0-7.149.78-12.589 1.86-13.677 3.11-3.108 8.69-2.176 11.49 2.021z" fill="#856B8E"/><path d="M7.224 80.291C-.846 83.866-8.76 91.792-12.329 99.874c-2.793 5.906-2.949 14.609-2.949 168.319v162.103l-6.207 6.372c-3.414 3.575-9.538 2.723-9.538 2.723l3.551 15.461 1.775 5.854v5.329l-1.775-8.882c-.465-3.885-1.775-16.719-1.775-23.091l-14.202-28.789L-47 373.412l10.652 41.111-7.101-3.033 5.325 11.915L24.45 586.819l64.247 101.246 20.528 26.644 19.044 24.872 37.245-.933V628.145l4.655-9.325c7.76-15.231 23.433-23.624 41.28-21.914 10.863.932 19.398 5.284 26.847 13.521 9.777 10.88 9.777 10.88 11.018 72.581l1.242 56.418h244.107c231.537 0 244.262-.156 244.262-2.798 0-4.352-4.034-17.873-6.983-23.468-2.638-5.129-2.638-14.144-1.707-177.179 1.242-184.327 1.242-184.172 9.311-201.113 15.674-33.415 59.126-55.64 92.025-47.092 19.088 4.818 33.055 14.299 42.211 28.753 2.638 4.041 4.811 7.926 4.811 8.392 0 .467-2.328 2.021-5.277 3.42-10.242 4.973-19.553 16.94-19.553 25.644 0 2.797.931 3.108 9.311 3.108 8.38 0 9.466.467 10.708 3.419 1.707 4.352 5.897 8.238 10.552 9.636 5.277 1.71 13.657-2.642 15.829-8.237 2.018-4.662 2.328-4.818 12.105-4.818h10.087l-1.086-4.352c-3.104-12.278-11.639-22.069-22.192-25.177-4.966-1.555-6.518-3.264-11.018-11.812-13.346-25.8-37.865-41.653-67.661-43.673-16.45-1.088-31.968 2.331-48.884 10.568-16.76 8.238-36.779 27.665-44.538 43.362-11.173 22.381-10.553 11.501-9.932 196.295.311 91.232 0 165.833-.62 165.833-.621 0-4.656-3.108-8.846-6.994-8.691-7.771-25.606-16.474-37.71-19.427-4.19-.933-14.588-1.554-22.813-1.399-8.38.311-15.518.155-15.829-.311-1.396-1.243-8.845-75.068-8.069-78.487 1.552-6.217 15.829-20.049 26.071-25.489 16.295-8.548 19.864-11.812 19.864-18.028 0-4.818-.621-5.751-5.742-7.771-6.518-2.798-15.053-1.244-24.519 4.196-5.898 3.575-16.295 16.008-16.295 19.427 0 4.041-2.793 2.176-6.828-4.662-4.656-7.926-13.346-16.008-20.485-18.961-13.035-5.44-27.002-.622-24.674 8.392 1.396 5.906 2.638 6.994 15.053 13.522 14.587 7.46 23.588 14.765 28.399 23.002l3.724 6.683-4.345 43.051c-2.483 23.624-5.276 43.984-6.207 45.227-.931 1.244-3.88 2.953-6.208 4.041-3.724 1.554-5.431 1.244-10.552-1.243-17.226-8.859-38.797-11.19-59.437-6.217-3.103.622-3.414-2.953-10.863-95.894-3.569-42.74-6.673-80.973-7.293-85.014l-.776-7.305 46.245-.466c40.659-.467 47.021-.777 51.367-3.109 18.001-9.947 18.312-34.503.62-44.45l-6.207-3.574 3.414-7.305c4.966-10.724 4.811-31.084-.31-40.72-8.691-16.474-18.467-23.779-35.228-26.888-10.087-1.865-10.552-2.175-12.414-7.771-2.794-8.081-10.398-18.65-17.226-24.09-31.658-24.867-76.041-15.075-93.732 20.671-4.811 9.792-4.811 9.792-12.57 10.88-4.346.621-11.484 3.108-16.14 5.439l-8.225 4.352-.465-71.648c-.466-71.649-.466-71.804-4.035-79.109-2.017-4.196-6.518-9.947-10.087-12.9-11.173-9.636-16.45-10.413-71.23-9.791-45.47.466-49.039.621-55.557 3.73-8.69 4.041-16.605 11.812-20.329 20.049-2.638 5.595-2.949 11.035-2.949 50.045v43.828l-48.418.467c-46.555.466-48.883.621-54.935 3.885-3.414 1.865-8.536 5.906-11.174 8.859-2.638 3.108-5.276 5.595-5.586 5.595-.466 0-.776-48.957-.932-108.949 0-117.963.311-113.612-8.535-125.113-2.017-2.797-7.449-6.838-11.949-9.014l-8.07-4.041h-41.9c-37.4 0-42.676.31-48.263 2.953zm23.744 56.884c.465 13.055-.931 16.319-6.828 16.319-5.277 0-8.38-5.596-8.38-15.076 0-13.988 4.345-19.583 11.638-15.231 2.639 1.554 3.104 3.885 3.57 13.988zm29.795-13.211c2.483 2.487 3.104 5.129 3.104 13.521 0 14.299-5.431 20.05-12.725 13.367-2.173-2.021-2.794-4.819-2.794-13.833 0-9.947.466-11.656 3.415-13.677 4.5-3.108 5.276-3.108 9 .622zm31.813-.933c2.173 1.555 3.104 4.508 3.415 11.968.62 11.19-1.707 17.407-6.829 18.184-5.897.932-8.225-3.575-8.225-16.008 0-10.103.466-11.812 3.415-13.833 4.19-2.953 4.5-2.953 8.224-.311zm-63.005 48.18c1.241 1.399 1.707 6.683 1.397 14.144-.466 10.413-.931 12.433-3.88 14.298-3.104 2.176-3.724 2.021-7.449-1.709-3.259-3.264-3.88-5.285-3.88-12.9 0-5.751.932-10.413 2.483-12.589 2.639-3.886 8.69-4.507 11.329-1.244zm32.744.778c.776 1.709 1.552 7.615 1.552 13.21 0 8.237-.62 10.88-3.104 13.366-1.707 1.71-3.724 3.109-4.655 3.109-.776 0-2.949-1.399-4.656-3.109-4.035-4.041-4.5-23.157-.62-27.043 3.258-3.419 9.466-3.108 11.483.467zm31.037-1.399c1.397.932 2.483 4.973 2.794 12.278.62 10.102.31 11.19-3.414 14.92-3.88 3.886-4.5 4.041-7.605 1.865-2.948-1.865-3.413-3.885-3.88-14.298-.31-7.461.156-12.745 1.398-14.144 2.017-2.486 7.293-2.797 10.707-.621zM28.33 217.216c2.483 1.398 2.95 3.419 2.95 13.987 0 12.279-1.863 17.097-6.83 17.097-5.275 0-6.983-3.886-7.448-16.164-.31-10.413.155-12.434 2.638-14.299 3.57-2.642 4.656-2.642 8.69-.621zm33.055.932c3.57 3.419 3.414 23.313-.155 27.354-3.414 3.73-7.604 3.575-10.398-.622-3.414-4.973-3.414-22.536.156-26.421 3.103-3.419 7.138-3.575 10.397-.311zm32.59.933c2.792 3.885 3.258 17.407 1.085 23.468-2.017 5.284-7.293 6.839-11.173 3.264-3.88-3.575-4.345-23.935-.465-27.665 3.414-3.419 7.759-3.108 10.552.933zm193.361 15.075c2.172 4.197 2.017 23.935-.311 26.266-2.948 2.953-10.242 2.332-12.104-1.088-2.483-4.973-2.018-22.846.931-25.644 3.259-3.419 9.466-3.108 11.484.466zm31.037-1.398c1.707 1.088 2.328 4.507 2.328 13.987 0 9.481-.621 12.9-2.328 13.988-3.259 2.021-8.38 1.865-10.553-.311-2.483-2.486-2.483-24.867 0-27.354 2.173-2.175 7.294-2.331 10.553-.31zm32.278.31c2.483 2.487 2.483 24.868 0 27.354-1.086 1.088-3.259 1.865-5.121 1.865-5.586 0-6.983-3.108-6.983-15.542 0-12.433 1.397-15.542 6.983-15.542 1.862 0 4.035.778 5.121 1.865zm32.589 0c2.483 2.487 2.483 24.868 0 27.354-2.638 2.642-8.38 2.332-11.173-.621-2.949-2.798-3.414-20.671-.931-25.645 1.862-3.419 9.156-4.041 12.104-1.088zM30.968 278.606c.465 12.9-.931 16.319-6.673 16.319-5.587 0-7.294-3.574-7.294-15.852 0-9.792.465-11.657 3.57-13.988 2.948-2.487 3.724-2.642 6.672-.777 2.794 1.865 3.26 4.041 3.725 14.298zm32.589-.932c.465 12.278-1.242 17.251-6.208 17.251-6.517 0-9-4.196-9-15.541 0-13.522 4.5-19.273 11.638-14.765 2.483 1.554 3.26 3.885 3.57 13.055zm31.502-9.636c2.173 6.061 1.707 19.583-1.086 23.468-2.948 4.196-9.311 4.507-11.484.466-.776-1.709-1.552-7.926-1.552-13.987 0-9.17.466-11.191 3.26-13.056 4.19-2.953 9-1.554 10.862 3.109zm191.345 12.278c3.569 3.419 3.414 23.313-.156 27.354-3.259 3.574-5.897 3.574-9.776-.311-4.19-4.196-4.501-22.38-.466-26.732 3.104-3.419 7.139-3.575 10.398-.311zm32.589.933c3.724 5.439 3.414 22.069-.621 26.11-3.725 3.73-5.897 3.885-9.622.466-3.724-3.419-4.035-23.779-.31-27.509 3.414-3.419 7.759-3.108 10.553.933zm31.657-1.555c1.087 1.088 1.863 6.839 1.863 14.765 0 11.035-.466 13.055-2.949 14.454-7.914 4.196-11.018-.155-11.018-15.386 0-12.589 1.397-15.698 6.983-15.698 1.862 0 4.035.777 5.121 1.865zm31.969.622c1.862 1.71 2.483 5.44 2.483 13.832 0 10.103-.466 11.812-3.414 13.833-4.501 3.108-5.277 3.108-9.001-.622-4.19-4.196-4.501-22.38-.466-26.732 3.104-3.419 7.139-3.575 10.398-.311zM29.416 312.332c2.948 2.953 2.483 25.334-.62 28.287-3.105 3.108-5.122 3.108-8.691-.156-2.173-2.02-2.794-4.818-2.794-14.454 0-12.433 1.397-15.542 6.984-15.542 1.862 0 4.034.777 5.12 1.865zm32.9 1.088c.775 1.71 1.551 7.927 1.551 13.988 0 9.481-.465 11.19-3.414 13.211-4.5 3.108-5.276 3.108-9-.622-4.19-4.196-4.501-22.38-.466-26.732 3.259-3.73 9.31-3.575 11.328.155zm31.657-.466c3.104 2.953 3.414 22.07.62 25.8-3.103 3.73-6.827 4.351-10.397 1.865-2.793-2.021-3.258-3.886-3.258-14.454 0-7.15.775-12.745 1.862-13.833 2.638-2.642 8.38-2.331 11.173.622zm224.399 14.61c2.483 2.486 3.103 5.128 3.103 13.521 0 11.035-2.483 16.008-7.914 16.008-5.587 0-7.604-4.352-7.604-16.319 0-10.102.465-11.812 3.414-13.832 4.5-3.109 5.276-3.109 9.001.622zm31.658-1.088c2.327 1.709 2.948 4.351 2.948 13.987 0 12.9-1.707 16.63-7.294 16.63-5.741 0-7.138-2.953-7.138-15.386 0-15.076 4.19-20.671 11.484-15.231zm32.589.932c2.017 2.331 2.483 5.284 2.172 15.076-.465 11.812-.62 12.278-4.966 13.832-3.724 1.244-4.81.933-7.293-2.176-4.346-5.284-4.19-22.225.155-26.576 3.879-3.886 6.518-3.886 9.932-.156zm-214.777 18.34c2.793 3.574 3.103 5.906 2.793 17.407l-.466 13.366h-18.622l-.465-14.299c-.311-12.744 0-14.765 2.793-17.562 4.345-4.352 9.932-3.886 13.967 1.088zm29.795-1.555c2.328 2.021 2.794 4.974 2.794 17.874v15.231h-9.312c-8.535 0-9.311-.311-10.242-3.886-1.862-7.615 0-25.178 3.104-28.597 3.569-3.885 9.777-4.196 13.656-.622zm30.727.467c2.793 2.797 3.104 4.818 2.793 17.562l-.465 14.299H212.07l-.466-14.299c-.31-12.744 0-14.765 2.793-17.562 1.707-1.71 4.811-3.109 6.984-3.109 2.172 0 5.276 1.399 6.983 3.109zm30.416.155c2.328 2.487 3.104 6.217 3.414 16.008.776 15.231-.465 16.941-11.638 16.164l-7.449-.466-.466-14.61c-.31-11.967 0-15.075 2.173-17.407 3.569-3.885 10.242-3.73 13.966.311zM28.33 358.647c2.483 1.399 2.948 3.42 2.948 14.61 0 14.92-1.862 18.029-9 15.542-4.036-1.399-4.19-2.021-4.656-14.143-.31-9.947.155-13.056 2.017-15.076 2.949-2.953 4.5-3.108 8.69-.933zm33.054.933c1.862 1.71 2.483 5.44 2.483 13.832 0 12.123-2.017 16.319-7.76 16.319-4.965 0-7.758-6.061-7.758-16.63 0-7.771.62-10.413 3.103-12.899 3.725-3.73 6.673-3.886 9.932-.622zm32.59.932c3.413 4.974 3.413 22.536-.156 26.422-3.104 3.419-6.363 3.574-10.087.155-3.88-3.419-4.035-23.002-.155-27.198 3.414-3.73 7.604-3.575 10.397.621zm225.019 14.61c2.948 2.797 3.414 20.671.931 25.644-1.863 3.419-9.156 4.041-12.105 1.088-2.328-2.331-2.483-22.069-.31-26.266 2.017-3.574 8.225-3.885 11.484-.466zm33.054 2.176c2.793 5.439 2.483 18.806-.465 23.002-2.639 3.73-8.225 4.507-11.174 1.554-2.483-2.487-2.483-24.867 0-27.354 3.104-3.108 9.467-1.554 11.639 2.798zm31.192-2.798c2.483 2.487 2.483 24.867 0 27.354-2.948 2.953-8.535 2.176-11.173-1.554-1.552-2.176-2.483-6.839-2.483-12.123 0-5.284.931-9.947 2.483-12.123 2.638-3.73 8.225-4.507 11.173-1.554zm-215.553 20.516c3.104 3.263 3.415 4.973 2.949 17.407l-.466 13.832h-18.622l-.465-14.299c-.311-12.744 0-14.765 2.793-17.562 4.19-4.196 9.466-3.886 13.811.622zm29.796-.777c2.949 2.486 3.725 4.662 4.19 13.987.31 6.062.155 12.745-.31 14.921-.931 3.574-1.707 3.885-10.243 3.885h-9.311v-15.386c0-14.299.311-15.698 3.414-17.874 4.656-3.264 7.915-3.108 12.26.467zm30.882.155c2.793 2.797 3.104 4.818 2.793 17.562l-.465 14.299H212.07l-.466-13.988c-.31-12.433 0-14.454 2.793-17.562 4.035-4.352 9.932-4.352 13.967-.311zm31.037 1.088c2.794 3.575 3.104 5.906 2.793 17.407l-.465 13.366h-18.622l-.466-14.765c-.465-13.521-.155-14.92 2.949-17.562 4.81-3.886 9.932-3.264 13.811 1.554zM30.347 408.693c1.552 2.175 2.483 6.838 2.483 12.122 0 9.792-3.104 15.542-8.38 15.542-5.742 0-7.139-2.953-7.139-15.542 0-7.149.776-12.589 1.863-13.677 2.948-2.953 8.535-2.176 11.173 1.555zm31.658-1.555c1.086 1.088 1.862 6.528 1.862 13.677 0 12.589-1.397 15.542-7.139 15.542-5.276 0-8.38-5.75-8.38-15.542 0-5.284.932-9.947 2.483-12.122 2.639-3.731 8.225-4.508 11.174-1.555zm32.9 1.088c.775 1.71 1.551 7.305 1.551 12.589 0 11.968-1.862 15.542-7.76 15.542-5.896 0-7.758-3.574-7.758-15.542 0-11.967 1.862-15.542 7.759-15.542 2.948 0 5.12 1.088 6.207 2.953zm223.777 13.677c3.88 3.419 4.035 23.002.155 27.199-3.103 3.419-6.362 3.574-10.087.155-3.879-3.419-4.035-23.002-.155-27.198 3.104-3.42 6.363-3.575 10.087-.156zm32.9.777c3.724 5.44 3.414 22.07-.621 26.111-7.449 7.46-12.415 2.176-12.415-13.211 0-8.393.621-12.123 2.483-13.832 3.414-3.419 7.759-3.109 10.553.932zM166.91 444.284c4.035 3.108 4.191 3.73 3.725 17.562l-.466 14.143h-18.622l-.465-14.298c-.311-12.745 0-14.765 2.793-17.563 4.035-4.041 7.759-3.885 13.035.156zm31.348.621c3.569 3.575 3.88 4.818 3.414 17.407l-.465 13.677-9.622.467-9.777.466V461.38c0-14.299.311-15.698 3.414-17.873 4.966-3.42 8.536-3.109 13.036 1.398zm30.106-.777c2.793 2.798 3.104 4.818 2.793 17.563l-.465 14.298H212.07l-.466-13.366c-.31-11.501 0-13.832 2.793-17.407 4.035-4.973 9.622-5.44 13.967-1.088zm31.037 1.088c2.794 3.575 3.104 5.906 2.793 17.407l-.465 13.366h-18.622l-.466-14.298c-.31-12.745 0-14.765 2.793-17.563 4.346-4.352 9.932-3.885 13.967 1.088zM30.347 455.318c3.724 5.44 3.414 22.07-.62 26.111-3.725 3.73-5.898 3.885-9.622.466-2.173-2.02-2.794-4.818-2.794-13.21 0-5.906.776-12.123 1.552-13.833 2.173-4.041 8.535-3.73 11.484.466zm30.572-1.865c2.483 1.399 2.948 3.42 2.948 13.833 0 10.102-.465 12.589-3.104 14.92-2.638 2.331-3.724 2.487-6.983 1.088-3.724-1.71-3.88-2.487-3.88-14.765 0-15.853 2.639-19.427 11.019-15.076zm33.054.933c1.862 1.71 2.483 5.44 2.483 13.832 0 10.103-.465 11.812-3.414 13.833-4.5 3.108-5.276 3.108-9-.622-4.19-4.196-4.501-22.38-.466-26.732 3.103-3.419 7.138-3.575 10.397-.311zm72.937 39.632c4.035 3.108 4.191 3.73 3.725 17.562l-.466 14.144h-18.622l-.465-13.677c-.466-12.589-.156-13.833 3.414-17.407 4.81-4.663 6.983-4.818 12.414-.622zm31.348.622c3.569 3.574 3.88 4.818 3.414 17.407l-.465 13.677-9.622.466-9.777.466v-14.92c0-12.745.466-15.231 3.104-17.873 4.19-4.197 8.69-3.886 13.346.777zm30.106-.777c2.638 2.642 3.104 5.128 3.104 17.873v14.92l-9.622-.466-9.776-.466-.466-13.677c-.466-12.589-.155-13.833 3.414-17.407 4.656-4.663 9.156-4.974 13.346-.777zm30.416.777c3.57 3.574 3.88 4.818 3.414 17.407l-.465 13.677h-18.622l-.466-14.299c-.31-12.744 0-14.765 2.793-17.562 4.19-4.197 8.691-3.886 13.346.777zm-229.054 6.993c2.483 2.487 3.104 5.129 3.104 12.9 0 11.191-2.793 16.63-8.535 16.63-5.277 0-6.984-4.196-6.984-16.94 0-9.481.466-11.191 3.414-13.211 4.5-3.109 5.277-3.109 9.001.621zm30.106-1.554c3.88 1.399 4.035 2.021 4.035 14.454 0 13.522-1.241 16.63-6.983 16.63-5.742 0-6.984-3.108-6.984-16.63 0-10.568.466-13.055 2.794-14.298 3.259-2.021 2.483-2.021 7.138-.156zm33.21.933c2.949 2.02 3.414 3.73 3.414 13.832 0 12.123-2.017 16.319-7.76 16.319-4.965 0-7.758-6.061-7.758-16.63 0-7.771.62-10.413 3.103-12.9 3.725-3.73 4.5-3.73 9.001-.621zm-29.64 50.356c2.483 4.973 2.483 16.785 0 21.759-2.173 4.351-7.915 5.905-11.329 3.108-2.793-2.487-3.104-24.867-.31-27.665 3.103-3.108 9.466-1.554 11.639 2.798zm31.192-2.798c1.086 1.088 1.862 6.528 1.862 13.677 0 13.055-1.397 15.542-8.07 15.542-3.258 0-4.81-.932-5.897-4.041-2.017-5.129-2.017-20.204 0-24.09 1.863-3.419 9.156-4.041 12.105-1.088zm391.844 22.536c.776 1.399-6.518 98.847-7.449 99.624-.31.311-4.345-2.953-8.846-7.46-9.776-9.481-29.95-23.313-40.813-27.976-4.19-1.865-7.915-3.574-8.225-3.73-.621-.777-4.966-48.801-4.966-55.795v-5.751H450.9c19.244 0 35.228.466 35.538 1.088z" fill="#856B8E"/><path d="M586.222 503.498c-3.414 4.818-.621 8.393 10.863 14.921 8.846 4.973 16.139 11.345 20.795 18.65l2.328 3.575 4.966-6.994c3.103-4.352 8.069-8.704 13.035-11.346 15.208-8.237 19.864-13.988 15.053-18.806-2.638-2.642-11.484-2.331-17.846.777-2.949 1.399-7.604 5.44-10.087 8.859-2.483 3.575-4.966 6.217-5.277 6.062-.465-.156-2.948-3.109-5.431-6.528-8.07-11.346-23.433-16.164-28.399-9.17zM1393 575l-110.5 161v19.5l174-8.5V452h-21L1393 575z" fill="#856B8E"/></svg>