<svg width="339" height="57" fill="none" xmlns="http://www.w3.org/2000/svg"><path fill="#856B8E" d="M8.855 8.746h320.291v41.632H8.855z"/><path d="M44.17 17.548c1.871 0 3.527.264 4.967.792 1.464.504 2.688 1.272 3.672 2.304 1.008 1.032 1.776 2.316 2.304 3.852.528 1.512.792 3.276.792 5.292 0 2.88-.504 5.304-1.512 7.272-1.008 1.944-2.448 3.42-4.32 4.428C48.201 42.496 45.97 43 43.377 43h-10.8v-3.096l3.24-1.08-.828 1.188V20.68l.864 1.26-3.276-1.116v-3.096l8.856-.18h2.736zm-.505 20.988c.624 0 1.26-.072 1.908-.216.648-.168 1.248-.516 1.8-1.044.552-.552.996-1.392 1.332-2.52.336-1.128.504-2.664.504-4.608 0-1.872-.168-3.36-.504-4.464-.312-1.104-.732-1.908-1.26-2.412-.504-.528-1.056-.864-1.656-1.008a6.525 6.525 0 00-1.764-.252h-3.708l.936-.936v18.396l-.936-.936h3.348zm26.18-1.108h2.884L72.673 43H57.86v-2.408l2.492-.84-.616.924V25.64l.588.924-2.464-.812v-2.408l6.636-.14h7.896v5.348h-2.884l-.588-2.52.868.644H63.88l.728-.728v6.048l-.728-.728h6.244v3.36H63.88l.728-.868v6.496l-.728-.728h6.244l-.896.728.616-2.828zm16.367-.812h2.856V43H74.704v-2.408l2.408-.812-.532.896V25.64l.532.896-2.408-.784v-2.408l8.764-.14v2.408l-2.492.924.476-.896v14.616l-.728-.728h5.432l-.644.756.7-3.668zm12.812-11.004l-2.352.952.476-.7v14.588l-.476-.672 2.352.812V43H90.4v-2.408l2.296-.784-.42.644V25.864l.588.728-2.464-.84v-2.408l8.624-.14v2.408zM106.903 43l-5.852-17.248 1.12.84-2.464-.84v-2.408l8.708-.14v2.408l-2.548.868.56-1.176 3.836 13.468h-.672l4.256-13.16.392.952-2.352-.812v-2.408l7.728-.14v2.408l-2.464.84 1.092-.812-6.16 17.36h-5.18zm25.313-5.572h2.884L135.044 43h-14.812v-2.408l2.492-.84-.616.924V25.64l.588.924-2.464-.812v-2.408l6.636-.14h7.896v5.348h-2.884l-.588-2.52.868.644h-5.908l.728-.728v6.048l-.728-.728h6.244v3.36h-6.244l.728-.868v6.496l-.728-.728h6.244l-.896.728.616-2.828zm4.86 5.572v-2.408l2.464-.84-.588.924V25.668l.84.98-2.716-.896v-2.408l6.944-.14h2.436c2.314 0 4.06.485 5.236 1.456 1.176.952 1.764 2.324 1.764 4.116 0 1.587-.486 2.912-1.456 3.976-.952 1.045-2.483 1.699-4.592 1.96l.028-.56c.728 0 1.325.093 1.792.28.485.187.877.448 1.176.784.317.317.597.71.84 1.176l2.156 4.088-1.344-.868 2.66.98V43h-5.152l-2.52-5.32c-.299-.69-.56-1.213-.784-1.568-.206-.355-.448-.588-.728-.7-.28-.112-.7-.159-1.26-.14l-1.232.028.784-.672v6.048l-.616-.924 2.604.84V43h-8.736zm6.748-9.856l-.784-1.204h2.128c1.12 0 1.95-.233 2.492-.7.56-.485.84-1.195.84-2.128 0-.765-.215-1.363-.644-1.792-.43-.448-1.102-.672-2.016-.672h-2.8l.784-.728v7.224zM158.41 43v-2.408l2.604-.868-.644.952v-5.488l.42 1.596-5.768-10.976.868.728-2.044-.784v-2.408l8.092-.14v2.408l-2.24.756.364-.812 3.612 7.896h-.896l3.696-7.7.336.812-2.324-.812v-2.408l7.476-.14v2.408l-2.072.756.868-.7-5.852 11.116.336-1.596v5.488l-.644-.952 2.604.868V43h-8.792zm86.612.364c-1.419 0-2.492-.42-3.22-1.26-.709-.859-1.064-2.128-1.064-3.808v-7.812l.588.588h-2.604V28.58l2.66-.812-.644.812v-3.892l4.76-.868v4.76l-.476-.616h4.228l-.084 3.108h-4.144l.476-.588v7.168c0 .784.121 1.353.364 1.708s.616.532 1.12.532c.28 0 .588-.037.924-.112.355-.093.747-.215 1.176-.364l.868 2.548c-1.699.933-3.341 1.4-4.928 1.4zM257.973 27.6c2.314 0 4.097.663 5.348 1.988 1.269 1.307 1.904 3.183 1.904 5.628 0 1.699-.318 3.155-.952 4.368-.616 1.213-1.503 2.147-2.66 2.8-1.158.653-2.539.98-4.144.98-2.296 0-4.07-.653-5.32-1.96-1.232-1.325-1.848-3.21-1.848-5.656 0-1.717.298-3.183.896-4.396.616-1.213 1.493-2.137 2.632-2.772 1.157-.653 2.538-.98 4.144-.98zm-.196 3.332c-.896 0-1.54.364-1.932 1.092-.392.71-.588 1.876-.588 3.5s.186 2.781.56 3.472c.392.69 1.017 1.036 1.876 1.036.616 0 1.11-.159 1.484-.476.373-.336.644-.84.812-1.512.186-.69.28-1.568.28-2.632 0-1.605-.196-2.753-.588-3.444-.392-.69-1.027-1.036-1.904-1.036zm25.464-2.828l6.104-.28v2.408l-1.652.616.588-.476-3.388 12.684h-5.124l-2.744-11.452.896.028-3.164 11.424h-5.124l-3.136-12.488.476.392-1.596-.476v-2.38l6.916-.28v2.408l-1.792.588.476-.336 1.988 9.744h-.756l3.108-12.152 4.788-.252 2.8 12.572h-.7l2.24-9.8.392.42-1.596-.532v-2.38zM289.924 43v-2.408l2.268-.756-.56.672V30.484l.56.756-2.268-.784v-2.38l5.404-.252.588 2.632-.588-.196c.896-.896 1.848-1.559 2.856-1.988 1.008-.448 1.969-.672 2.884-.672 1.25 0 2.305.401 3.164 1.204.858.803 1.278 2.025 1.26 3.668v8.036l-.392-.644 2.1.728V43h-6.44v-9.548c0-.784-.168-1.353-.504-1.708-.336-.373-.775-.56-1.316-.56-.43 0-.896.112-1.4.336-.486.224-.971.55-1.456.98l.308-.644v8.736l-.42-.672 1.876.672V43h-7.924z" fill="#fff"/><rect x="28.25" y="32.25" width="12.787" height="3.663" rx="1.832" fill="#fff" stroke="#856B8E" stroke-width=".5"/><rect x="23.25" y="27.25" width="17.055" height="3.661" rx="1.83" fill="#fff" stroke="#856B8E" stroke-width=".5"/><rect x="27.25" y="22.25" width="11.389" height="3.663" rx="1.832" fill="#fff" stroke="#856B8E" stroke-width=".5"/><circle cx="19.5" cy="29.5" r="1.5" fill="#fff"/><path stroke="#B396BD" stroke-dasharray="5 5" d="M11.453 12.022h313.696v35.081H11.453z"/><g clip-path="url(#clip0)"><path d="M189.703 30.123l-3.102.76a1.252 1.252 0 00-.928 1.527c.174.7.868 1.086 1.538.921l3.102-.76-.61-2.448zm25.185-18.717c.385.945 1.093 2.738 1.478 3.683.166.367.65.508.959.247.901-.74 1.265-1.98.802-3.091-.464-1.11-1.598-1.76-2.743-1.703-.405.026-.671.462-.496.864zm10.772 27.937c-3.407.835-6.851-1.228-7.693-4.608-.841-3.38 1.238-6.798 4.645-7.633 3.407-.835 6.851 1.228 7.692 4.608.842 3.38-1.237 6.798-4.644 7.633z" fill="#fff"/><path d="M224.981 36.615c-1.889.463-3.798-.68-4.264-2.554-.467-1.874.686-3.768 2.574-4.231 1.888-.463 3.797.68 4.264 2.554.467 1.874-.686 3.768-2.574 4.23zm-26.921 9.494c-3.407.835-6.851-1.228-7.693-4.608-.841-3.38 1.238-6.798 4.645-7.633 3.407-.835 6.851 1.228 7.693 4.608.841 3.38-1.238 6.798-4.645 7.633z" fill="#fff"/><path d="M197.381 43.38c-1.888.464-3.797-.68-4.264-2.553-.466-1.874.686-3.768 2.574-4.231 1.889-.463 3.798.68 4.264 2.554.467 1.874-.686 3.768-2.574 4.23z" fill="#fff"/><path d="M194.149 27.4l-.07.017c-.732.217-10.789 3.684-8.02 14.806a1.288 1.288 0 001.539.922l25.414-6.23a9.477 9.477 0 006.161-4.85l2.417-4.712a2.29 2.29 0 00.014-2.045 23.234 23.234 0 00-6.283-7.81l-.844-.685-2.644.649 4.985 9.502c.581 3.086-1.4 6.095-4.458 6.882l-4.335 1.062a3.66 3.66 0 01-4.44-2.66c-.305-1.223.051-2.498.943-3.422l1.757-1.803c.354-.384.514-.943.392-1.432l-.305-1.224-12.231 2.998.008.035z" fill="#fff"/><path d="M195.182 29.893c.035-.009.035-.009 0 0a.519.519 0 01.615.369c.07.28-.09.541-.372.61-4.335 1.063-6.963 5.381-5.891 9.683a.493.493 0 01-.372.61.496.496 0 01-.615-.368c-1.202-4.827 1.77-9.711 6.635-10.904zm9.697-3.713l1.624-1.289a.826.826 0 00.284-.812 3.125 3.125 0 00-3.781-2.264l-5.111 1.253c-1.727.423-3.516.75-5.304.929a2.933 2.933 0 00-2.387 3.628l.296 1.19c.095.384.5.656.923.552l10.97-2.207c.924-.04 1.771-.397 2.486-.98zm-18.042-7.118l.053.061c.869.79 1.492 1.787 1.77 2.906l.175.7a.81.81 0 01-.346.864l-.388.243a.826.826 0 01-1.074-.256l-1.92-3.203a.745.745 0 01.294-1.074l.556-.322a.696.696 0 01.88.081z" fill="#fff"/><path d="M185.019 20.473a.388.388 0 00-.125.55l3.769 6.572c.341.621 1.009 1.051 1.705 1.14l.968.134-.218-.874-.228-.018a2.35 2.35 0 01-1.829-1.185l-3.488-6.196c-.114-.157-.36-.245-.554-.123zm26.305-3.703l-.841-1.427a1.127 1.127 0 01.056-1.275l1.167-1.622a4.023 4.023 0 011.897-1.393l2.248-.737c.176-.043.335-.007.44.115l.439.56a6.89 6.89 0 011.392 3.036l.112.604c.044.175-.062.349-.23.427l-1.463.582a1.92 1.92 0 00-.845 2.915l-3.179.15-1.193-1.935z" fill="#fff"/><path d="M211.847 12.411s.565-.435 1.135.353c.562.753.013 1.704.013 1.704l-2.426 1.522c-.485.305-1.136.093-1.381-.44a.914.914 0 01.258-1.066l2.401-2.073zm17.503 17.121l-1.586.389c-3.622.925-6.859 2.943-9.333 5.776-.406.47-1.172.25-1.293-.388a10.454 10.454 0 01-.159-3.041c.182-2.271 1.201-4.488 3.371-5.688 4.507-2.477 7.881.11 9.348 1.642.386.5.181 1.18-.348 1.31z" fill="#fff"/><path d="M224.311 27.316s-2.747-.217-4.435 1.867c-1.149 1.395-1.232 3.01-1.232 3.01" stroke="#fff" stroke-width="2.5" stroke-miterlimit="10" stroke-linecap="round"/></g><defs><clipPath id="clip0"><path fill="#fff" transform="matrix(-.97124 .2381 .24164 .97037 223.118 0)" d="M0 0h46.454v46.133H0z"/></clipPath></defs></svg>