<svg width="234" height="268" fill="none" xmlns="http://www.w3.org/2000/svg"><g clip-path="url(#clip0)"><path d="M121.835 62.875c35.427 0 64.174 28.727 64.174 64.153 0 35.447-28.726 64.173-64.174 64.173-35.426 0-64.173-28.726-64.173-64.173 0-35.426 28.726-64.153 64.173-64.153zm13.798-11.704h-27.637a3.913 3.913 0 01-3.204-1.675 4.014 4.014 0 01-.46-3.58L118.15 8.5a3.907 3.907 0 013.664-2.576 3.86 3.86 0 013.644 2.576l13.818 37.436c.44 1.193.272 2.554-.46 3.58-.712 1.047-1.906 1.654-3.183 1.654zM58.416 83.164a3.937 3.937 0 01-3.455 1.088 3.886 3.886 0 01-2.848-2.198L35.426 45.811a3.867 3.867 0 01.775-4.376 3.87 3.87 0 014.397-.795L76.84 57.327c1.151.544 1.989 1.591 2.198 2.847.23 1.257-.188 2.534-1.068 3.455L58.416 83.164zm-55.129 40.2l37.457-13.798a3.896 3.896 0 013.58.461A3.883 3.883 0 0146 113.23l-.021 27.617c0 1.277-.628 2.47-1.675 3.203-.67.44-1.445.691-2.22.691-.46 0-.92-.084-1.34-.251L3.308 130.671a3.918 3.918 0 01-2.554-3.664c-.021-1.612 1.005-3.078 2.533-3.643zm48.847 48.658c.545-1.151 1.592-1.989 2.848-2.219a3.973 3.973 0 013.455 1.089l19.534 19.535a3.93 3.93 0 011.089 3.433 3.838 3.838 0 01-2.198 2.848l-36.243 16.708a3.712 3.712 0 01-1.633.356 3.901 3.901 0 01-2.743-1.131c-1.152-1.172-1.487-2.91-.775-4.397l16.666-36.222zm55.883 30.862l27.637.021c1.277 0 2.471.628 3.183 1.675.732 1.047.9 2.387.46 3.56l-13.819 37.436a3.886 3.886 0 01-5.883 1.855 3.888 3.888 0 01-1.424-1.855l-13.819-37.457a3.85 3.85 0 01.461-3.56 3.861 3.861 0 013.204-1.675zm77.217-31.992c.9-.9 2.178-1.298 3.434-1.089a3.91 3.91 0 012.847 2.219l16.708 36.243a3.922 3.922 0 01-3.538 5.549c-.565 0-1.11-.126-1.633-.356l-36.243-16.708a3.937 3.937 0 01-2.219-2.869 3.871 3.871 0 011.088-3.434l19.556-19.555zm16.331-26.151a3.94 3.94 0 01-3.894-3.915l.021-27.617a3.912 3.912 0 015.255-3.664l37.457 13.819a3.916 3.916 0 012.555 3.664 3.88 3.88 0 01-2.555 3.643l-37.457 13.798c-.46.188-.921.272-1.382.272zm-10.05-62.708a3.91 3.91 0 01-6.302 1.13l-19.535-19.555a3.906 3.906 0 01-1.067-3.434 3.907 3.907 0 012.198-2.847l36.264-16.708a3.838 3.838 0 014.376.795 3.867 3.867 0 01.774 4.376l-16.708 36.243z" fill="#FFB74D"/><path d="M80.61 172.504c.02 0 .02 0 0 0 .02-.126 0-.23 0-.356 0-16.331 13.232-29.564 29.563-29.564 2.094 0 4.146.231 6.135.649 5.862-14.258 19.869-24.308 36.243-24.308 12.29 0 23.261 5.674 30.443 14.531 4.627-2.345 9.84-3.706 15.389-3.706 17.692 0 32.223 13.483 33.919 30.736 19.262 1.005 34.714 16.771 34.965 36.327.272 20.393-16.059 37.143-36.452 37.394a34.38 34.38 0 01-4.669-.272c-7.873 16.603-24.79 28.098-44.409 28.098-11.829 0-22.675-4.188-31.155-11.139-6.49 4.795-14.467 7.684-23.156 7.684-17.818 0-32.81-11.955-37.479-28.265-2.93.963-6.071 1.528-9.338 1.528-16.394 0-29.668-13.274-29.668-29.668 0-16.395 13.295-29.669 29.668-29.669z" fill="#B396BD"/><path d="M63.19 178.157c-6.722 6.784-1.969 22.361 2.658 27.428 9.087 9.967 25.795 7.642 32.495 6.198 1.822-.398 2.115-.251 2.701.104.524.315.775.838 1.34 2.052 2.157 4.648 7.726 13.673 19.493 17.295 12.249 3.789 23.806-1.968 29.229-5.423 2.052-1.298 2.136-1.34 3.057-1.319.942 0 1.863.691 2.973 1.57 4.878 3.853 16.059 10.636 33.27 9.652 16.875-.963 26.548-11.369 29.856-16.729.629-1.026 1.32-1.884 2.094-1.968.901-.084 1.906.838 2.68 1.591 7.182 6.994 29.773 9.087 37.29-2.826-7.621 12.227-19.409 18.278-31.49 18.425a34.38 34.38 0 01-4.669-.272c-7.873 16.603-24.79 28.098-44.409 28.098-11.829 0-22.675-4.188-31.155-11.139-6.49 4.795-14.467 7.684-23.156 7.684-17.818 0-32.81-11.955-37.479-28.266-2.93.964-6.072 1.529-9.338 1.529-16.394 0-29.668-13.274-29.668-29.669-.021-8.73 4.376-18.571 12.227-24.015z" fill="#856B8E"/></g><defs><clipPath id="clip0"><path fill="#fff" transform="matrix(-1 0 0 1 268 0)" d="M0 0h268v268H0z"/></clipPath></defs></svg>