<svg width="186" height="256" fill="none" xmlns="http://www.w3.org/2000/svg"><path d="M149.3 106.96h-.02c0-.14.02-.28.02-.42 0-19.1-15.48-34.6-34.6-34.6-2.46 0-4.86.26-7.16.76-6.86-16.68-23.24-28.44-42.4-28.44-14.38 0-27.2 6.64-35.6 17a39.764 39.764 0 00-18-4.32c-20.7 0-37.7 15.76-39.68 35.94-22.5 1.2-40.56 19.64-40.86 42.54-.32 23.84 18.78 43.44 42.62 43.74 1.86.02 3.66-.1 5.46-.32 9.22 19.44 29 32.88 51.94 32.88 13.84 0 26.52-4.9 36.44-13.04 7.58 5.62 16.94 8.98 27.1 8.98 20.84 0 38.38-13.98 43.84-33.08 3.44 1.14 7.1 1.78 10.92 1.78 19.16 0 34.7-15.54 34.7-34.7-.02-19.16-15.54-34.7-34.72-34.7z" fill="#B396BD"/><path d="M169.7 113.58c7.86 7.94 2.3 26.14-3.1 32.08-10.64 11.66-30.16 8.94-38 7.26-2.12-.46-2.46-.3-3.16.12-.62.38-.9.98-1.58 2.4-2.52 5.44-9.04 15.98-22.8 20.22-14.34 4.42-27.86-2.32-34.18-6.34-2.4-1.52-2.5-1.56-3.58-1.54-1.1.02-2.18.82-3.48 1.84-5.72 4.5-18.78 12.44-38.92 11.28-19.74-1.14-31.04-13.3-34.92-19.56-.74-1.2-1.54-2.2-2.46-2.3-1.06-.1-2.24.98-3.12 1.86-8.4 8.18-34.84 10.64-43.6-3.3 8.92 14.3 22.7 21.38 36.84 21.56 1.86.02 3.66-.1 5.46-.32 9.22 19.44 29 32.88 51.94 32.88 13.84 0 26.52-4.9 36.44-13.04 7.58 5.62 16.94 8.98 27.1 8.98 20.84 0 38.38-13.98 43.84-33.08 3.44 1.14 7.1 1.78 10.92 1.78 19.16 0 34.7-15.54 34.7-34.7-.04-10.2-5.16-21.72-14.34-28.08z" fill="#856B8E"/></svg>